SplineFontDB: 3.2
FontName: Matrix-Resurrected
FullName: Matrix-Resurrected
FamilyName: Matrix-Resurrected
Weight: Book
Version: 1.0
ItalicAngle: 0
UnderlinePosition: 0
UnderlineWidth: 0
Ascent: 960
Descent: 64
InvalidEm: 0
sfntRevision: 0x00010000
LayerCount: 2
Layer: 0 1 "Back" 1
Layer: 1 1 "Fore" 0
XUID: [1021 638 -1978960693 21828]
StyleMap: 0x0040
FSType: 0
OS2Version: 3
OS2_WeightWidthSlopeOnly: 0
OS2_UseTypoMetrics: 0
CreationTime: 1662707199
ModificationTime: 1765209508
PfmFamily: 81
TTFWeight: 400
TTFWidth: 5
LineGap: 0
VLineGap: 0
Panose: 0 0 0 0 0 0 0 0 0 0
OS2TypoAscent: 960
OS2TypoAOffset: 0
OS2TypoDescent: -64
OS2TypoDOffset: 0
OS2TypoLinegap: 64
OS2WinAscent: 960
OS2WinAOffset: 0
OS2WinDescent: 64
OS2WinDOffset: 0
HheadAscent: 960
HheadAOffset: 0
HheadDescent: -64
HheadDOffset: 0
OS2SubXSize: 665
OS2SubYSize: 716
OS2SubXOff: 0
OS2SubYOff: 143
OS2SupXSize: 665
OS2SupYSize: 716
OS2SupXOff: 0
OS2SupYOff: 491
OS2StrikeYSize: 51
OS2StrikeYPos: 265
OS2CodePages: 00000001.00000000
OS2UnicodeRanges: 00000001.10000000.00000000.00000000
DEI: 91125
ShortTable: maxp 16
  1
  0
  142
  99
  5
  0
  0
  2
  0
  0
  0
  0
  0
  0
  0
  0
EndShort
LangName: 1033 "" "" "Regular" "Matrix-Resurrected" "" "Version 1.0" "" "" "" "" "Font generated by IcoMoon."
GaspTable: 1 65535 15 1
Encoding: UnicodeBmp
UnicodeInterp: none
NameList: AGL For New Fonts
DisplaySize: -48
AntiAlias: 1
FitToEm: 0
WinInfo: 0 77 26
BeginChars: 65536 146

StartChar: uni0000
Encoding: 0 0 1
Width: 0
GlyphClass: 1
Flags: W
LayerCount: 2
Fore
SplineSet
0 0 m 1,0,-1
 0 0 l 1,1,-1
 0 0 l 1,2,-1
 0 0 l 1,0,-1
EndSplineSet
EndChar

StartChar: uni0001
Encoding: 1 1 2
Width: 0
GlyphClass: 1
Flags: W
LayerCount: 2
Fore
SplineSet
0 0 m 1,0,-1
 0 0 l 1,1,-1
 0 0 l 1,2,-1
 0 0 l 1,0,-1
EndSplineSet
EndChar

StartChar: space
Encoding: 32 32 3
Width: 512
GlyphClass: 1
Flags: W
LayerCount: 2
Fore
SplineSet
0 0 m 1,0,-1
 0 0 l 1,1,-1
 0 0 l 1,2,-1
 0 0 l 1,0,-1
EndSplineSet
EndChar

StartChar: zero
Encoding: 48 48 4
Width: 1024
Flags: W
LayerCount: 2
Fore
SplineSet
396 85 m 1,0,-1
 606 85 l 1,1,2
 657 91 657 91 695 130.5 c 128,-1,3
 733 170 733 170 737 222 c 1,4,-1
 737 691 l 1,5,6
 732 741 732 741 691.5 775.5 c 128,-1,7
 651 810 651 810 601 811 c 2,8,-1
 396 810 l 2,9,10
 349 807 349 807 320.5 772.5 c 128,-1,11
 292 738 292 738 287 694 c 1,12,13
 287 694 287 694 287 620 c 0,14,15
 287 547 287 547 287 458 c 128,-1,16
 287 369 287 369 287 295 c 0,17,18
 287 220 287 220 288 217 c 0,19,20
 294 168 294 168 324 129.5 c 128,-1,21
 354 91 354 91 396 85 c 1,22,-1
 396 85 l 1,0,-1
445 682 m 1,23,24
 446 690 446 690 451.5 697.5 c 128,-1,25
 457 705 457 705 466 707 c 2,26,-1
 538 707 l 2,27,28
 547 705 547 705 552.5 697.5 c 128,-1,29
 558 690 558 690 559 682 c 2,30,-1
 559 596 l 1,31,-1
 445 396 l 1,32,-1
 445 682 l 1,33,-1
 445 682 l 1,23,24
559 501 m 1,34,-1
 559 214 l 2,35,36
 558 205 558 205 552 197.5 c 128,-1,37
 546 190 546 190 536 189 c 2,38,-1
 468 189 l 2,39,40
 458 190 458 190 452 197.5 c 128,-1,41
 446 205 446 205 445 214 c 2,42,-1
 445 301 l 1,43,-1
 559 501 l 1,44,-1
 559 501 l 1,34,-1
EndSplineSet
EndChar

StartChar: plus
Encoding: 43 43 5
Width: 1024
Flags: W
LayerCount: 2
Fore
SplineSet
582 682 m 1,0,-1
 442 682 l 1,1,-1
 442 522 l 1,2,-1
 292 522 l 1,3,-1
 292 374 l 1,4,-1
 442 374 l 1,5,-1
 442 214 l 1,6,-1
 582 214 l 1,7,-1
 582 374 l 1,8,-1
 732 374 l 1,9,-1
 732 522 l 1,10,-1
 582 522 l 1,11,-1
 582 682 l 1,0,-1
EndSplineSet
EndChar

StartChar: one
Encoding: 49 49 6
Width: 1024
Flags: W
LayerCount: 2
Fore
SplineSet
458 72 m 1,0,-1
 636 72 l 1,1,-1
 636 798 l 1,2,-1
 517 798 l 1,3,-1
 388 753 l 1,4,-1
 388 665 l 1,5,-1
 458 665 l 1,6,-1
 458 72 l 1,7,-1
 458 72 l 1,0,-1
EndSplineSet
EndChar

StartChar: two
Encoding: 50 50 7
Width: 1024
Flags: W
LayerCount: 2
Fore
SplineSet
840 189 m 1,0,1
 814 218 814 218 784 247 c 0,2,3
 755 275 755 275 723.5 303 c 128,-1,4
 692 331 692 331 660 357 c 256,5,6
 628 383 628 383 597 406 c 0,7,8
 554 437 554 437 509 471.5 c 128,-1,9
 464 506 464 506 429 545 c 0,10,11
 424 551 424 551 420.5 557.5 c 128,-1,12
 417 564 417 564 415 571 c 0,13,14
 414 577 414 577 414.5 605 c 128,-1,15
 415 633 415 633 417 643 c 0,16,17
 436 688 436 688 485 704 c 128,-1,18
 534 720 534 720 579 718 c 0,19,20
 631 719 631 719 676 692 c 128,-1,21
 721 665 721 665 727 609 c 1,22,-1
 840 609 l 1,23,-1
 840 641 l 1,24,25
 832 725 832 725 770.5 768 c 128,-1,26
 709 811 709 811 629 811 c 2,27,-1
 402 811 l 1,28,29
 333 807 333 807 269 763.5 c 128,-1,30
 205 720 205 720 205 644 c 0,31,32
 202 566 202 566 230 528 c 128,-1,33
 258 490 258 490 312 442 c 0,34,35
 362 399 362 399 421 355 c 128,-1,36
 480 311 480 311 531 270 c 0,37,38
 548 255 548 255 577.5 230.5 c 128,-1,39
 607 206 607 206 608 189 c 1,40,-1
 184 189 l 1,41,-1
 184 85 l 1,42,-1
 840 85 l 1,43,-1
 840 189 l 1,44,-1
 840 189 l 1,0,1
EndSplineSet
EndChar

StartChar: three
Encoding: 51 51 8
Width: 1024
Flags: W
LayerCount: 2
Fore
SplineSet
840 189 m 1,0,-1
 571 306 l 1,1,-1
 720 320 l 1,2,3
 774 336 774 336 803.5 374 c 128,-1,4
 833 412 833 412 840 466 c 1,5,-1
 840 659 l 1,6,7
 834 725 834 725 777 764 c 128,-1,8
 720 803 720 803 660 810 c 1,9,-1
 398 810 l 1,10,11
 314 803 314 803 255.5 751 c 128,-1,12
 197 699 197 699 205 609 c 1,13,-1
 319 609 l 1,14,15
 319 670 319 670 374.5 689 c 128,-1,16
 430 708 430 708 478 708 c 0,17,18
 522 707 522 707 573 688 c 128,-1,19
 624 669 624 669 631 618 c 1,20,-1
 631 468 l 1,21,22
 625 442 625 442 600.5 429 c 128,-1,23
 576 416 576 416 552 413 c 2,24,-1
 284 414 l 1,25,-1
 284 315 l 1,26,-1
 585 189 l 1,27,-1
 184 189 l 1,28,-1
 184 86 l 1,29,-1
 840 86 l 1,30,-1
 840 189 l 1,31,-1
 840 189 l 1,0,-1
EndSplineSet
EndChar

StartChar: four
Encoding: 52 52 9
Width: 1024
Flags: W
LayerCount: 2
Fore
SplineSet
830 811 m 1,0,-1
 607 811 l 1,1,-1
 194 450 l 1,2,-1
 194 346 l 1,3,-1
 620 346 l 1,4,-1
 620 189 l 1,5,-1
 194 189 l 1,6,-1
 194 85 l 1,7,-1
 830 85 l 1,8,-1
 830 811 l 1,9,-1
 830 811 l 1,0,-1
620 450 m 1,10,-1
 362 450 l 1,11,-1
 620 663 l 1,12,-1
 620 450 l 1,10,-1
EndSplineSet
EndChar

StartChar: five
Encoding: 53 53 10
Width: 1024
Flags: W
LayerCount: 2
Fore
SplineSet
184 707 m 1,0,-1
 631 707 l 1,1,-1
 631 587 l 1,2,-1
 312 585 l 1,3,4
 254 572 254 572 221.5 530 c 128,-1,5
 189 488 189 488 184 430 c 1,6,-1
 184 238 l 1,7,8
 190 169 190 169 251 129 c 128,-1,9
 312 89 312 89 375 85 c 1,10,-1
 613 85 l 2,11,12
 657 87 657 87 696 101 c 256,13,14
 735 115 735 115 764 141 c 128,-1,15
 793 167 793 167 808 204 c 0,16,17
 823 240 823 240 819 287 c 1,18,-1
 705 287 l 1,19,20
 705 231 705 231 656 210 c 128,-1,21
 607 189 607 189 561 189 c 2,22,-1
 537 189 l 2,23,24
 495 191 495 191 447 210.5 c 128,-1,25
 399 230 399 230 393 279 c 1,26,-1
 393 423 l 2,27,28
 396 457 396 457 428 470.5 c 128,-1,29
 460 484 460 484 489 483 c 0,30,31
 532 483 532 483 576 483 c 256,32,33
 620 483 620 483 665 482.5 c 128,-1,34
 710 482 710 482 754 482 c 256,35,36
 798 482 798 482 840 482 c 1,37,-1
 840 811 l 1,38,-1
 184 811 l 1,39,-1
 184 707 l 1,40,-1
 184 707 l 1,0,-1
EndSplineSet
EndChar

StartChar: nine
Encoding: 57 57 11
Width: 1024
Flags: W
LayerCount: 2
Fore
SplineSet
508 832 m 0,0,1
 450 832 450 832 396 812 c 0,2,3
 342 791 342 791 300.5 747 c 128,-1,4
 259 703 259 703 234 636 c 256,5,6
 209 569 209 569 209 476 c 0,7,8
 209 366 209 366 234 288 c 0,9,10
 258 210 258 210 300.5 160 c 128,-1,11
 343 110 343 110 401 87 c 256,12,13
 459 64 459 64 527 64 c 256,14,15
 595 64 595 64 650.5 69.5 c 128,-1,16
 706 75 706 75 706 75 c 1,17,-1
 706 171 l 1,18,19
 706 171 706 171 628.5 166.5 c 128,-1,20
 551 162 551 162 503 183 c 256,21,22
 455 204 455 204 422.5 260 c 128,-1,23
 390 316 390 316 394 366 c 1,24,25
 394 366 394 366 440.5 343.5 c 128,-1,26
 487 321 487 321 575 321 c 0,27,28
 629 321 629 321 673 340 c 256,29,30
 717 359 717 359 748.5 392 c 128,-1,31
 780 425 780 425 797 468 c 0,32,33
 815 512 815 512 815 562 c 0,34,35
 815 653 815 653 784 707 c 0,36,37
 754 760 754 760 708 788 c 128,-1,38
 662 816 662 816 609 824 c 0,39,40
 555 832 555 832 508 832 c 0,0,1
620 570 m 1,41,42
 616 499 616 499 582.5 463.5 c 128,-1,43
 549 428 549 428 505 431 c 0,44,45
 461 435 461 435 432.5 474.5 c 128,-1,46
 404 514 404 514 408 585 c 256,47,48
 412 656 412 656 445.5 691 c 128,-1,49
 479 726 479 726 523 723 c 256,50,51
 567 720 567 720 595.5 680 c 128,-1,52
 624 640 624 640 620 570 c 1,53,-1
 620 570 l 1,41,42
EndSplineSet
EndChar

StartChar: six
Encoding: 54 54 12
Width: 1024
Flags: W
LayerCount: 2
Fore
SplineSet
516 64 m 4,0,1
 574 64 574 64 628 84 c 4,2,3
 682 105 682 105 723.5 149 c 132,-1,4
 765 193 765 193 790 260 c 260,5,6
 815 327 815 327 815 420 c 4,7,8
 815 530 815 530 790 608 c 4,9,10
 766 686 766 686 723.5 736 c 132,-1,11
 681 786 681 786 623 809 c 260,12,13
 565 832 565 832 497 832 c 260,14,15
 429 832 429 832 373.5 826.5 c 132,-1,16
 318 821 318 821 318 821 c 5,17,-1
 318 725 l 5,18,19
 318 725 318 725 395.5 729.5 c 132,-1,20
 473 734 473 734 521 713 c 260,21,22
 569 692 569 692 601.5 636 c 132,-1,23
 634 580 634 580 630 530 c 5,24,25
 630 530 630 530 583.5 552.5 c 132,-1,26
 537 575 537 575 449 575 c 4,27,28
 395 575 395 575 351 556 c 260,29,30
 307 537 307 537 275.5 504 c 132,-1,31
 244 471 244 471 227 428 c 4,32,33
 209 384 209 384 209 334 c 4,34,35
 209 243 209 243 240 189 c 4,36,37
 270 136 270 136 316 108 c 132,-1,38
 362 80 362 80 415 72 c 4,39,40
 469 64 469 64 516 64 c 4,0,1
404 326 m 5,41,42
 408 397 408 397 441.5 432.5 c 132,-1,43
 475 468 475 468 519 465 c 4,44,45
 563 461 563 461 591.5 421.5 c 132,-1,46
 620 382 620 382 616 311 c 260,47,48
 612 240 612 240 578.5 205 c 132,-1,49
 545 170 545 170 501 173 c 260,50,51
 457 176 457 176 428.5 216 c 132,-1,52
 400 256 400 256 404 326 c 5,53,-1
 404 326 l 5,41,42
EndSplineSet
EndChar

StartChar: seven
Encoding: 55 55 13
Width: 1024
Flags: W
LayerCount: 2
Fore
SplineSet
620 594 m 1,0,-1
 389 272 l 1,1,-1
 389 85 l 1,2,-1
 640 85 l 1,3,-1
 640 272 l 1,4,-1
 830 603 l 1,5,-1
 830 811 l 1,6,-1
 194 811 l 1,7,-1
 194 707 l 1,8,-1
 620 707 l 1,9,-1
 620 594 l 1,10,-1
 620 594 l 1,0,-1
EndSplineSet
EndChar

StartChar: eight
Encoding: 56 56 14
Width: 1024
Flags: W
LayerCount: 2
Fore
SplineSet
310 97 m 1,0,1
 266 115 266 115 245 151 c 256,2,3
 224 187 224 187 218 228 c 128,-1,4
 212 269 212 269 216 306 c 0,5,6
 221 344 221 344 227 365 c 0,7,8
 239 407 239 407 280 434 c 128,-1,9
 321 461 321 461 321 461 c 1,10,11
 277 480 277 480 257 521 c 0,12,13
 236 561 236 561 233.5 606 c 128,-1,14
 231 651 231 651 243 694 c 0,15,16
 255 736 255 736 276 760 c 0,17,18
 318 808 318 808 393.5 813.5 c 128,-1,19
 469 819 469 819 512 819 c 256,20,21
 555 819 555 819 630.5 813.5 c 128,-1,22
 706 808 706 808 748 760 c 0,23,24
 769 736 769 736 781 694 c 0,25,26
 793 651 793 651 790.5 606 c 128,-1,27
 788 561 788 561 767 521 c 0,28,29
 747 480 747 480 703 461 c 1,30,31
 703 461 703 461 744 434 c 128,-1,32
 785 407 785 407 797 365 c 0,33,34
 803 344 803 344 808 306 c 0,35,36
 812 269 812 269 806 228 c 128,-1,37
 800 187 800 187 779 151 c 256,38,39
 758 115 758 115 714 97 c 0,40,41
 677 82 677 82 628 76.5 c 128,-1,42
 579 71 579 71 512 71 c 256,43,44
 445 71 445 71 396 76.5 c 128,-1,45
 347 82 347 82 310 97 c 1,46,-1
 310 97 l 1,0,1
518 546 m 0,47,48
 542 546 542 546 558.5 550 c 128,-1,49
 575 554 575 554 575 554 c 2,50,51
 603 563 603 563 603.5 617 c 128,-1,52
 604 671 604 671 588 688 c 0,53,54
 574 702 574 702 552.5 704.5 c 128,-1,55
 531 707 531 707 518 707 c 0,56,57
 504 707 504 707 482.5 704.5 c 128,-1,58
 461 702 461 702 447 688 c 0,59,60
 431 671 431 671 432 617 c 128,-1,61
 433 563 433 563 461 554 c 2,62,63
 461 554 461 554 477 550 c 128,-1,64
 493 546 493 546 518 546 c 0,47,48
580 204 m 1,65,66
 612 226 612 226 611.5 283.5 c 128,-1,67
 611 341 611 341 601 370 c 0,68,69
 591 400 591 400 563.5 409.5 c 128,-1,70
 536 419 536 419 518 419 c 256,71,72
 500 419 500 419 472.5 409.5 c 128,-1,73
 445 400 445 400 435 370 c 0,74,75
 425 341 425 341 424 283 c 128,-1,76
 423 225 423 225 455 204 c 0,77,78
 474 192 474 192 518.5 192 c 128,-1,79
 563 192 563 192 580 204 c 1,80,-1
 580 204 l 1,65,66
EndSplineSet
EndChar

StartChar: hyphen
Encoding: 45 45 15
Width: 1024
Flags: W
LayerCount: 2
Fore
SplineSet
190 522 m 1,0,-1
 834 522 l 1,1,-1
 834 374 l 1,2,-1
 190 374 l 1,3,-1
 190 522 l 1,0,-1
EndSplineSet
EndChar

StartChar: equal
Encoding: 61 61 16
Width: 1024
Flags: W
LayerCount: 2
Fore
SplineSet
756 504 m 1,0,-1
 268 504 l 1,1,-1
 268 682 l 1,2,-1
 756 682 l 1,3,-1
 756 504 l 1,4,-1
 756 504 l 1,0,-1
756 392 m 1,5,-1
 268 392 l 1,6,-1
 268 214 l 1,7,-1
 756 214 l 1,8,-1
 756 392 l 1,5,-1
EndSplineSet
EndChar

StartChar: period
Encoding: 46 46 17
Width: 1024
Flags: W
LayerCount: 2
Fore
SplineSet
408 0 m 1,0,-1
 408 198 l 1,1,-1
 616 198 l 1,2,-1
 616 0 l 1,3,-1
 408 0 l 1,0,-1
EndSplineSet
EndChar

StartChar: colon
Encoding: 58 58 18
Width: 1024
Flags: W
LayerCount: 2
Fore
SplineSet
679 560 m 1,0,-1
 345 560 l 1,1,-1
 345 811 l 1,2,-1
 679 811 l 1,3,-1
 679 560 l 1,0,-1
345 85 m 1,4,-1
 679 85 l 1,5,-1
 679 336 l 1,6,-1
 345 336 l 1,7,-1
 345 85 l 1,8,-1
 345 85 l 1,4,-1
EndSplineSet
EndChar

StartChar: underscore
Encoding: 95 95 19
Width: 1024
Flags: W
LayerCount: 2
Fore
SplineSet
153 505 m 1,0,-1
 445 505 l 1,1,-1
 445 391 l 1,2,-1
 153 391 l 1,3,-1
 153 505 l 1,4,-1
 153 505 l 1,0,-1
579 391 m 1,5,-1
 871 391 l 1,6,-1
 871 505 l 1,7,-1
 579 505 l 1,8,-1
 579 391 l 1,5,-1
EndSplineSet
EndChar

StartChar: bracketright
Encoding: 93 93 20
Width: 1024
Flags: W
LayerCount: 2
Fore
SplineSet
682 883 m 1,0,-1
 252 883 l 1,1,-1
 252 842 l 1,2,-1
 348 842 l 1,3,-1
 348 54 l 1,4,-1
 252 54 l 1,5,-1
 252 13 l 1,6,-1
 682 13 l 1,7,-1
 682 883 l 1,8,-1
 682 883 l 1,0,-1
541 33 m 1,9,-1
 485 33 l 1,10,-1
 485 863 l 1,11,-1
 541 863 l 1,12,-1
 541 33 l 1,9,-1
EndSplineSet
EndChar

StartChar: bracketleft
Encoding: 91 91 21
Width: 1024
Flags: W
LayerCount: 2
Fore
SplineSet
777 54 m 1,0,-1
 681 54 l 1,1,-1
 681 842 l 1,2,-1
 777 842 l 1,3,-1
 777 883 l 1,4,-1
 347 883 l 1,5,-1
 347 13 l 1,6,-1
 777 13 l 1,7,-1
 777 54 l 1,8,-1
 777 54 l 1,0,-1
544 33 m 1,9,-1
 488 33 l 1,10,-1
 488 863 l 1,11,-1
 544 863 l 1,12,-1
 544 33 l 1,9,-1
EndSplineSet
EndChar

StartChar: question
Encoding: 63 63 22
Width: 1024
Flags: W
LayerCount: 2
Fore
SplineSet
699 237 m 1,0,-1
 460 237 l 1,1,-1
 274 325 l 1,2,-1
 274 421 l 1,3,4
 352 421 352 421 398.5 420.5 c 128,-1,5
 445 420 445 420 523 420 c 0,6,7
 550 419 550 419 579.5 432 c 128,-1,8
 609 445 609 445 612 476 c 2,9,-1
 612 646 l 1,10,11
 606 691 606 691 562 709 c 128,-1,12
 518 727 518 727 479 728 c 2,13,-1
 458 728 l 2,14,15
 415 728 415 728 370 709 c 128,-1,16
 325 690 325 690 325 638 c 1,17,-1
 220 638 l 1,18,19
 211 724 211 724 270 772.5 c 128,-1,20
 329 821 329 821 409 824 c 2,21,-1
 629 824 l 1,22,23
 687 820 687 820 743 783.5 c 128,-1,24
 799 747 799 747 805 684 c 1,25,-1
 805 469 l 1,26,27
 801 415 801 415 771 376.5 c 128,-1,28
 741 338 741 338 686 327 c 1,29,-1
 514 325 l 1,30,-1
 699 237 l 1,31,-1
 699 237 l 1,0,-1
464 169 m 1,32,-1
 464 72 l 1,33,-1
 677 72 l 1,34,-1
 677 169 l 1,35,-1
 464 169 l 1,36,-1
 464 169 l 1,32,-1
EndSplineSet
EndChar

StartChar: less
Encoding: 60 60 23
Width: 1024
Flags: W
LayerCount: 2
Fore
SplineSet
848 147 m 1,0,-1
 432 449 l 1,1,-1
 848 753 l 1,2,-1
 604 753 l 1,3,-1
 176 449 l 1,4,-1
 604 147 l 1,5,-1
 848 147 l 1,0,-1
EndSplineSet
EndChar

StartChar: greater
Encoding: 62 62 24
Width: 1024
Flags: W
LayerCount: 2
Fore
SplineSet
421 146 m 1,0,-1
 847 446 l 1,1,-1
 421 750 l 1,2,-1
 177 750 l 1,3,-1
 593 446 l 1,4,-1
 177 146 l 1,5,-1
 421 146 l 1,6,-1
 421 146 l 1,0,-1
EndSplineSet
EndChar

StartChar: Z
Encoding: 90 90 25
Width: 1024
Flags: W
LayerCount: 2
Fore
SplineSet
185 250 m 1,0,-1
 185 85 l 1,1,-1
 841 85 l 1,2,-1
 841 189 l 1,3,-1
 409 189 l 1,4,-1
 790 624 l 1,5,-1
 790 811 l 1,6,-1
 183 811 l 1,7,-1
 183 707 l 1,8,-1
 583 707 l 1,9,-1
 185 250 l 1,10,-1
 185 250 l 1,0,-1
EndSplineSet
EndChar

StartChar: quotedbl
Encoding: 34 34 26
Width: 1024
Flags: W
LayerCount: 2
Fore
SplineSet
731 615 m 1,0,-1
 693 281 l 1,1,-1
 533 281 l 1,2,-1
 573 615 l 1,3,-1
 731 615 l 1,0,-1
331 615 m 1,4,-1
 293 281 l 1,5,-1
 451 281 l 1,6,-1
 490 615 l 1,7,-1
 331 615 l 1,4,-1
EndSplineSet
EndChar

StartChar: backslash
Encoding: 92 92 27
Width: 1024
Flags: W
LayerCount: 2
Fore
SplineSet
601 603 m 1,0,-1
 423 458 l 1,1,-1
 423 811 l 1,2,-1
 601 811 l 1,3,-1
 601 603 l 1,0,-1
601 500 m 1,4,-1
 423 355 l 1,5,-1
 423 85 l 1,6,-1
 601 85 l 1,7,-1
 601 500 l 1,8,-1
 601 500 l 1,4,-1
EndSplineSet
EndChar

StartChar: numbersign
Encoding: 35 35 28
Width: 1024
Flags: W
LayerCount: 2
Fore
SplineSet
470 94 m 1,0,-1
 554 94 l 1,1,-1
 554 219 l 1,2,-1
 668 219 l 1,3,-1
 668 315 l 1,4,-1
 554 315 l 1,5,-1
 554 400 l 1,6,-1
 668 400 l 1,7,-1
 668 496 l 1,8,-1
 554 496 l 1,9,-1
 554 581 l 1,10,-1
 668 581 l 1,11,-1
 668 677 l 1,12,-1
 554 677 l 1,13,-1
 554 802 l 1,14,-1
 470 802 l 1,15,-1
 470 677 l 1,16,-1
 356 677 l 1,17,-1
 356 581 l 1,18,-1
 470 581 l 1,19,-1
 470 496 l 1,20,-1
 356 496 l 1,21,-1
 356 400 l 1,22,-1
 470 400 l 1,23,-1
 470 315 l 1,24,-1
 356 315 l 1,25,-1
 356 219 l 1,26,-1
 470 219 l 1,27,-1
 470 94 l 1,28,-1
 470 94 l 1,0,-1
EndSplineSet
EndChar

StartChar: asterisk
Encoding: 42 42 29
Width: 1024
Flags: W
LayerCount: 2
Fore
SplineSet
761 557 m 1,0,-1
 707 643 l 1,1,-1
 563 552 l 1,2,-1
 563 722 l 1,3,-1
 461 722 l 1,4,-1
 461 552 l 1,5,-1
 317 643 l 1,6,-1
 263 557 l 1,7,-1
 417 460 l 1,8,-1
 263 364 l 1,9,-1
 317 278 l 1,10,-1
 461 368 l 1,11,-1
 461 198 l 1,12,-1
 563 198 l 1,13,-1
 563 368 l 1,14,-1
 707 278 l 1,15,-1
 761 364 l 1,16,-1
 607 460 l 1,17,-1
 761 557 l 1,0,-1
EndSplineSet
EndChar

StartChar: Atilde
Encoding: 195 195 30
Width: 956
Flags: W
LayerCount: 2
Fore
SplineSet
541 62 m 1,0,-1
 415 62 l 1,1,-1
 415 407 l 1,2,-1
 541 407 l 1,3,-1
 541 62 l 1,0,-1
415 533 m 1,4,-1
 415 834 l 1,5,-1
 541 834 l 1,6,-1
 541 533 l 1,7,-1
 415 533 l 1,4,-1
EndSplineSet
EndChar

StartChar: exclam
Encoding: 33 33 31
Width: 1024
Flags: W
LayerCount: 2
Fore
SplineSet
426 448 m 1,0,1
 426 413 426 413 451.5 387.5 c 128,-1,2
 477 362 477 362 512 362 c 256,3,4
 547 362 547 362 572.5 387.5 c 128,-1,5
 598 413 598 413 598 448 c 1,6,-1
 598 448 l 1,7,8
 598 483 598 483 572.5 508.5 c 128,-1,9
 547 534 547 534 512 534 c 256,10,11
 477 534 477 534 451.5 508.5 c 128,-1,12
 426 483 426 483 426 448 c 1,13,-1
 426 448 l 1,14,-1
 426 448 l 1,0,1
EndSplineSet
EndChar

StartChar: A
Encoding: 65 65 32
Width: 1024
Flags: W
LayerCount: 2
Fore
SplineSet
460 811 m 1,0,-1
 652 250 l 1,1,-1
 386 284 l 1,2,-1
 481 543 l 1,3,-1
 303 543 l 1,4,-1
 116 85 l 1,5,-1
 312 85 l 1,6,-1
 338 156 l 1,7,-1
 698 85 l 1,8,-1
 908 85 l 1,9,-1
 669 811 l 1,10,-1
 460 811 l 1,11,-1
 460 811 l 1,0,-1
EndSplineSet
EndChar

StartChar: B
Encoding: 66 66 33
Width: 1024
Flags: W
LayerCount: 2
Fore
SplineSet
152 85 m 1,0,-1
 872 85 l 1,1,-1
 872 811 l 1,2,-1
 152 811 l 1,3,-1
 152 85 l 1,4,-1
 152 85 l 1,0,-1
663 684 m 1,5,-1
 663 492 l 1,6,-1
 330 489 l 1,7,-1
 330 684 l 1,8,-1
 663 684 l 1,5,-1
330 406 m 1,9,-1
 663 406 l 1,10,-1
 663 212 l 1,11,-1
 330 212 l 1,12,-1
 330 406 l 1,13,-1
 330 406 l 1,9,-1
EndSplineSet
EndChar

StartChar: C
Encoding: 67 67 34
Width: 1024
Flags: W
LayerCount: 2
Fore
SplineSet
838 241 m 1,0,-1
 333 241 l 1,1,-1
 333 671 l 1,2,-1
 754 671 l 1,3,-1
 754 811 l 1,4,-1
 186 811 l 1,5,-1
 186 85 l 1,6,-1
 838 85 l 1,7,-1
 838 241 l 1,8,-1
 838 241 l 1,0,-1
EndSplineSet
EndChar

StartChar: D
Encoding: 68 68 35
Width: 1024
Flags: W
LayerCount: 2
Fore
SplineSet
637 644 m 1,0,-1
 190 644 l 1,1,-1
 190 511 l 1,2,-1
 631 511 l 1,3,-1
 631 366 l 2,4,5
 631 313 631 313 592.5 267 c 128,-1,6
 554 221 554 221 501 221 c 2,7,-1
 190 221 l 1,8,-1
 190 94 l 1,9,-1
 591 94 l 2,10,11
 642 94 642 94 686 109 c 256,12,13
 730 124 730 124 763 156.5 c 128,-1,14
 796 189 796 189 815 239 c 0,15,16
 834 290 834 290 834 360 c 2,17,-1
 834 802 l 1,18,-1
 637 802 l 1,19,-1
 637 644 l 1,20,-1
 637 644 l 1,0,-1
EndSplineSet
EndChar

StartChar: E
Encoding: 69 69 36
Width: 1024
Flags: W
LayerCount: 2
Fore
SplineSet
730 581 m 1,0,-1
 730 702 l 1,1,-1
 843 702 l 1,2,-1
 843 811 l 1,3,-1
 149 811 l 1,4,-1
 149 707 l 1,5,-1
 551 707 l 1,6,-1
 551 581 l 1,7,-1
 149 581 l 1,8,-1
 149 433 l 1,9,-1
 551 433 l 1,10,-1
 551 212 l 1,11,-1
 149 212 l 1,12,-1
 149 85 l 1,13,-1
 641 86 l 2,14,15
 683 86 683 86 705.5 116.5 c 128,-1,16
 728 147 728 147 729 186 c 2,17,-1
 730 433 l 1,18,-1
 875 433 l 1,19,-1
 875 581 l 1,20,-1
 730 581 l 1,21,-1
 730 581 l 1,0,-1
EndSplineSet
EndChar

StartChar: F
Encoding: 70 70 37
Width: 1024
Flags: W
LayerCount: 2
Fore
SplineSet
799 100 m 1,0,-1
 799 174 l 1,1,2
 730 169 730 169 675 179 c 0,3,4
 621 189 621 189 580.5 207 c 128,-1,5
 540 225 540 225 514 246 c 0,6,7
 487 268 487 268 473 288 c 0,8,9
 463 302 463 302 464 321.5 c 128,-1,10
 465 341 465 341 476 345 c 2,11,-1
 637 408 l 1,12,-1
 610 503 l 1,13,-1
 426 462 l 2,14,15
 392 454 392 454 383.5 479.5 c 128,-1,16
 375 505 375 505 376 675 c 1,17,-1
 591 675 l 1,18,19
 611 627 611 627 641 584 c 0,20,21
 670 541 670 541 704 508.5 c 128,-1,22
 738 476 738 476 774 458 c 0,23,24
 811 439 811 439 845 439 c 1,25,-1
 845 523 l 1,26,27
 826 535 826 535 807 566 c 0,28,29
 787 597 787 597 771 639.5 c 128,-1,30
 755 682 755 682 744 733 c 0,31,32
 734 783 734 783 734 834 c 1,33,-1
 590 834 l 1,34,-1
 584 804 l 1,35,-1
 179 804 l 1,36,-1
 179 611 l 2,37,38
 178 456 178 456 230 352 c 0,39,40
 281 248 281 248 368 188 c 128,-1,41
 455 128 455 128 567 107 c 0,42,43
 679 87 679 87 799 100 c 1,44,-1
 799 100 l 1,0,-1
EndSplineSet
EndChar

StartChar: G
Encoding: 71 71 38
Width: 1024
Flags: W
LayerCount: 2
Fore
SplineSet
215 212 m 1,0,-1
 215 85 l 1,1,-1
 681 86 l 2,2,3
 720 90 720 90 739.5 119.5 c 128,-1,4
 759 149 759 149 761 185 c 2,5,-1
 762 513 l 1,6,-1
 809 513 l 1,7,-1
 809 617 l 1,8,-1
 762 617 l 1,9,-1
 762 720 l 1,10,-1
 805 720 l 1,11,-1
 805 811 l 1,12,-1
 219 811 l 1,13,-1
 219 726 l 1,14,-1
 583 726 l 1,15,-1
 583 617 l 1,16,-1
 220 617 l 1,17,-1
 220 446 l 1,18,19
 229 403 229 403 255 368 c 0,20,21
 282 333 282 333 318.5 310 c 128,-1,22
 355 287 355 287 399 278 c 0,23,24
 442 268 442 268 484 277 c 1,25,-1
 484 362 l 1,26,27
 408 360 408 360 394 406 c 128,-1,28
 380 452 380 452 377 513 c 1,29,-1
 583 513 l 1,30,-1
 583 212 l 1,31,-1
 215 212 l 1,32,-1
 215 212 l 1,0,-1
EndSplineSet
EndChar

StartChar: I
Encoding: 73 73 39
Width: 1024
Flags: W
LayerCount: 2
Fore
SplineSet
852 243 m 1,0,-1
 617 243 l 1,1,-1
 617 671 l 1,2,-1
 816 671 l 1,3,-1
 816 811 l 1,4,-1
 208 811 l 1,5,-1
 208 671 l 1,6,-1
 407 671 l 1,7,-1
 407 243 l 1,8,-1
 172 243 l 1,9,-1
 172 85 l 1,10,-1
 852 85 l 1,11,-1
 852 243 l 1,12,-1
 852 243 l 1,0,-1
EndSplineSet
EndChar

StartChar: g
Encoding: 103 103 40
Width: 956
Flags: W
LayerCount: 2
Fore
SplineSet
360 292 m 2,0,1
 285 292 285 292 238 326 c 256,2,3
 191 360 191 360 164.5 404.5 c 128,-1,4
 138 449 138 449 128 492 c 0,5,6
 119 535 119 535 119 553 c 2,7,-1
 119 809 l 1,8,-1
 837 809 l 1,9,-1
 837 671 l 1,10,-1
 312 671 l 1,11,12
 309 602 309 602 312 547 c 256,13,14
 315 492 315 492 327.5 454.5 c 128,-1,15
 340 417 340 417 365 397 c 0,16,17
 389 378 389 378 431 379 c 1,18,-1
 431 572 l 1,19,-1
 641 572 l 1,20,-1
 641 372 l 2,21,22
 641 192 641 192 837 156 c 1,23,-1
 837 87 l 1,24,25
 833 86 833 86 829 86 c 128,-1,26
 825 86 825 86 820 86 c 0,27,28
 762 86 762 86 707 101 c 0,29,30
 652 115 652 115 604 142 c 128,-1,31
 556 169 556 169 516 207 c 0,32,33
 476 244 476 244 447 290 c 1,34,-1
 446 292 l 1,35,-1
 360 292 l 2,0,1
EndSplineSet
EndChar

StartChar: f
Encoding: 102 102 41
Width: 1024
Flags: W
LayerCount: 2
Fore
SplineSet
517 341 m 1,0,-1
 678 414 l 1,1,-1
 678 571 l 1,2,-1
 443 465 l 1,3,4
 421 513 421 513 408 564 c 128,-1,5
 395 615 395 615 391 669 c 1,6,-1
 819 669 l 1,7,-1
 819 801 l 1,8,-1
 181 801 l 1,9,10
 181 740 181 740 187 683 c 0,11,12
 193 627 193 627 204.5 575.5 c 128,-1,13
 216 524 216 524 234 477 c 0,14,15
 252 431 252 431 276 390 c 1,16,-1
 177 344 l 1,17,-1
 177 187 l 1,18,-1
 366 274 l 1,19,20
 412 230 412 230 465 197 c 0,21,22
 518 163 518 163 578 140.5 c 128,-1,23
 638 118 638 118 705 107 c 0,24,25
 773 95 773 95 847 95 c 1,26,-1
 847 176 l 1,27,28
 794 180 794 180 748 192 c 0,29,30
 701 204 701 204 659.5 225 c 128,-1,31
 618 246 618 246 583 275 c 0,32,33
 547 304 547 304 517 341 c 1,34,-1
 517 341 l 1,0,-1
EndSplineSet
EndChar

StartChar: h
Encoding: 104 104 42
Width: 1024
Flags: W
LayerCount: 2
Fore
SplineSet
683 825 m 1,0,-1
 354 825 l 2,1,2
 292 823 292 823 244.5 790.5 c 128,-1,3
 197 758 197 758 177 706 c 0,4,5
 171 690 171 690 168 673.5 c 128,-1,6
 165 657 165 657 165 639 c 2,7,-1
 165 582 l 1,8,-1
 656 187 l 1,9,10
 640 174 640 174 619.5 168.5 c 128,-1,11
 599 163 599 163 580 162 c 2,12,-1
 377 162 l 2,13,14
 345 163 345 163 310.5 179 c 128,-1,15
 276 195 276 195 277 239 c 2,16,-1
 277 241 l 1,17,-1
 165 241 l 1,18,19
 167 164 167 164 221 118.5 c 128,-1,20
 275 73 275 73 354 71 c 2,21,-1
 683 71 l 2,22,23
 741 74 741 74 797.5 111 c 128,-1,24
 854 148 854 148 859 211 c 1,25,-1
 859 685 l 1,26,27
 854 748 854 748 797.5 785 c 128,-1,28
 741 822 741 822 683 825 c 1,29,-1
 683 825 l 1,0,-1
681 333 m 1,30,-1
 277 659 l 1,31,32
 278 701 278 701 311.5 717 c 128,-1,33
 345 733 345 733 377 733 c 2,34,-1
 580 733 l 2,35,36
 610 732 610 732 643.5 716.5 c 128,-1,37
 677 701 677 701 681 663 c 1,38,-1
 681 333 l 1,39,-1
 681 333 l 1,30,-1
EndSplineSet
EndChar

StartChar: Aacute
Encoding: 193 193 43
Width: 956
Flags: W
LayerCount: 2
Fore
SplineSet
412 693 m 1,0,-1
 540 693 l 1,1,-1
 540 205 l 1,2,-1
 412 205 l 1,3,-1
 412 693 l 1,0,-1
604 439 m 1,4,-1
 753 371 l 1,5,-1
 714 285 l 1,6,-1
 564 352 l 1,7,-1
 604 439 l 1,4,-1
199 531 m 1,8,-1
 236 619 l 1,9,-1
 385 552 l 1,10,-1
 348 464 l 1,11,-1
 199 531 l 1,8,-1
348 439 m 1,12,-1
 386 352 l 1,13,-1
 238 285 l 1,14,-1
 199 371 l 1,15,-1
 348 439 l 1,12,-1
714 621 m 1,16,-1
 753 531 l 1,17,-1
 604 464 l 1,18,-1
 566 554 l 1,19,-1
 714 621 l 1,16,-1
EndSplineSet
EndChar

StartChar: Acircumflex
Encoding: 194 194 44
Width: 1024
Flags: W
LayerCount: 2
Fore
SplineSet
407 524 m 1,0,-1
 617 524 l 1,1,-1
 617 372 l 1,2,-1
 407 372 l 1,3,-1
 407 524 l 1,0,-1
EndSplineSet
EndChar

StartChar: Agrave
Encoding: 192 192 45
Width: 1024
Flags: W
LayerCount: 2
Fore
SplineSet
629 455 m 1,0,-1
 584 554 l 1,1,-1
 747 634 l 1,2,-1
 791 535 l 1,3,-1
 633 457 l 1,4,-1
 797 389 l 1,5,-1
 751 288 l 1,6,-1
 585 362 l 1,7,-1
 629 455 l 1,8,-1
 629 455 l 1,0,-1
582 682 m 1,9,-1
 442 682 l 1,10,-1
 442 214 l 1,11,-1
 582 214 l 1,12,-1
 582 682 l 1,13,-1
 582 682 l 1,9,-1
273 288 m 1,14,-1
 439 362 l 1,15,-1
 395 455 l 1,16,-1
 440 554 l 1,17,-1
 277 634 l 1,18,-1
 233 535 l 1,19,-1
 391 457 l 1,20,-1
 227 389 l 1,21,-1
 273 288 l 1,22,-1
 273 288 l 1,14,-1
EndSplineSet
EndChar

StartChar: grave
Encoding: 96 96 46
Width: 1024
Flags: W
LayerCount: 2
Fore
SplineSet
461 256 m 1,0,-1
 617 256 l 1,1,-1
 601 640 l 1,2,-1
 407 640 l 1,3,-1
 461 256 l 1,4,-1
 461 256 l 1,0,-1
EndSplineSet
EndChar

StartChar: quotesingle
Encoding: 39 39 47
Width: 1024
Flags: W
LayerCount: 2
Fore
SplineSet
617 640 m 1,0,-1
 423 640 l 1,1,-1
 407 256 l 1,2,-1
 563 256 l 1,3,-1
 617 640 l 1,0,-1
EndSplineSet
EndChar

StartChar: Adieresis
Encoding: 196 196 48
Width: 1024
Flags: W
LayerCount: 2
Fore
SplineSet
338 313 m 1,0,-1
 686 313 l 1,1,-1
 686 263 l 1,2,-1
 338 263 l 1,3,-1
 338 313 l 1,4,-1
 338 313 l 1,0,-1
338 380 m 1,5,-1
 686 380 l 1,6,-1
 686 631 l 1,7,-1
 338 631 l 1,8,-1
 338 380 l 1,9,-1
 338 380 l 1,5,-1
338 165 m 1,10,-1
 686 165 l 1,11,-1
 686 197 l 1,12,-1
 338 197 l 1,13,-1
 338 165 l 1,14,-1
 338 165 l 1,10,-1
EndSplineSet
EndChar

StartChar: Aring
Encoding: 197 197 49
Width: 1024
Flags: W
LayerCount: 2
Fore
SplineSet
437 454 m 1,0,-1
 487 454 l 1,1,-1
 487 106 l 1,2,-1
 437 106 l 1,3,-1
 437 454 l 1,4,-1
 437 454 l 1,0,-1
359 106 m 1,5,-1
 391 106 l 1,6,-1
 391 454 l 1,7,-1
 359 454 l 1,8,-1
 359 106 l 1,5,-1
533 106 m 1,9,-1
 798 106 l 1,10,-1
 798 454 l 1,11,-1
 533 454 l 1,12,-1
 533 106 l 1,9,-1
EndSplineSet
EndChar

StartChar: dollar
Encoding: 36 36 50
Width: 1024
Flags: W
LayerCount: 2
Fore
SplineSet
864 651 m 1,0,-1
 864 215 l 1,1,2
 858 153 858 153 810 117.5 c 128,-1,3
 762 82 762 82 705 79 c 2,4,-1
 651 79 l 2,5,6
 641 79 641 79 637 89 c 128,-1,7
 633 99 633 99 641 106 c 0,8,9
 660 122 660 122 673 143.5 c 128,-1,10
 686 165 686 165 689 193 c 0,11,12
 689 194 689 194 689 194.5 c 128,-1,13
 689 195 689 195 689 196 c 2,14,-1
 689 614 l 1,15,16
 684 658 684 658 653.5 675.5 c 128,-1,17
 623 693 623 693 589 695 c 0,18,19
 588 695 588 695 565 694.5 c 128,-1,20
 542 694 542 694 542 694 c 2,21,22
 505 694 505 694 473.5 675.5 c 128,-1,23
 442 657 442 657 442 606 c 2,24,-1
 442 291 l 1,25,-1
 332 291 l 1,26,-1
 332 613 l 2,27,28
 332 667 332 667 360 708 c 128,-1,29
 388 749 388 749 433 770 c 0,30,31
 451 778 451 778 488 785.5 c 128,-1,32
 525 793 525 793 599 793 c 0,33,34
 674 793 674 793 712.5 784.5 c 128,-1,35
 751 776 751 776 769 768 c 0,36,37
 806 751 806 751 833 721.5 c 128,-1,38
 860 692 860 692 864 651 c 1,39,-1
 864 651 l 1,0,-1
516 616 m 1,40,-1
 516 291 l 2,41,42
 517 235 517 235 481.5 214.5 c 128,-1,43
 446 194 446 194 405 193 c 2,44,45
 405 193 405 193 387.5 193 c 128,-1,46
 370 193 370 193 369 193 c 0,47,48
 332 195 332 195 296.5 214.5 c 128,-1,49
 261 234 261 234 256 282 c 1,50,-1
 256 712 l 2,51,52
 256 740 256 740 268.5 762.5 c 128,-1,53
 281 785 281 785 303 799 c 1,54,-1
 293 817 l 1,55,56
 249 816 249 816 204.5 793 c 128,-1,57
 160 770 160 770 160 712 c 2,58,-1
 160 235 l 1,59,60
 164 200 164 200 187 175 c 128,-1,61
 210 150 210 150 241 136 c 0,62,63
 257 129 257 129 290 122 c 128,-1,64
 323 115 323 115 387 115 c 256,65,66
 451 115 451 115 483 121 c 128,-1,67
 515 127 515 127 529 134 c 0,68,69
 568 152 568 152 592 186.5 c 128,-1,70
 616 221 616 221 616 267 c 2,71,-1
 616 616 l 1,72,-1
 516 616 l 1,73,-1
 516 616 l 1,40,-1
EndSplineSet
EndChar

StartChar: a
Encoding: 97 97 51
Width: 1024
Flags: W
LayerCount: 2
Fore
SplineSet
176 355 m 1,0,1
 176 241 176 241 210.5 176 c 128,-1,2
 245 111 245 111 263 93 c 1,3,-1
 386 93 l 1,4,5
 339 142 339 142 313 200 c 128,-1,6
 287 258 287 258 285 283 c 1,7,8
 318 307 318 307 361 326 c 0,9,10
 405 346 405 346 456 360 c 128,-1,11
 507 374 507 374 565 381 c 0,12,13
 623 389 623 389 685 389 c 2,14,15
 685 389 685 389 685.5 389 c 128,-1,16
 686 389 686 389 687 389 c 1,17,-1
 687 93 l 1,18,-1
 848 93 l 1,19,-1
 848 787 l 1,20,21
 771 809 771 809 656 800 c 0,22,23
 542 791 542 791 435 741.5 c 128,-1,24
 328 692 328 692 252 598 c 256,25,26
 176 504 176 504 176 355 c 1,27,-1
 176 355 l 1,0,1
659 487 m 1,28,29
 603 487 603 487 551 481 c 256,30,31
 499 475 499 475 451.5 464 c 128,-1,32
 404 453 404 453 363 437 c 256,33,34
 322 421 322 421 288 401 c 1,35,36
 297 457 297 457 330 511 c 0,37,38
 364 566 364 566 417 607 c 128,-1,39
 470 648 470 648 539 669 c 0,40,41
 608 691 608 691 687 681 c 1,42,-1
 687 487 l 1,43,44
 680 487 680 487 673 487 c 128,-1,45
 666 487 666 487 659 487 c 1,46,-1
 659 487 l 1,28,29
EndSplineSet
EndChar

StartChar: slash
Encoding: 47 47 52
Width: 1024
Flags: W
LayerCount: 2
Fore
SplineSet
617 48 m 1,0,-1
 503 48 l 1,1,-1
 503 848 l 1,2,-1
 617 848 l 1,3,-1
 617 48 l 1,0,-1
457 848 m 1,4,-1
 407 848 l 1,5,-1
 407 48 l 1,6,-1
 457 48 l 1,7,-1
 457 848 l 1,4,-1
EndSplineSet
EndChar

StartChar: semicolon
Encoding: 59 59 53
Width: 1024
Flags: W
LayerCount: 2
Fore
SplineSet
661 488 m 1,0,-1
 363 488 l 1,1,-1
 363 650 l 1,2,-1
 661 650 l 1,3,-1
 661 488 l 1,0,-1
661 406 m 1,4,-1
 363 406 l 1,5,-1
 363 244 l 1,6,-1
 661 244 l 1,7,-1
 661 406 l 1,4,-1
EndSplineSet
EndChar

StartChar: comma
Encoding: 44 44 54
Width: 1024
Flags: W
LayerCount: 2
Fore
SplineSet
345 377 m 1,0,-1
 679 377 l 1,1,-1
 679 215 l 1,2,-1
 345 215 l 1,3,-1
 345 377 l 1,0,-1
345 430 m 1,4,-1
 679 430 l 1,5,-1
 679 681 l 1,6,-1
 345 681 l 1,7,-1
 345 430 l 1,4,-1
EndSplineSet
EndChar

StartChar: percent
Encoding: 37 37 55
Width: 1024
Flags: W
LayerCount: 2
Fore
SplineSet
762 822 m 1,0,-1
 639 822 l 2,1,2
 572 822 572 822 562.5 768.5 c 128,-1,3
 553 715 553 715 553 657 c 0,4,5
 553 644 553 644 553 630 c 128,-1,6
 553 616 553 616 554 603 c 1,7,8
 553 603 553 603 553 603 c 129,-1,9
 553 603 553 603 553 603 c 1,10,-1
 520 603 l 2,11,12
 464 603 464 603 413 593 c 128,-1,13
 362 583 362 583 362 513 c 2,14,-1
 362 426 l 1,15,-1
 175 426 l 1,16,-1
 176 320 l 1,17,-1
 176 243 l 2,18,19
 177 187 177 187 208.5 132 c 128,-1,20
 240 77 240 77 300 74 c 2,21,-1
 497 74 l 2,22,23
 558 77 558 77 589 132 c 128,-1,24
 620 187 620 187 622 243 c 2,25,-1
 622 295 l 1,26,27
 659 299 659 299 685 317 c 128,-1,28
 711 335 711 335 711 384 c 2,29,-1
 711 491 l 1,30,-1
 762 491 l 2,31,32
 830 491 830 491 839 544.5 c 128,-1,33
 848 598 848 598 849 657 c 0,34,35
 848 715 848 715 839 768.5 c 128,-1,36
 830 822 830 822 762 822 c 1,37,-1
 762 822 l 1,0,-1
462 463 m 1,38,39
 463 486 463 486 479.5 494 c 128,-1,40
 496 502 496 502 520 502 c 2,41,-1
 553 502 l 2,42,43
 577 502 577 502 593 494 c 128,-1,44
 609 486 609 486 610 463 c 2,45,-1
 610 434 l 2,46,47
 609 411 609 411 593 402.5 c 128,-1,48
 577 394 577 394 553 394 c 2,49,-1
 520 394 l 2,50,51
 496 394 496 394 479.5 402.5 c 128,-1,52
 463 411 463 411 462 434 c 2,53,-1
 462 463 l 1,54,-1
 462 463 l 1,38,39
508 282 m 2,55,56
 507 264 507 264 501 244.5 c 128,-1,57
 495 225 495 225 477 218 c 0,58,59
 457 209 457 209 398.5 209 c 128,-1,60
 340 209 340 209 321 218 c 0,61,62
 302 225 302 225 296 244.5 c 128,-1,63
 290 264 290 264 290 282 c 2,64,-1
 290 320 l 1,65,-1
 508 320 l 1,66,-1
 508 282 l 2,55,56
714 597 m 2,67,-1
 687 597 l 2,68,69
 665 598 665 598 657 615 c 128,-1,70
 649 632 649 632 649 657 c 256,71,72
 649 682 649 682 657 699 c 128,-1,73
 665 716 665 716 687 717 c 2,74,-1
 714 717 l 2,75,76
 737 716 737 716 744.5 699 c 128,-1,77
 752 682 752 682 752 657 c 256,78,79
 752 632 752 632 744.5 615 c 128,-1,80
 737 598 737 598 714 597 c 2,67,-1
EndSplineSet
EndChar

StartChar: ampersand
Encoding: 38 38 56
Width: 1024
Flags: W
LayerCount: 2
Fore
SplineSet
455 825 m 1,0,-1
 455 655 l 1,1,2
 435 657 435 657 399.5 656 c 128,-1,3
 364 655 364 655 362 685 c 2,4,-1
 361 815 l 2,5,6
 361 820 361 820 358 823 c 128,-1,7
 355 826 355 826 351 826 c 0,8,9
 292 828 292 828 275.5 797 c 128,-1,10
 259 766 259 766 259 720 c 0,11,12
 259 629 259 629 281 580 c 128,-1,13
 303 531 303 531 396 531 c 1,14,15
 399 502 399 502 420.5 482 c 128,-1,16
 442 462 442 462 472 462 c 256,17,18
 502 462 502 462 523.5 482.5 c 128,-1,19
 545 503 545 503 548 532 c 1,20,-1
 568 532 l 2,21,22
 612 532 612 532 641.5 511.5 c 128,-1,23
 671 491 671 491 668 373 c 1,24,25
 672 241 672 241 635 228 c 128,-1,26
 598 215 598 215 547 214 c 2,27,-1
 491 214 l 1,28,-1
 541 349 l 1,29,-1
 368 349 l 1,30,-1
 265 67 l 1,31,-1
 438 67 l 1,32,-1
 452 106 l 1,33,34
 488 106 488 106 529 106 c 0,35,36
 570 105 570 105 606.5 106 c 128,-1,37
 643 107 643 107 669 109 c 0,38,39
 695 112 695 112 700 117 c 0,40,41
 755 146 755 146 760 209 c 128,-1,42
 765 272 765 272 765 325 c 2,43,-1
 765 421 l 2,44,45
 765 474 765 474 760 537 c 128,-1,46
 755 600 755 600 700 629 c 0,47,48
 693 636 693 636 651 638 c 128,-1,49
 609 640 609 640 556 640 c 1,50,51
 558 681 558 681 556 746.5 c 128,-1,52
 554 812 554 812 550 821 c 0,53,54
 545 830 545 830 507.5 829 c 128,-1,55
 470 828 470 828 455 825 c 1,56,-1
 455 825 l 1,0,-1
EndSplineSet
EndChar

StartChar: H
Encoding: 72 72 57
Width: 1024
Flags: W
LayerCount: 2
Fore
SplineSet
648 811 m 1,0,-1
 470 811 l 1,1,-1
 452 678 l 1,2,-1
 167 678 l 1,3,-1
 167 521 l 1,4,-1
 431 521 l 1,5,-1
 419 413 l 1,6,-1
 167 413 l 1,7,-1
 167 255 l 1,8,-1
 397 255 l 1,9,-1
 375 85 l 1,10,-1
 565 85 l 1,11,-1
 587 255 l 1,12,-1
 857 255 l 1,13,-1
 857 413 l 1,14,-1
 596 413 l 1,15,-1
 611 521 l 1,16,-1
 857 521 l 1,17,-1
 857 678 l 1,18,-1
 631 678 l 1,19,-1
 648 811 l 1,20,-1
 648 811 l 1,0,-1
EndSplineSet
EndChar

StartChar: J
Encoding: 74 74 58
Width: 1024
Flags: W
LayerCount: 2
Fore
SplineSet
192 368 m 1,0,1
 182 393 182 393 176.5 421.5 c 128,-1,2
 171 450 171 450 170 477 c 2,3,-1
 170 811 l 1,4,-1
 379 811 l 1,5,-1
 380 477 l 2,6,7
 382 434 382 434 397 394 c 0,8,9
 412 353 412 353 437.5 318.5 c 128,-1,10
 463 284 463 284 496 257 c 0,11,12
 529 229 529 229 568 211 c 0,13,14
 633 184 633 184 708 181 c 128,-1,15
 783 178 783 178 853 176 c 1,16,-1
 854 91 l 1,17,18
 763 81 763 81 664 89 c 256,19,20
 565 97 565 97 474.5 129 c 128,-1,21
 384 161 384 161 309 219 c 0,22,23
 235 278 235 278 192 368 c 1,24,-1
 192 368 l 1,0,1
794 811 m 1,25,-1
 616 811 l 1,26,-1
 581 436 l 1,27,-1
 759 436 l 1,28,-1
 794 811 l 1,29,-1
 794 811 l 1,25,-1
EndSplineSet
EndChar

StartChar: K
Encoding: 75 75 59
Width: 1024
Flags: W
LayerCount: 2
Fore
SplineSet
674 812 m 1,0,-1
 852 812 l 1,1,-1
 817 437 l 1,2,-1
 640 437 l 1,3,-1
 674 812 l 1,4,-1
 674 812 l 1,0,-1
181 294 m 1,5,6
 235 225 235 225 307 181 c 256,7,8
 379 137 379 137 460.5 114 c 128,-1,9
 542 91 542 91 629 86 c 0,10,11
 715 81 715 81 798 92 c 1,12,-1
 798 177 l 1,13,14
 720 170 720 170 640 181 c 0,15,16
 560 191 560 191 492.5 224.5 c 128,-1,17
 425 258 425 258 379 317 c 0,18,19
 333 377 333 377 324 467 c 1,20,-1
 324 812 l 1,21,-1
 115 812 l 1,22,-1
 114 478 l 2,23,24
 116 430 116 430 134.5 381 c 128,-1,25
 153 332 153 332 181 294 c 1,26,-1
 181 294 l 1,5,6
564 437 m 1,27,-1
 599 812 l 1,28,-1
 421 812 l 1,29,-1
 387 437 l 1,30,-1
 564 437 l 1,31,-1
 564 437 l 1,27,-1
EndSplineSet
EndChar

StartChar: L
Encoding: 76 76 60
Width: 1024
Flags: W
LayerCount: 2
Fore
SplineSet
336 86 m 1,0,-1
 157 86 l 1,1,-1
 294 811 l 1,2,-1
 473 811 l 1,3,-1
 336 86 l 1,4,-1
 336 86 l 1,0,-1
836 245 m 1,5,6
 812 268 812 268 796 305 c 256,7,8
 780 342 780 342 770.5 383 c 128,-1,9
 761 424 761 424 756 463 c 256,10,11
 751 502 751 502 747 529 c 0,12,13
 744 556 744 556 738 604 c 0,14,15
 732 651 732 651 726 697 c 128,-1,16
 720 743 720 743 716 777 c 0,17,18
 711 811 711 811 711 811 c 1,19,-1
 532 811 l 1,20,-1
 570 522 l 2,21,22
 579 473 579 473 588 420 c 256,23,24
 597 367 597 367 611 316 c 128,-1,25
 625 265 625 265 647 218 c 256,26,27
 669 171 669 171 705 133 c 0,28,29
 736 101 736 101 780.5 93 c 128,-1,30
 825 85 825 85 867 85 c 1,31,-1
 867 225 l 1,32,33
 861 228 861 228 851.5 234 c 128,-1,34
 842 240 842 240 836 245 c 1,35,-1
 836 245 l 1,5,6
EndSplineSet
EndChar

StartChar: parenright
Encoding: 41 41 61
Width: 1024
Flags: W
LayerCount: 2
Fore
SplineSet
601 791 m 1,0,-1
 601 865 l 1,1,-1
 424 865 l 1,2,-1
 424 794 l 2,3,4
 425 772 425 772 418.5 762 c 128,-1,5
 412 752 412 752 399 752 c 2,6,-1
 179 752 l 1,7,8
 179 585 179 585 227 525 c 128,-1,9
 275 465 275 465 331 418 c 1,10,-1
 181 355 l 1,11,-1
 181 212 l 1,12,-1
 424 323 l 1,13,-1
 424 107 l 1,14,-1
 179 107 l 1,15,-1
 179 31 l 1,16,-1
 845 31 l 1,17,-1
 845 107 l 1,18,-1
 601 107 l 1,19,-1
 601 268 l 1,20,21
 634 254 634 254 699.5 245 c 128,-1,22
 765 236 765 236 845 239 c 1,23,-1
 845 319 l 1,24,25
 786 329 786 329 734 343 c 0,26,27
 682 358 682 358 638.5 378 c 128,-1,28
 595 398 595 398 559 422 c 0,29,30
 523 447 523 447 495 477 c 0,31,32
 461 511 461 511 442 547 c 128,-1,33
 423 583 423 583 417 621 c 1,34,-1
 845 621 l 1,35,-1
 845 752 l 1,36,-1
 624 752 l 1,37,38
 608 759 608 759 604.5 768.5 c 128,-1,39
 601 778 601 778 601 791 c 1,40,-1
 601 791 l 1,0,-1
EndSplineSet
EndChar

StartChar: parenleft
Encoding: 40 40 62
Width: 1024
Flags: W
LayerCount: 2
Fore
SplineSet
337 424 m 1,0,-1
 180 141 l 1,1,-1
 180 105 l 1,2,-1
 341 105 l 1,3,-1
 441 263 l 1,4,5
 478 224 478 224 522 195 c 0,6,7
 566 165 566 165 616.5 145.5 c 128,-1,8
 667 126 667 126 724 117 c 0,9,10
 781 107 781 107 844 107 c 1,11,-1
 844 178 l 1,12,13
 794 182 794 182 751.5 195.5 c 128,-1,14
 709 209 709 209 673 232 c 0,15,16
 630 261 630 261 597 301 c 256,17,18
 564 341 564 341 541 393 c 128,-1,19
 518 445 518 445 506 509 c 0,20,21
 493 573 493 573 491 648 c 1,22,-1
 844 648 l 1,23,-1
 844 791 l 1,24,-1
 269 791 l 1,25,26
 269 750 269 750 275 694 c 0,27,28
 281 637 281 637 290.5 582 c 128,-1,29
 300 527 300 527 312 483 c 0,30,31
 325 439 325 439 337 424 c 1,32,-1
 337 424 l 1,0,-1
EndSplineSet
EndChar

StartChar: at
Encoding: 64 64 63
Width: 1024
Flags: W
LayerCount: 2
Fore
SplineSet
855 406 m 1,0,1
 848 426 848 426 836 445 c 128,-1,2
 824 464 824 464 810 480 c 0,3,4
 761 530 761 530 711.5 578.5 c 128,-1,5
 662 627 662 627 611 674 c 0,6,7
 582 700 582 700 553 726.5 c 128,-1,8
 524 753 524 753 491 776 c 1,9,10
 466 802 466 802 415 769 c 0,11,12
 363 736 363 736 311 684 c 128,-1,13
 259 632 259 632 217 582 c 0,14,15
 176 531 176 531 169 522 c 0,16,17
 156 504 156 504 167 455 c 128,-1,18
 178 406 178 406 200 381 c 0,19,20
 237 342 237 342 275 303 c 256,21,22
 313 264 313 264 353.5 227 c 128,-1,23
 394 190 394 190 437 156 c 0,24,25
 480 123 480 123 526 94 c 0,26,27
 577 63 577 63 618.5 105 c 128,-1,28
 660 147 660 147 696 175 c 1,29,30
 739 216 739 216 780 259.5 c 128,-1,31
 821 303 821 303 857 350 c 0,32,33
 864 360 864 360 861 378.5 c 128,-1,34
 858 397 858 397 855 406 c 1,35,-1
 855 406 l 1,0,1
613 377 m 1,36,37
 582 347 582 347 551 317.5 c 128,-1,38
 520 288 520 288 485 263 c 0,39,40
 484 263 484 263 483.5 263.5 c 128,-1,41
 483 264 483 264 482 264 c 0,42,43
 425 307 425 307 373 356 c 128,-1,44
 321 405 321 405 271 455 c 1,45,46
 307 496 307 496 345.5 536 c 128,-1,47
 384 576 384 576 427 610 c 0,48,49
 441 621 441 621 457 632.5 c 128,-1,50
 473 644 473 644 492 644 c 1,51,52
 505 639 505 639 517.5 629 c 128,-1,53
 530 619 530 619 541 610 c 0,54,55
 581 577 581 577 620 540.5 c 128,-1,56
 659 504 659 504 697 468 c 1,57,58
 677 444 677 444 656 421.5 c 128,-1,59
 635 399 635 399 613 377 c 1,60,-1
 613 377 l 1,36,37
477 362 m 1,61,62
 474 359 474 359 466.5 364.5 c 128,-1,63
 459 370 459 370 457 372 c 0,64,65
 447 379 447 379 438.5 387.5 c 128,-1,66
 430 396 430 396 422 405 c 256,67,68
 414 414 414 414 406.5 423 c 128,-1,69
 399 432 399 432 393 442 c 0,70,71
 392 444 392 444 387.5 451.5 c 128,-1,72
 383 459 383 459 386 462 c 2,73,-1
 397 473 l 2,74,75
 416 491 416 491 435.5 509.5 c 128,-1,76
 455 528 455 528 474 547 c 0,77,78
 477 550 477 550 484 544.5 c 128,-1,79
 491 539 491 539 493 537 c 0,80,81
 503 530 503 530 511.5 521.5 c 128,-1,82
 520 513 520 513 528 504 c 0,83,84
 536 496 536 496 543.5 486.5 c 128,-1,85
 551 477 551 477 557 467 c 0,86,87
 558 466 558 466 562.5 458 c 128,-1,88
 567 450 567 450 564 447 c 2,89,-1
 553 437 l 2,90,91
 534 418 534 418 515 399.5 c 128,-1,92
 496 381 496 381 477 362 c 1,93,-1
 477 362 l 1,94,-1
 477 362 l 1,61,62
EndSplineSet
EndChar

StartChar: M
Encoding: 77 77 64
Width: 1024
Flags: W
LayerCount: 2
Fore
SplineSet
855 811 m 1,0,-1
 863 642 l 1,1,-1
 171 582 l 1,2,-1
 161 749 l 1,3,-1
 855 811 l 1,4,-1
 855 811 l 1,0,-1
161 252 m 1,5,-1
 171 85 l 1,6,-1
 863 146 l 1,7,-1
 855 314 l 1,8,-1
 161 252 l 1,9,-1
 161 252 l 1,5,-1
823 562 m 1,10,-1
 213 503 l 1,11,-1
 221 334 l 1,12,-1
 829 394 l 1,13,-1
 823 562 l 1,14,-1
 823 562 l 1,10,-1
EndSplineSet
EndChar

StartChar: N
Encoding: 78 78 65
Width: 1024
Flags: W
LayerCount: 2
Fore
SplineSet
836 632 m 1,0,-1
 188 632 l 1,1,-1
 188 811 l 1,2,-1
 836 811 l 1,3,-1
 836 632 l 1,0,-1
152 85 m 1,4,-1
 872 85 l 1,5,-1
 872 264 l 1,6,-1
 152 264 l 1,7,-1
 152 85 l 1,8,-1
 152 85 l 1,4,-1
EndSplineSet
EndChar

StartChar: n
Encoding: 110 110 66
Width: 1024
Flags: W
LayerCount: 2
Fore
SplineSet
704 562 m 1,0,-1
 809 562 l 1,1,-1
 809 688 l 1,2,-1
 704 688 l 1,3,-1
 704 811 l 1,4,-1
 494 811 l 1,5,-1
 494 688 l 1,6,-1
 183 688 l 1,7,-1
 184 184 l 1,8,9
 192 138 192 138 218 114 c 128,-1,10
 244 90 244 90 290 86 c 2,11,-1
 494 85 l 1,12,-1
 494 189 l 1,13,-1
 340 189 l 1,14,-1
 340 562 l 1,15,-1
 494 562 l 1,16,17
 493 488 493 488 518 409 c 0,18,19
 542 329 542 329 588 261 c 128,-1,20
 634 193 634 193 698 146 c 256,21,22
 762 99 762 99 841 90 c 1,23,-1
 841 176 l 1,24,25
 784 189 784 189 755 232 c 0,26,27
 727 276 727 276 715.5 332.5 c 128,-1,28
 704 389 704 389 704 451 c 256,29,30
 704 513 704 513 704 562 c 1,31,-1
 704 562 l 1,0,-1
EndSplineSet
EndChar

StartChar: t
Encoding: 116 116 67
Width: 1024
Flags: W
LayerCount: 2
Fore
SplineSet
847 109 m 1,0,-1
 847 190 l 1,1,2
 786 188 786 188 735 207 c 0,3,4
 685 226 685 226 645 262 c 128,-1,5
 605 298 605 298 574 348 c 0,6,7
 544 397 544 397 523 456 c 1,8,-1
 762 556 l 1,9,-1
 762 693 l 1,10,-1
 488 586 l 1,11,12
 479 634 479 634 474.5 684 c 128,-1,13
 470 734 470 734 470 784 c 1,14,-1
 267 784 l 1,15,16
 265 709 265 709 274 641 c 128,-1,17
 283 573 283 573 302 514 c 1,18,-1
 177 465 l 1,19,-1
 177 313 l 1,20,-1
 357 388 l 1,21,22
 396 323 396 323 448 272 c 0,23,24
 500 222 500 222 562.5 186.5 c 128,-1,25
 625 151 625 151 697 132 c 0,26,27
 769 112 769 112 847 109 c 1,28,-1
 847 109 l 1,0,-1
EndSplineSet
EndChar

StartChar: T
Encoding: 84 84 68
Width: 1024
Flags: W
LayerCount: 2
Fore
SplineSet
357 501 m 1,0,1
 358 389 358 389 391 305 c 0,2,3
 425 221 425 221 486 168 c 128,-1,4
 547 115 547 115 635 95 c 256,5,6
 723 75 723 75 833 90 c 1,7,-1
 833 175 l 1,8,9
 757 176 757 176 706 202 c 0,10,11
 655 227 655 227 624 271 c 128,-1,12
 593 315 593 315 580 374 c 256,13,14
 567 433 567 433 566 502 c 1,15,-1
 833 502 l 1,16,-1
 833 659 l 1,17,-1
 566 659 l 1,18,-1
 566 812 l 1,19,-1
 357 812 l 1,20,-1
 357 659 l 1,21,-1
 191 659 l 1,22,-1
 191 502 l 1,23,-1
 357 502 l 1,24,-1
 357 501 l 1,25,-1
 357 501 l 1,0,1
EndSplineSet
EndChar

StartChar: O
Encoding: 79 79 69
Width: 1024
Flags: W
LayerCount: 2
Fore
SplineSet
171 518 m 1,0,1
 171 463 171 463 192 390 c 0,2,3
 212 318 212 318 272.5 254.5 c 128,-1,4
 333 191 333 191 443 149 c 256,5,6
 553 107 553 107 733 113 c 1,7,-1
 733 187 l 1,8,9
 637 195 637 195 563 209 c 0,10,11
 489 224 489 224 442 270 c 128,-1,12
 395 316 395 316 378 408 c 0,13,14
 360 500 360 500 377 664 c 1,15,-1
 678 664 l 1,16,-1
 678 476 l 1,17,-1
 853 475 l 1,18,-1
 853 783 l 1,19,-1
 171 784 l 1,20,-1
 171 518 l 1,21,-1
 171 518 l 1,0,1
EndSplineSet
EndChar

StartChar: P
Encoding: 80 80 70
Width: 1024
Flags: W
LayerCount: 2
Fore
SplineSet
176 787 m 1,0,-1
 298 787 l 1,1,-1
 298 659 l 1,2,-1
 176 659 l 1,3,-1
 176 532 l 1,4,-1
 296 532 l 1,5,6
 292 415 292 415 285.5 344 c 128,-1,7
 279 273 279 273 270 247 c 1,8,-1
 270 30 l 1,9,-1
 441 30 l 1,10,-1
 461 276 l 1,11,12
 483 235 483 235 508 201 c 0,13,14
 534 167 534 167 564 140 c 128,-1,15
 594 113 594 113 628 92 c 256,16,17
 662 71 662 71 701 58 c 0,18,19
 734 47 734 47 768 42 c 128,-1,20
 802 37 802 37 837 38 c 1,21,-1
 837 106 l 1,22,23
 795 116 795 116 759 134 c 256,24,25
 723 152 723 152 692.5 179 c 128,-1,26
 662 206 662 206 638 240 c 0,27,28
 613 275 613 275 594 318 c 0,29,30
 574 368 574 368 562.5 421.5 c 128,-1,31
 551 475 551 475 549 532 c 1,32,-1
 825 532 l 1,33,-1
 825 659 l 1,34,-1
 478 659 l 1,35,-1
 478 787 l 1,36,-1
 848 787 l 1,37,-1
 848 866 l 1,38,-1
 176 866 l 1,39,-1
 176 787 l 1,40,-1
 176 787 l 1,0,-1
EndSplineSet
EndChar

StartChar: Q
Encoding: 81 81 71
Width: 1024
Flags: W
LayerCount: 2
Fore
SplineSet
786 36 m 1,0,-1
 786 107 l 1,1,2
 684 88 684 88 623 124 c 0,3,4
 562 161 562 161 531 226.5 c 128,-1,5
 500 292 500 292 493 374 c 256,6,7
 486 456 486 456 491 528 c 1,8,-1
 573 528 l 1,9,10
 602 486 602 486 636 453 c 0,11,12
 670 419 670 419 705 396.5 c 128,-1,13
 740 374 740 374 776 366 c 0,14,15
 812 357 812 357 846 365 c 1,16,-1
 846 432 l 1,17,18
 820 437 820 437 795 460 c 256,19,20
 770 483 770 483 750 515.5 c 128,-1,21
 730 548 730 548 716 584 c 0,22,23
 702 621 702 621 698 652 c 1,24,-1
 698 790 l 1,25,-1
 846 790 l 1,26,-1
 846 866 l 1,27,-1
 179 866 l 1,28,-1
 179 790 l 1,29,-1
 522 790 l 1,30,-1
 522 660 l 1,31,-1
 178 660 l 1,32,-1
 178 528 l 1,33,-1
 301 528 l 1,34,35
 281 314 281 314 345 210 c 0,36,37
 410 105 410 105 500.5 65.5 c 128,-1,38
 591 26 591 26 677 30 c 0,39,40
 763 33 763 33 786 36 c 1,41,-1
 786 36 l 1,0,-1
EndSplineSet
EndChar

StartChar: R
Encoding: 82 82 72
Width: 1024
Flags: W
LayerCount: 2
Fore
SplineSet
776 811 m 1,0,-1
 610 811 l 1,1,-1
 602 750 l 1,2,-1
 155 750 l 1,3,-1
 155 603 l 2,4,5
 158 542 158 542 185 482 c 0,6,7
 213 421 213 421 258 376 c 128,-1,8
 303 331 303 331 362 309 c 256,9,10
 421 287 421 287 487 302 c 1,11,-1
 487 387 l 1,12,13
 418 406 418 406 389 472 c 128,-1,14
 360 538 360 538 364 603 c 1,15,-1
 583 603 l 1,16,-1
 528 170 l 1,17,-1
 214 170 l 1,18,-1
 214 85 l 1,19,-1
 868 85 l 1,20,-1
 868 170 l 1,21,-1
 693 170 l 1,22,-1
 749 603 l 1,23,-1
 869 603 l 1,24,-1
 869 750 l 1,25,-1
 768 750 l 1,26,-1
 776 811 l 1,27,-1
 776 811 l 1,0,-1
EndSplineSet
EndChar

StartChar: S
Encoding: 83 83 73
Width: 1024
Flags: W
LayerCount: 2
Fore
SplineSet
731 7 m 1,0,-1
 731 83 l 1,1,2
 651 83 651 83 600.5 93.5 c 128,-1,3
 550 104 550 104 550 104 c 1,4,5
 460 134 460 134 414.5 197 c 128,-1,6
 369 260 369 260 369 355 c 2,7,-1
 369 536 l 1,8,-1
 665 536 l 1,9,-1
 665 351 l 1,10,-1
 831 351 l 1,11,-1
 831 670 l 1,12,-1
 593 670 l 1,13,-1
 593 803 l 1,14,-1
 826 803 l 1,15,-1
 826 889 l 1,16,-1
 193 889 l 1,17,-1
 193 807 l 1,18,-1
 434 807 l 1,19,-1
 434 673 l 1,20,-1
 193 673 l 1,21,-1
 193 370 l 1,22,23
 198 317 198 317 214 271 c 128,-1,24
 230 225 230 225 257 187 c 0,25,26
 291 142 291 142 337 108 c 0,27,28
 384 75 384 75 443 52.5 c 128,-1,29
 502 30 502 30 574 18 c 0,30,31
 646 7 646 7 731 7 c 1,32,-1
 731 7 l 1,0,-1
EndSplineSet
EndChar

StartChar: U
Encoding: 85 85 74
Width: 1024
Flags: W
LayerCount: 2
Fore
SplineSet
640 811 m 1,0,-1
 849 811 l 1,1,-1
 849 382 l 1,2,-1
 640 382 l 1,3,-1
 640 811 l 1,4,-1
 640 811 l 1,0,-1
671 179 m 1,5,6
 631 182 631 182 583 189 c 0,7,8
 536 196 536 196 493.5 212.5 c 128,-1,9
 451 229 451 229 421 259 c 0,10,11
 390 288 390 288 384 338 c 1,12,-1
 384 811 l 1,13,-1
 175 811 l 1,14,-1
 175 311 l 1,15,16
 181 209 181 209 253 161 c 0,17,18
 324 113 324 113 422 97 c 128,-1,19
 520 81 520 81 624 85 c 0,20,21
 729 89 729 89 800 91 c 1,22,-1
 800 176 l 1,23,24
 778 176 778 176 735 176.5 c 128,-1,25
 692 177 692 177 671 179 c 1,26,-1
 671 179 l 1,5,6
EndSplineSet
EndChar

StartChar: V
Encoding: 86 86 75
Width: 1024
Flags: W
LayerCount: 2
Fore
SplineSet
832 684 m 1,0,-1
 466 684 l 1,1,-1
 466 811 l 1,2,-1
 832 811 l 1,3,-1
 832 684 l 1,0,-1
241 642 m 1,4,-1
 156 642 l 1,5,6
 135 528 135 528 167 427 c 256,7,8
 199 326 199 326 267.5 250.5 c 128,-1,9
 336 175 336 175 434 131 c 0,10,11
 532 86 532 86 644 86 c 2,12,-1
 876 85 l 1,13,-1
 876 264 l 1,14,-1
 618 264 l 2,15,16
 514 266 514 266 443 299 c 0,17,18
 373 332 373 332 329.5 384.5 c 128,-1,19
 286 437 286 437 266 504 c 0,20,21
 245 571 245 571 241 642 c 1,22,-1
 241 642 l 1,4,-1
832 603 m 1,23,-1
 466 603 l 1,24,-1
 466 477 l 1,25,-1
 832 477 l 1,26,-1
 832 603 l 1,23,-1
EndSplineSet
EndChar

StartChar: W
Encoding: 87 87 76
Width: 1024
Flags: W
LayerCount: 2
Fore
SplineSet
857 654 m 1,0,-1
 167 654 l 1,1,-1
 167 811 l 1,2,-1
 857 811 l 1,3,-1
 857 654 l 1,0,-1
339 387 m 1,4,5
 342 301 342 301 387 239 c 0,6,7
 433 177 433 177 501 139.5 c 128,-1,8
 569 102 569 102 650 90 c 0,9,10
 732 78 732 78 807 92 c 1,11,-1
 807 176 l 1,12,13
 742 173 742 173 691 190 c 0,14,15
 641 207 641 207 607 242 c 128,-1,16
 573 277 573 277 558 328 c 256,17,18
 543 379 543 379 548 444 c 1,19,-1
 857 444 l 1,20,-1
 857 584 l 1,21,-1
 167 584 l 1,22,-1
 167 444 l 1,23,-1
 338 444 l 1,24,-1
 339 387 l 1,25,-1
 339 387 l 1,4,5
EndSplineSet
EndChar

StartChar: X
Encoding: 88 88 77
Width: 1024
Flags: W
LayerCount: 2
Fore
SplineSet
774 525 m 1,0,-1
 634 525 l 1,1,2
 635 481 635 481 637 434 c 0,3,4
 639 388 639 388 645.5 342 c 128,-1,5
 652 296 652 296 666 252 c 0,6,7
 680 209 680 209 704 170 c 1,8,-1
 601 170 l 1,9,-1
 601 591 l 1,10,-1
 779 591 l 1,11,-1
 779 717 l 1,12,-1
 601 717 l 1,13,-1
 601 811 l 1,14,-1
 422 811 l 1,15,-1
 422 717 l 1,16,-1
 244 717 l 1,17,-1
 244 591 l 1,18,-1
 422 591 l 1,19,-1
 422 170 l 1,20,-1
 334 170 l 1,21,-1
 390 525 l 1,22,-1
 269 525 l 1,23,-1
 193 170 l 1,24,-1
 193 85 l 1,25,-1
 831 85 l 1,26,-1
 831 241 l 1,27,28
 807 248 807 248 796 285 c 0,29,30
 784 321 784 321 779.5 366.5 c 128,-1,31
 775 412 775 412 775 456 c 0,32,33
 774 501 774 501 774 525 c 1,34,-1
 774 525 l 1,0,-1
EndSplineSet
EndChar

StartChar: Y
Encoding: 89 89 78
Width: 1024
Flags: W
LayerCount: 2
Fore
SplineSet
264 379 m 1,0,1
 266 334 266 334 281 293 c 0,2,3
 297 251 297 251 323 215.5 c 128,-1,4
 349 180 349 180 385 153 c 0,5,6
 420 126 420 126 461 110 c 0,7,8
 525 85 525 85 597.5 85.5 c 128,-1,9
 670 86 670 86 736 91 c 1,10,-1
 736 176 l 1,11,12
 681 175 681 175 629 186 c 256,13,14
 577 197 577 197 536.5 223.5 c 128,-1,15
 496 250 496 250 470 292 c 0,16,17
 444 335 444 335 442 397 c 2,18,-1
 442 513 l 1,19,-1
 567 513 l 1,20,-1
 567 349 l 1,21,-1
 746 349 l 1,22,-1
 746 513 l 1,23,-1
 857 513 l 1,24,-1
 857 653 l 1,25,-1
 746 653 l 1,26,-1
 746 811 l 1,27,-1
 567 811 l 1,28,-1
 567 653 l 1,29,-1
 442 653 l 1,30,-1
 442 811 l 1,31,-1
 264 811 l 1,32,-1
 264 653 l 1,33,-1
 167 653 l 1,34,-1
 167 513 l 1,35,-1
 264 513 l 1,36,-1
 264 379 l 1,37,-1
 264 379 l 1,0,1
EndSplineSet
EndChar

StartChar: asciicircum
Encoding: 94 94 79
Width: 1024
Flags: W
LayerCount: 2
Fore
SplineSet
354 291 m 1,0,1
 385 262 385 262 422 245 c 128,-1,2
 459 228 459 228 501 224 c 1,3,-1
 455 102 l 1,4,-1
 641 102 l 1,5,-1
 786 477 l 1,6,-1
 601 477 l 1,7,-1
 536 320 l 1,8,9
 498 332 498 332 470 355 c 0,10,11
 442 379 442 379 423 414.5 c 128,-1,12
 404 450 404 450 394 497 c 0,13,14
 385 544 385 544 385 603 c 2,15,16
 385 603 385 603 386 630.5 c 128,-1,17
 387 658 387 658 390 669 c 1,18,-1
 818 669 l 1,19,-1
 818 791 l 1,20,-1
 206 794 l 1,21,22
 206 703 206 703 216 626 c 0,23,24
 225 549 225 549 243.5 486 c 128,-1,25
 262 423 262 423 290 374 c 0,26,27
 317 326 317 326 354 291 c 1,28,-1
 354 291 l 1,0,1
EndSplineSet
EndChar

StartChar: braceleft
Encoding: 123 123 80
Width: 1024
Flags: W
LayerCount: 2
Fore
SplineSet
444 535 m 2,0,-1
 580 535 l 2,1,2
 589 535 589 535 595.5 528.5 c 128,-1,3
 602 522 602 522 602 513 c 2,4,-1
 602 383 l 2,5,6
 602 374 602 374 595.5 367.5 c 128,-1,7
 589 361 589 361 580 361 c 2,8,-1
 444 361 l 2,9,10
 435 361 435 361 428.5 367.5 c 128,-1,11
 422 374 422 374 422 383 c 2,12,-1
 422 513 l 2,13,14
 422 522 422 522 428.5 528.5 c 128,-1,15
 435 535 435 535 444 535 c 2,0,-1
663 111 m 2,16,-1
 663 241 l 2,17,18
 663 250 663 250 657 256.5 c 128,-1,19
 651 263 651 263 641 263 c 2,20,-1
 505 263 l 2,21,22
 496 263 496 263 489.5 256.5 c 128,-1,23
 483 250 483 250 483 241 c 2,24,-1
 483 111 l 2,25,26
 483 102 483 102 489.5 95.5 c 128,-1,27
 496 89 496 89 505 89 c 2,28,-1
 641 89 l 2,29,30
 651 89 651 89 657 95.5 c 128,-1,31
 663 102 663 102 663 111 c 2,16,-1
541 655 m 2,32,-1
 541 785 l 2,33,34
 541 794 541 794 534.5 800.5 c 128,-1,35
 528 807 528 807 519 807 c 2,36,-1
 383 807 l 2,37,38
 373 807 373 807 367 800.5 c 128,-1,39
 361 794 361 794 361 785 c 2,40,-1
 361 655 l 2,41,42
 361 646 361 646 367 639.5 c 128,-1,43
 373 633 373 633 383 633 c 2,44,-1
 519 633 l 2,45,46
 528 633 528 633 534.5 639.5 c 128,-1,47
 541 646 541 646 541 655 c 2,32,-1
EndSplineSet
EndChar

StartChar: braceright
Encoding: 125 125 81
Width: 1024
Flags: W
LayerCount: 2
Fore
SplineSet
580 361 m 2,0,-1
 444 361 l 2,1,2
 435 361 435 361 428.5 367.5 c 128,-1,3
 422 374 422 374 422 383 c 2,4,-1
 422 513 l 2,5,6
 422 522 422 522 428.5 528.5 c 128,-1,7
 435 535 435 535 444 535 c 2,8,-1
 580 535 l 2,9,10
 589 535 589 535 595.5 528.5 c 128,-1,11
 602 522 602 522 602 513 c 2,12,-1
 602 383 l 2,13,14
 602 374 602 374 595.5 367.5 c 128,-1,15
 589 361 589 361 580 361 c 2,0,-1
541 111 m 2,16,-1
 541 241 l 2,17,18
 541 250 541 250 534.5 256.5 c 128,-1,19
 528 263 528 263 519 263 c 2,20,-1
 383 263 l 2,21,22
 373 263 373 263 367 256.5 c 128,-1,23
 361 250 361 250 361 241 c 2,24,-1
 361 111 l 2,25,26
 361 102 361 102 367 95.5 c 128,-1,27
 373 89 373 89 383 89 c 2,28,-1
 519 89 l 2,29,30
 528 89 528 89 534.5 95.5 c 128,-1,31
 541 102 541 102 541 111 c 2,16,-1
663 655 m 2,32,-1
 663 785 l 2,33,34
 663 794 663 794 657 800.5 c 128,-1,35
 651 807 651 807 641 807 c 2,36,-1
 505 807 l 2,37,38
 496 807 496 807 489.5 800.5 c 128,-1,39
 483 794 483 794 483 785 c 2,40,-1
 483 655 l 2,41,42
 483 646 483 646 489.5 639.5 c 128,-1,43
 496 633 496 633 505 633 c 2,44,-1
 641 633 l 2,45,46
 651 633 651 633 657 639.5 c 128,-1,47
 663 646 663 646 663 655 c 2,32,-1
EndSplineSet
EndChar

StartChar: bar
Encoding: 124 124 82
Width: 956
Flags: W
LayerCount: 2
Fore
SplineSet
940 852 m 5,0,-1
 811 852 l 5,1,-1
 811 52 l 5,2,-1
 940 52 l 5,3,-1
 940 852 l 5,0,-1
EndSplineSet
EndChar

StartChar: c
Encoding: 99 99 83
Width: 1024
Flags: W
LayerCount: 2
Fore
SplineSet
188 811 m 1,0,-1
 837 811 l 1,1,-1
 837 708 l 1,2,-1
 188 708 l 1,3,-1
 188 811 l 1,0,-1
149 399 m 1,4,5
 159 292 159 292 225 227 c 256,6,7
 291 162 291 162 383 128 c 128,-1,8
 475 94 475 94 579 88 c 0,9,10
 683 81 683 81 769 91 c 1,11,-1
 769 176 l 1,12,13
 701 169 701 169 624 180 c 0,14,15
 547 190 547 190 483.5 223 c 128,-1,16
 420 256 420 256 383 313 c 0,17,18
 346 371 346 371 358 457 c 1,19,-1
 875 457 l 1,20,-1
 875 604 l 1,21,-1
 150 604 l 1,22,-1
 149 399 l 1,23,-1
 149 399 l 1,4,5
EndSplineSet
EndChar

StartChar: asciitilde
Encoding: 126 126 84
Width: 1024
Flags: W
LayerCount: 2
Fore
SplineSet
131 389 m 1,0,-1
 893 389 l 1,1,-1
 893 272 l 1,2,-1
 131 272 l 1,3,-1
 131 389 l 1,4,-1
 131 389 l 1,0,-1
131 507 m 1,5,-1
 893 507 l 1,6,-1
 893 624 l 1,7,-1
 131 624 l 1,8,-1
 131 507 l 1,9,-1
 131 507 l 1,5,-1
EndSplineSet
EndChar

StartChar: b
Encoding: 98 98 85
Width: 1024
Flags: W
LayerCount: 2
Fore
SplineSet
174 474 m 1,0,1
 178 462 178 462 227 406 c 0,2,3
 275 350 275 350 334.5 285.5 c 128,-1,4
 394 221 394 221 449 166 c 0,5,6
 503 110 503 110 518 99 c 0,7,8
 526 93 526 93 535 87.5 c 128,-1,9
 544 82 544 82 555 84 c 0,10,11
 575 87 575 87 594 100.5 c 128,-1,12
 613 114 613 114 628 126 c 0,13,14
 658 149 658 149 691 180 c 0,15,16
 724 210 724 210 754 240.5 c 128,-1,17
 784 271 784 271 808 297 c 256,18,19
 832 323 832 323 843 337 c 0,20,21
 865 364 865 364 851.5 408.5 c 128,-1,22
 838 453 838 453 818 476 c 0,23,24
 783 516 783 516 746 555 c 0,25,26
 710 595 710 595 671.5 632.5 c 128,-1,27
 633 670 633 670 592 705 c 0,28,29
 552 739 552 739 507 769 c 0,30,31
 458 801 458 801 416 761.5 c 128,-1,32
 374 722 374 722 338 695 c 0,33,34
 294 656 294 656 252 615 c 128,-1,35
 210 574 210 574 174 529 c 0,36,37
 166 520 166 520 168.5 501.5 c 128,-1,38
 171 483 171 483 174 474 c 1,39,-1
 174 474 l 1,0,1
542 602 m 1,40,41
 549 602 549 602 573 581 c 256,42,43
 597 560 597 560 627.5 529.5 c 128,-1,44
 658 499 658 499 690 465 c 256,45,46
 722 431 722 431 746 406 c 1,47,48
 727 386 727 386 694 354 c 256,49,50
 661 322 661 322 628 291.5 c 128,-1,51
 595 261 595 261 569 238 c 0,52,53
 542 216 542 216 537 216 c 256,54,55
 532 216 532 216 505 239 c 256,56,57
 478 262 478 262 444.5 293.5 c 128,-1,58
 411 325 411 325 378 357 c 256,59,60
 345 389 345 389 326 408 c 1,61,62
 337 419 337 419 369 451 c 256,63,64
 401 483 401 483 437 516.5 c 128,-1,65
 473 550 473 550 504 576 c 0,66,67
 534 602 534 602 542 602 c 1,68,-1
 542 602 l 1,40,41
533 493 m 1,69,70
 536 496 536 496 543.5 491 c 128,-1,71
 551 486 551 486 553 484 c 0,72,73
 572 469 572 469 588.5 451.5 c 128,-1,74
 605 434 605 434 618 415 c 0,75,76
 619 414 619 414 623.5 406.5 c 128,-1,77
 628 399 628 399 625 396 c 0,78,79
 603 375 603 375 580.5 354 c 128,-1,80
 558 333 558 333 536 311 c 0,81,82
 533 309 533 309 525.5 314 c 128,-1,83
 518 319 518 319 516 321 c 0,84,85
 497 335 497 335 480.5 352.5 c 128,-1,86
 464 370 464 370 451 390 c 0,87,88
 450 391 450 391 445.5 398.5 c 128,-1,89
 441 406 441 406 444 409 c 0,90,91
 466 430 466 430 488.5 451 c 128,-1,92
 511 472 511 472 533 493 c 1,93,-1
 533 493 l 1,94,-1
 533 493 l 1,69,70
EndSplineSet
EndChar

StartChar: u
Encoding: 117 117 86
Width: 1024
Flags: W
LayerCount: 2
Fore
SplineSet
798 811 m 1,0,-1
 219 811 l 1,1,-1
 219 807 l 1,2,3
 215 785 215 785 211 754 c 256,4,5
 207 723 207 723 203.5 682.5 c 128,-1,6
 200 642 200 642 198 592 c 0,7,8
 195 543 195 543 195 485 c 0,9,10
 195 418 195 418 217 349 c 0,11,12
 238 280 238 280 264 223.5 c 128,-1,13
 290 167 290 167 312 132 c 0,14,15
 333 96 333 96 333 96 c 2,16,17
 342 81 342 81 365.5 86.5 c 128,-1,18
 389 92 389 92 381 124 c 2,19,20
 381 124 381 124 375 149 c 0,21,22
 368 175 368 175 360.5 217 c 128,-1,23
 353 259 353 259 347 312 c 0,24,25
 340 366 340 366 340 423 c 0,26,27
 340 494 340 494 351.5 553 c 128,-1,28
 363 612 363 612 377 660 c 1,29,-1
 476 660 l 1,30,-1
 467 451 l 2,31,32
 467 446 467 446 471 442 c 128,-1,33
 475 438 475 438 480 438 c 2,34,-1
 586 438 l 2,35,36
 591 438 591 438 594.5 441.5 c 128,-1,37
 598 445 598 445 599 450 c 2,38,-1
 607 660 l 1,39,-1
 689 660 l 1,40,-1
 680 451 l 2,41,42
 680 446 680 446 684 442 c 128,-1,43
 688 438 688 438 693 438 c 2,44,-1
 790 438 l 2,45,46
 795 438 795 438 798.5 441.5 c 128,-1,47
 802 445 802 445 803 450 c 2,48,-1
 828 779 l 2,49,50
 830 792 830 792 821 801.5 c 128,-1,51
 812 811 812 811 798 811 c 1,52,-1
 798 811 l 1,0,-1
EndSplineSet
EndChar

StartChar: v
Encoding: 118 118 87
Width: 1024
Flags: W
LayerCount: 2
Fore
SplineSet
163 460 m 1,0,1
 163 393 163 393 184 324 c 0,2,3
 206 255 206 255 231.5 199 c 128,-1,4
 257 143 257 143 279 107 c 0,5,6
 300 71 300 71 300 71 c 2,7,8
 309 56 309 56 333 62 c 128,-1,9
 357 68 357 68 349 99 c 2,10,11
 349 99 349 99 342 124 c 0,12,13
 336 150 336 150 328 192 c 128,-1,14
 320 234 320 234 314 288 c 0,15,16
 307 342 307 342 307 398 c 0,17,18
 307 497 307 497 325.5 574 c 128,-1,19
 344 651 344 651 366 705 c 1,20,-1
 660 705 l 1,21,22
 663 657 663 657 659.5 619 c 128,-1,23
 656 581 656 581 656 581 c 257,24,25
 656 581 656 581 594.5 579.5 c 128,-1,26
 533 578 533 578 494 547 c 0,27,28
 457 516 457 516 443 464 c 0,29,30
 428 413 428 413 426.5 363 c 128,-1,31
 425 313 425 313 432 276 c 0,32,33
 438 240 438 240 444 239 c 0,34,35
 482 233 482 233 532 232 c 0,36,37
 581 232 581 232 626 234 c 128,-1,38
 671 236 671 236 703 240 c 0,39,40
 735 243 735 243 739 245 c 256,41,42
 743 247 743 247 764.5 273 c 128,-1,43
 786 299 786 299 789 305 c 0,44,45
 793 311 793 311 793.5 358.5 c 128,-1,46
 794 406 794 406 793 488 c 0,47,48
 793 516 793 516 797 585 c 128,-1,49
 801 654 801 654 806 705 c 1,50,-1
 831 705 l 2,51,52
 844 705 844 705 852.5 713.5 c 128,-1,53
 861 722 861 722 861 735 c 2,54,-1
 861 806 l 2,55,56
 861 818 861 818 852.5 827 c 128,-1,57
 844 836 844 836 831 836 c 2,58,-1
 299 836 l 2,59,60
 262 836 262 836 230.5 834 c 128,-1,61
 199 832 199 832 196 829 c 2,62,63
 196 829 196 829 191 805 c 256,64,65
 186 781 186 781 179.5 734.5 c 128,-1,66
 173 688 173 688 168 619 c 256,67,68
 163 550 163 550 163 460 c 1,69,-1
 163 460 l 1,0,1
664 455 m 1,70,-1
 667 350 l 1,71,72
 667 350 667 350 646.5 344.5 c 128,-1,73
 626 339 626 339 606 339 c 256,74,75
 586 339 586 339 566 341.5 c 128,-1,76
 546 344 546 344 546 344 c 257,77,78
 546 344 546 344 545 394 c 128,-1,79
 544 444 544 444 559 451 c 0,80,81
 579 461 579 461 621.5 458 c 128,-1,82
 664 455 664 455 664 455 c 1,83,-1
 664 455 l 1,70,-1
EndSplineSet
EndChar

StartChar: w
Encoding: 119 119 88
Width: 1024
Flags: W
LayerCount: 2
Fore
SplineSet
828 829 m 1,0,1
 825 832 825 832 793.5 834 c 128,-1,2
 762 836 762 836 725 836 c 1,3,-1
 725 836 l 1,4,-1
 193 836 l 2,5,6
 180 836 180 836 171.5 827 c 128,-1,7
 163 818 163 818 163 806 c 2,8,-1
 163 735 l 2,9,10
 163 722 163 722 171.5 713.5 c 128,-1,11
 180 705 180 705 193 705 c 2,12,-1
 218 705 l 1,13,14
 223 654 223 654 227 585 c 128,-1,15
 231 516 231 516 231 488 c 0,16,17
 230 406 230 406 230.5 358.5 c 128,-1,18
 231 311 231 311 235 305 c 0,19,20
 238 299 238 299 259.5 273 c 128,-1,21
 281 247 281 247 285 245 c 256,22,23
 289 243 289 243 321 240 c 0,24,25
 353 236 353 236 398 234 c 128,-1,26
 443 232 443 232 492 232 c 0,27,28
 542 233 542 233 580 239 c 0,29,30
 586 240 586 240 592 276 c 0,31,32
 599 313 599 313 597.5 363 c 128,-1,33
 596 413 596 413 581 464 c 0,34,35
 567 516 567 516 530 547 c 0,36,37
 491 578 491 578 429.5 579.5 c 128,-1,38
 368 581 368 581 368 581 c 257,39,40
 368 581 368 581 364.5 619 c 128,-1,41
 361 657 361 657 364 705 c 1,42,-1
 658 705 l 1,43,44
 680 651 680 651 698.5 574 c 128,-1,45
 717 497 717 497 717 398 c 0,46,47
 717 342 717 342 710 288 c 0,48,49
 704 234 704 234 696 192 c 128,-1,50
 688 150 688 150 682 124 c 0,51,52
 675 99 675 99 675 99 c 2,53,54
 667 68 667 68 691 62 c 128,-1,55
 715 56 715 56 724 71 c 2,56,57
 724 71 724 71 745 107 c 0,58,59
 767 143 767 143 792.5 199 c 128,-1,60
 818 255 818 255 840 324 c 0,61,62
 861 393 861 393 861 460 c 0,63,64
 861 550 861 550 856 619 c 256,65,66
 851 688 851 688 844.5 734.5 c 128,-1,67
 838 781 838 781 833 805 c 256,68,69
 828 829 828 829 828 829 c 1,70,-1
 828 829 l 1,0,1
465 451 m 1,71,72
 480 444 480 444 479 394 c 128,-1,73
 478 344 478 344 478 344 c 257,74,75
 478 344 478 344 458 341.5 c 128,-1,76
 438 339 438 339 418 339 c 256,77,78
 398 339 398 339 377.5 344.5 c 128,-1,79
 357 350 357 350 357 350 c 1,80,-1
 360 455 l 1,81,82
 360 455 360 455 402.5 458 c 128,-1,83
 445 461 445 461 465 451 c 1,84,-1
 465 451 l 1,71,72
EndSplineSet
EndChar

StartChar: x
Encoding: 120 120 89
Width: 1024
Flags: W
LayerCount: 2
Fore
SplineSet
797 413 m 1,0,1
 750 454 750 454 695 482 c 0,2,3
 641 509 641 509 583.5 524.5 c 128,-1,4
 526 540 526 540 469 546 c 0,5,6
 413 552 413 552 362 552 c 1,7,8
 337 585 337 585 370 630 c 128,-1,9
 403 675 403 675 433 690 c 1,10,-1
 824 690 l 2,11,12
 837 690 837 690 846 699 c 128,-1,13
 855 708 855 708 855 720 c 2,14,-1
 855 791 l 2,15,16
 855 804 855 804 846 812.5 c 128,-1,17
 837 821 837 821 824 821 c 2,18,-1
 184 821 l 2,19,20
 172 821 172 821 163 812.5 c 128,-1,21
 154 804 154 804 154 791 c 2,22,-1
 154 720 l 2,23,24
 154 708 154 708 163 699 c 128,-1,25
 172 690 172 690 184 690 c 2,26,-1
 274 690 l 1,27,28
 236 648 236 648 199.5 585 c 128,-1,29
 163 522 163 522 163 522 c 1,30,31
 152 514 152 514 155 448 c 128,-1,32
 158 382 158 382 165 376 c 0,33,34
 168 373 168 373 172 371 c 128,-1,35
 176 369 176 369 181 369 c 2,36,37
 181 369 181 369 181.5 369 c 128,-1,38
 182 369 182 369 182 370 c 0,39,40
 235 373 235 373 272 373.5 c 128,-1,41
 309 374 309 374 359 374 c 0,42,43
 415 374 415 374 468 371 c 256,44,45
 521 368 521 368 566.5 362 c 128,-1,46
 612 356 612 356 649 347 c 256,47,48
 686 338 686 338 711 326 c 0,49,50
 749 306 749 306 774 273 c 0,51,52
 800 241 800 241 816 205.5 c 128,-1,53
 832 170 832 170 839 137 c 0,54,55
 847 104 847 104 850 85 c 0,56,57
 851 74 851 74 861 74.5 c 128,-1,58
 871 75 871 75 870 86 c 0,59,60
 866 128 866 128 867 173 c 256,61,62
 868 218 868 218 863.5 261.5 c 128,-1,63
 859 305 859 305 845 343 c 0,64,65
 830 382 830 382 797 413 c 1,66,-1
 797 413 l 1,0,1
EndSplineSet
EndChar

StartChar: y
Encoding: 121 121 90
Width: 1024
Flags: W
LayerCount: 2
Fore
SplineSet
823 817 m 1,0,-1
 201 817 l 2,1,2
 188 817 188 817 179.5 808 c 128,-1,3
 171 799 171 799 171 787 c 2,4,-1
 171 109 l 2,5,6
 171 97 171 97 179.5 88 c 128,-1,7
 188 79 188 79 201 79 c 2,8,-1
 292 79 l 2,9,10
 304 79 304 79 313 88 c 128,-1,11
 322 97 322 97 322 109 c 2,12,-1
 322 378 l 1,13,14
 323 378 323 378 324 378 c 128,-1,15
 325 378 325 378 326 378 c 0,16,17
 382 378 382 378 434 375 c 0,18,19
 487 372 487 372 533 366.5 c 128,-1,20
 579 361 579 361 616 351 c 0,21,22
 653 342 653 342 677 330 c 0,23,24
 715 310 715 310 741 278 c 0,25,26
 766 245 766 245 782 209.5 c 128,-1,27
 798 174 798 174 806 142 c 0,28,29
 814 109 814 109 816 89 c 0,30,31
 818 78 818 78 827.5 79 c 128,-1,32
 837 80 837 80 837 90 c 0,33,34
 833 133 833 133 834 175 c 256,35,36
 835 217 835 217 832.5 258 c 128,-1,37
 830 299 830 299 820 338 c 256,38,39
 810 377 810 377 783 414 c 0,40,41
 749 461 749 461 695 490 c 0,42,43
 640 519 640 519 577 535 c 128,-1,44
 514 551 514 551 447 556 c 0,45,46
 381 560 381 560 322 558 c 1,47,-1
 322 642 l 2,48,49
 322 657 322 657 384 666 c 0,50,51
 447 675 447 675 530.5 679.5 c 128,-1,52
 614 684 614 684 697 685 c 0,53,54
 781 686 781 686 823 686 c 0,55,56
 836 686 836 686 844.5 694.5 c 128,-1,57
 853 703 853 703 853 716 c 2,58,-1
 853 787 l 2,59,60
 853 799 853 799 844.5 808 c 128,-1,61
 836 817 836 817 823 817 c 1,62,-1
 823 817 l 1,0,-1
EndSplineSet
EndChar

StartChar: z
Encoding: 122 122 91
Width: 1024
Flags: W
LayerCount: 2
Fore
SplineSet
342 679 m 1,0,-1
 832 679 l 2,1,2
 845 679 845 679 853.5 687.5 c 128,-1,3
 862 696 862 696 862 709 c 2,4,-1
 862 780 l 2,5,6
 862 792 862 792 853.5 801 c 128,-1,7
 845 810 845 810 832 810 c 2,8,-1
 162 810 l 1,9,-1
 162 104 l 2,10,11
 162 97 162 97 165.5 93.5 c 128,-1,12
 169 90 169 90 174 89 c 0,13,14
 184 84 184 84 196 88 c 128,-1,15
 208 92 208 92 208 108 c 0,16,17
 208 174 208 174 229 224 c 0,18,19
 251 274 251 274 286 310 c 128,-1,20
 321 346 321 346 366 368 c 256,21,22
 411 390 411 390 459 402 c 1,23,24
 458 383 458 383 458 365.5 c 128,-1,25
 458 348 458 348 458 331 c 0,26,27
 460 258 460 258 499 216 c 0,28,29
 539 174 539 174 591.5 156.5 c 128,-1,30
 644 139 644 139 697 144 c 0,31,32
 751 149 751 149 782 170 c 0,33,34
 817 195 817 195 836 244 c 0,35,36
 855 292 855 292 859 344.5 c 128,-1,37
 863 397 863 397 853 445 c 0,38,39
 842 492 842 492 819 515 c 0,40,41
 803 531 803 531 753 544 c 0,42,43
 702 557 702 557 632.5 557 c 128,-1,44
 563 557 563 557 482 541 c 0,45,46
 400 524 400 524 323 481 c 1,47,48
 317 534 317 534 322 586 c 128,-1,49
 327 638 327 638 342 679 c 1,50,-1
 342 679 l 1,0,-1
733 370 m 1,51,52
 754 340 754 340 724.5 297 c 128,-1,53
 695 254 695 254 638 282 c 0,54,55
 616 294 616 294 607.5 329.5 c 128,-1,56
 599 365 599 365 602 414 c 1,57,58
 649 411 649 411 684.5 399.5 c 128,-1,59
 720 388 720 388 733 370 c 1,60,-1
 733 370 l 1,51,52
EndSplineSet
EndChar

StartChar: o
Encoding: 111 111 92
Width: 1024
Flags: W
LayerCount: 2
Fore
SplineSet
870 490 m 1,0,1
 867 540 867 540 850 588 c 256,2,3
 833 636 833 636 811.5 676 c 128,-1,4
 790 716 790 716 769 746 c 256,5,6
 748 776 748 776 737 790 c 0,7,8
 733 795 733 795 726.5 798 c 128,-1,9
 720 801 720 801 713 801 c 2,10,-1
 596 800 l 2,11,12
 577 800 577 800 569 782 c 128,-1,13
 561 764 561 764 574 750 c 0,14,15
 613 707 613 707 640 653 c 128,-1,16
 667 599 667 599 681 564 c 1,17,18
 640 565 640 565 595 563 c 0,19,20
 549 560 549 560 501 551 c 128,-1,21
 453 542 453 542 406 527 c 0,22,23
 358 511 358 511 314 487 c 1,24,25
 308 541 308 541 314 593.5 c 128,-1,26
 320 646 320 646 337 685 c 0,27,28
 342 690 342 690 344.5 695.5 c 128,-1,29
 347 701 347 701 347 708 c 2,30,-1
 347 779 l 2,31,32
 347 791 347 791 338 800 c 128,-1,33
 329 809 329 809 317 809 c 2,34,-1
 153 809 l 1,35,-1
 153 103 l 2,36,37
 153 102 153 102 153 102 c 129,-1,38
 153 102 153 102 153 102 c 1,39,40
 153 101 153 101 153 100 c 128,-1,41
 153 99 153 99 153 98 c 0,42,43
 153 92 153 92 157 89 c 128,-1,44
 161 86 161 86 166 88 c 0,45,46
 172 87 172 87 178 90.5 c 128,-1,47
 184 94 184 94 185 103 c 2,48,49
 185 103 185 103 190.5 133.5 c 128,-1,50
 196 164 196 164 205 213 c 1,51,52
 221 250 221 250 247 284 c 128,-1,53
 273 318 273 318 312 338 c 0,54,55
 337 350 337 350 374 360 c 0,56,57
 411 369 411 369 456.5 375 c 128,-1,58
 502 381 502 381 555 383 c 0,59,60
 608 386 608 386 664 386 c 0,61,62
 714 386 714 386 751 385.5 c 128,-1,63
 788 385 788 385 841 382 c 2,64,65
 841 382 841 382 841.5 382 c 128,-1,66
 842 382 842 382 842 382 c 2,67,68
 847 382 847 382 851 383.5 c 128,-1,69
 855 385 855 385 858 388 c 256,70,71
 861 391 861 391 863.5 408 c 128,-1,72
 866 425 866 425 867 447 c 0,73,74
 870 455 870 455 870.5 465.5 c 128,-1,75
 871 476 871 476 870 490 c 1,76,-1
 870 490 l 1,0,1
EndSplineSet
EndChar

StartChar: p
Encoding: 112 112 93
Width: 1024
Flags: W
LayerCount: 2
Fore
SplineSet
814 796 m 1,0,1
 787 803 787 803 749 805 c 0,2,3
 710 807 710 807 673 806 c 128,-1,4
 636 805 636 805 608 802 c 0,5,6
 581 799 581 799 576 796 c 0,7,8
 567 789 567 789 565 739.5 c 128,-1,9
 563 690 563 690 569 684 c 0,10,11
 571 682 571 682 574.5 680.5 c 128,-1,12
 578 679 578 679 582 679 c 2,13,-1
 637 679 l 2,14,15
 649 679 649 679 663.5 633.5 c 128,-1,16
 678 588 678 588 686 523 c 1,17,18
 627 545 627 545 548.5 554.5 c 128,-1,19
 470 564 470 564 396 566 c 1,20,21
 421 647 421 647 401.5 720 c 128,-1,22
 382 793 382 793 370 796 c 0,23,24
 316 809 316 809 261 805.5 c 128,-1,25
 206 802 206 802 197 796 c 0,26,27
 188 789 188 789 188.5 740.5 c 128,-1,28
 189 692 189 692 195 686 c 0,29,30
 198 684 198 684 201.5 682.5 c 128,-1,31
 205 681 205 681 209 681 c 2,32,33
 209 681 209 681 209.5 681 c 128,-1,34
 210 681 210 681 210 681 c 2,35,36
 283 681 283 681 278 621.5 c 128,-1,37
 273 562 273 562 228 558 c 1,38,-1
 228 558 l 1,39,40
 216 556 216 556 208.5 554 c 128,-1,41
 201 552 201 552 197 550 c 0,42,43
 187 542 187 542 188 476 c 128,-1,44
 189 410 189 410 196 403 c 0,45,46
 199 400 199 400 203 398.5 c 128,-1,47
 207 397 207 397 211 397 c 2,48,49
 211 397 211 397 211.5 397 c 128,-1,50
 212 397 212 397 213 397 c 0,51,52
 266 399 266 399 303 398.5 c 128,-1,53
 340 398 340 398 390 396 c 0,54,55
 477 394 477 394 555.5 384.5 c 128,-1,56
 634 375 634 375 689 358 c 1,57,58
 682 265 682 265 666 197 c 128,-1,59
 650 129 650 129 650 129 c 2,60,61
 642 97 642 97 666 91.5 c 128,-1,62
 690 86 690 86 698 101 c 2,63,64
 698 101 698 101 720 137 c 0,65,66
 741 172 741 172 767 228.5 c 128,-1,67
 793 285 793 285 815 354 c 0,68,69
 836 423 836 423 836 490 c 0,70,71
 836 530 836 530 834 582 c 256,72,73
 832 634 832 634 829 681.5 c 128,-1,74
 826 729 826 729 822 762 c 256,75,76
 818 795 818 795 814 796 c 1,77,-1
 814 796 l 1,0,1
EndSplineSet
EndChar

StartChar: q
Encoding: 113 113 94
Width: 1024
Flags: W
LayerCount: 2
Fore
SplineSet
210 783 m 1,0,1
 259 764 259 764 298 702.5 c 128,-1,2
 337 641 337 641 363 567 c 1,3,4
 315 562 315 562 281 550.5 c 128,-1,5
 247 539 247 539 235 528 c 0,6,7
 214 508 214 508 200 458 c 0,8,9
 187 408 187 408 186 350.5 c 128,-1,10
 185 293 185 293 198 241 c 0,11,12
 212 188 212 188 245 162 c 0,13,14
 270 142 270 142 319 138 c 0,15,16
 368 135 368 135 416.5 152.5 c 128,-1,17
 465 170 465 170 503 211 c 0,18,19
 540 252 540 252 542 322 c 0,20,21
 542 339 542 339 542 357 c 128,-1,22
 542 375 542 375 540 394 c 1,23,24
 587 384 587 384 632 363 c 0,25,26
 678 342 678 342 713.5 307 c 128,-1,27
 749 272 749 272 770 223 c 0,28,29
 792 174 792 174 792 108 c 0,30,31
 792 94 792 94 802 89.5 c 128,-1,32
 812 85 812 85 822 88 c 0,33,34
 828 87 828 87 833 91 c 128,-1,35
 838 95 838 95 838 103 c 2,36,-1
 838 809 l 1,37,-1
 216 809 l 2,38,39
 204 809 204 809 202 798.5 c 128,-1,40
 200 788 200 788 210 783 c 1,41,-1
 210 783 l 1,0,1
362 275 m 1,42,43
 305 248 305 248 294.5 290 c 128,-1,44
 284 332 284 332 301 362 c 0,45,46
 310 376 310 376 336 386.5 c 128,-1,47
 362 397 362 397 398 402 c 1,48,49
 401 355 401 355 392.5 320.5 c 128,-1,50
 384 286 384 286 362 275 c 1,51,-1
 362 275 l 1,42,43
474 667 m 1,52,53
 492 666 492 666 510.5 666.5 c 128,-1,54
 529 667 529 667 548 667 c 0,55,56
 579 668 579 668 608 667.5 c 128,-1,57
 637 667 637 667 663 664 c 1,58,59
 675 627 675 627 678.5 582 c 128,-1,60
 682 537 682 537 678 492 c 1,61,62
 637 518 637 518 595 534.5 c 128,-1,63
 553 551 553 551 512 560 c 1,64,65
 505 587 505 587 495.5 614 c 128,-1,66
 486 641 486 641 474 667 c 1,67,-1
 474 667 l 1,52,53
EndSplineSet
EndChar

StartChar: r
Encoding: 114 114 95
Width: 1024
Flags: W
LayerCount: 2
Fore
SplineSet
862 534 m 1,0,1
 852 541 852 541 812 550 c 128,-1,2
 772 559 772 559 713 563 c 1,3,4
 706 590 706 590 706 622.5 c 128,-1,5
 706 655 706 655 720 678 c 1,6,-1
 835 678 l 2,7,8
 848 678 848 678 856.5 686.5 c 128,-1,9
 865 695 865 695 865 708 c 2,10,-1
 865 779 l 2,11,12
 865 791 865 791 856.5 800 c 128,-1,13
 848 809 848 809 835 809 c 2,14,-1
 195 809 l 2,15,16
 183 809 183 809 174 800 c 128,-1,17
 165 791 165 791 165 779 c 2,18,-1
 165 708 l 2,19,20
 165 695 165 695 174 686.5 c 128,-1,21
 183 678 183 678 195 678 c 2,22,-1
 520 678 l 1,23,24
 525 653 525 653 527 617 c 128,-1,25
 529 581 529 581 527 555 c 1,26,27
 488 549 488 549 448 539 c 0,28,29
 409 529 409 529 370.5 513 c 128,-1,30
 332 497 332 497 296 475 c 0,31,32
 260 454 260 454 228 425 c 0,33,34
 194 395 194 395 180 356 c 0,35,36
 165 317 165 317 161 274 c 128,-1,37
 157 231 157 231 157 186 c 0,38,39
 158 141 158 141 155 98 c 0,40,41
 154 88 154 88 163.5 87 c 128,-1,42
 173 86 173 86 175 97 c 0,43,44
 177 117 177 117 185 150 c 0,45,46
 193 182 193 182 209 217.5 c 128,-1,47
 225 253 225 253 250 286 c 0,48,49
 276 318 276 318 314 338 c 0,50,51
 338 350 338 350 375 360 c 0,52,53
 412 369 412 369 458 374.5 c 128,-1,54
 504 380 504 380 557 383 c 0,55,56
 609 386 609 386 665 386 c 0,57,58
 715 386 715 386 752 385.5 c 128,-1,59
 789 385 789 385 842 382 c 0,60,61
 843 382 843 382 843 382 c 129,-1,62
 843 382 843 382 844 382 c 0,63,64
 848 382 848 382 852 383.5 c 128,-1,65
 856 385 856 385 859 388 c 0,66,67
 866 394 866 394 869 460.5 c 128,-1,68
 872 527 872 527 862 534 c 1,69,-1
 862 534 l 1,0,1
EndSplineSet
EndChar

StartChar: s
Encoding: 115 115 96
Width: 1024
Flags: W
LayerCount: 2
Fore
SplineSet
195 594 m 1,0,1
 195 637 195 637 210 673 c 0,2,3
 226 709 226 709 253.5 736 c 128,-1,4
 281 763 281 763 319 779 c 0,5,6
 356 794 356 794 400 796 c 2,7,-1
 638 796 l 1,8,9
 702 792 702 792 762.5 752 c 128,-1,10
 823 712 823 712 829 644 c 1,11,-1
 829 252 l 1,12,13
 823 184 823 184 762.5 144 c 128,-1,14
 702 104 702 104 638 100 c 1,15,-1
 400 100 l 2,16,17
 313 103 313 103 254 155.5 c 128,-1,18
 195 208 195 208 195 302 c 2,19,-1
 195 594 l 1,20,-1
 195 594 l 1,0,1
328 302 m 1,21,22
 328 246 328 246 372 225 c 128,-1,23
 416 204 416 204 457 204 c 2,24,-1
 478 204 l 2,25,26
 516 206 516 206 559 225.5 c 128,-1,27
 602 245 602 245 608 294 c 1,28,-1
 608 602 l 1,29,30
 602 651 602 651 559 670.5 c 128,-1,31
 516 690 516 690 478 692 c 2,32,-1
 457 692 l 2,33,34
 416 692 416 692 372 671 c 128,-1,35
 328 650 328 650 328 594 c 2,36,-1
 328 302 l 1,37,-1
 328 302 l 1,21,22
546 401 m 2,38,-1
 546 508 l 2,39,40
 546 517 546 517 540 523.5 c 128,-1,41
 534 530 534 530 525 530 c 2,42,-1
 411 530 l 2,43,44
 402 530 402 530 396 523.5 c 128,-1,45
 390 517 390 517 390 508 c 2,46,-1
 390 401 l 2,47,48
 390 392 390 392 396 385.5 c 128,-1,49
 402 379 402 379 411 379 c 2,50,-1
 525 379 l 2,51,52
 534 379 534 379 540 385.5 c 128,-1,53
 546 392 546 392 546 401 c 2,38,-1
EndSplineSet
EndChar

StartChar: i
Encoding: 105 105 97
Width: 1024
Flags: W
LayerCount: 2
Fore
SplineSet
673 810 m 1,0,-1
 611 810 l 2,1,2
 551 809 551 809 486.5 779 c 128,-1,3
 422 749 422 749 422 666 c 2,4,-1
 422 254 l 2,5,6
 422 225 422 225 404 215 c 128,-1,7
 386 205 386 205 369 204 c 2,8,-1
 353 204 l 2,9,10
 337 205 337 205 319.5 215 c 128,-1,11
 302 225 302 225 300 249 c 2,12,-1
 300 634 l 2,13,14
 302 660 302 660 309.5 681.5 c 128,-1,15
 317 703 317 703 327 717 c 0,16,17
 336 728 336 728 337 742.5 c 128,-1,18
 338 757 338 757 329 769 c 2,19,-1
 308 796 l 2,20,21
 299 807 299 807 285 811 c 128,-1,22
 271 815 271 815 258 809 c 0,23,24
 227 794 227 794 197.5 765 c 128,-1,25
 168 736 168 736 164 691 c 1,26,-1
 164 215 l 1,27,28
 172 143 172 143 226.5 114.5 c 128,-1,29
 281 86 281 86 330 84 c 2,30,-1
 378 84 l 2,31,32
 432 84 432 84 489.5 114.5 c 128,-1,33
 547 145 547 145 546 228 c 2,34,-1
 546 640 l 2,35,36
 546 668 546 668 568 678.5 c 128,-1,37
 590 689 590 689 611 689 c 2,38,-1
 637 690 l 2,39,40
 656 689 656 689 677.5 679 c 128,-1,41
 699 669 699 669 702 645 c 2,42,-1
 702 260 l 2,43,44
 699 235 699 235 686 214 c 128,-1,45
 673 193 673 193 658 179 c 0,46,47
 646 168 646 168 644 153 c 128,-1,48
 642 138 642 138 652 126 c 2,49,-1
 667 105 l 2,50,51
 674 96 674 96 685.5 92 c 128,-1,52
 697 88 697 88 708 91 c 0,53,54
 752 103 752 103 803.5 142 c 128,-1,55
 855 181 855 181 860 235 c 1,56,-1
 860 679 l 1,57,58
 851 751 851 751 790 779.5 c 128,-1,59
 729 808 729 808 673 810 c 1,60,-1
 673 810 l 1,0,-1
EndSplineSet
EndChar

StartChar: j
Encoding: 106 106 98
Width: 1024
Flags: W
LayerCount: 2
Fore
SplineSet
179 430 m 1,0,1
 186 358 186 358 237.5 329.5 c 128,-1,2
 289 301 289 301 335 299 c 2,3,-1
 381 299 l 2,4,5
 432 300 432 300 486 330.5 c 128,-1,6
 540 361 540 361 539 443 c 2,7,-1
 539 632 l 2,8,9
 539 660 539 660 561 670.5 c 128,-1,10
 583 681 583 681 604 681 c 2,11,-1
 623 681 l 2,12,13
 642 680 642 680 663.5 670 c 128,-1,14
 685 660 685 660 687 636 c 2,15,-1
 687 267 l 1,16,17
 682 218 682 218 640.5 198.5 c 128,-1,18
 599 179 599 179 561 178 c 2,19,-1
 179 178 l 1,20,-1
 179 74 l 1,21,-1
 654 74 l 1,22,23
 717 78 717 78 778 117.5 c 128,-1,24
 839 157 839 157 845 226 c 1,25,-1
 845 670 l 1,26,27
 837 742 837 742 775.5 770.5 c 128,-1,28
 714 799 714 799 659 801 c 2,29,-1
 604 801 l 2,30,31
 544 801 544 801 479.5 770.5 c 128,-1,32
 415 740 415 740 415 657 c 2,33,-1
 415 486 l 2,34,35
 415 464 415 464 397.5 455.5 c 128,-1,36
 380 447 380 447 364 447 c 2,37,-1
 349 447 l 2,38,39
 334 448 334 448 317 455.5 c 128,-1,40
 300 463 300 463 298 482 c 2,41,-1
 298 608 l 2,42,43
 298 639 298 639 313.5 658.5 c 128,-1,44
 329 678 329 678 353 689 c 1,45,-1
 338 789 l 1,46,47
 338 789 338 789 310 790 c 128,-1,48
 282 791 282 791 250 773 c 0,49,50
 218 756 218 756 198.5 713 c 128,-1,51
 179 670 179 670 179 624 c 2,52,-1
 179 430 l 1,53,-1
 179 430 l 1,0,1
EndSplineSet
EndChar

StartChar: k
Encoding: 107 107 99
Width: 1024
Flags: W
LayerCount: 2
Fore
SplineSet
701 721 m 1,0,-1
 701 614 l 1,1,-1
 548 614 l 1,2,-1
 548 506 l 1,3,-1
 701 506 l 1,4,-1
 701 286 l 1,5,6
 695 240 695 240 655 222 c 128,-1,7
 615 204 615 204 579 202 c 2,8,-1
 400 203 l 2,9,10
 361 203 361 203 319.5 222.5 c 128,-1,11
 278 242 278 242 279 295 c 2,12,-1
 279 635 l 2,13,14
 279 653 279 653 284.5 667 c 128,-1,15
 290 681 290 681 300 691 c 1,16,-1
 300 806 l 1,17,18
 243 804 243 804 204.5 769.5 c 128,-1,19
 166 735 166 735 166 673 c 2,20,-1
 166 223 l 2,21,22
 166 161 166 161 205 126.5 c 128,-1,23
 244 92 244 92 302 90 c 2,24,-1
 732 90 l 2,25,26
 773 92 773 92 813.5 118.5 c 128,-1,27
 854 145 854 145 858 190 c 1,28,-1
 858 721 l 1,29,-1
 701 721 l 1,30,-1
 701 721 l 1,0,-1
EndSplineSet
EndChar

StartChar: l
Encoding: 108 108 100
Width: 1024
Flags: W
LayerCount: 2
Fore
SplineSet
851 616 m 1,0,-1
 851 660 l 1,1,2
 844 728 844 728 783.5 768 c 128,-1,3
 723 808 723 808 659 812 c 1,4,-1
 379 812 l 2,5,6
 335 810 335 810 298 795 c 0,7,8
 260 779 260 779 232.5 752 c 128,-1,9
 205 725 205 725 189 689 c 256,10,11
 173 653 173 653 173 610 c 2,12,-1
 173 526 l 2,13,14
 173 432 173 432 232.5 379.5 c 128,-1,15
 292 327 292 327 379 324 c 2,16,-1
 659 324 l 2,17,18
 666 325 666 325 672.5 325.5 c 128,-1,19
 679 326 679 326 685 327 c 1,20,-1
 685 257 l 1,21,22
 681 220 681 220 649 205.5 c 128,-1,23
 617 191 617 191 589 190 c 2,24,-1
 397 190 l 2,25,26
 373 190 373 190 346.5 199 c 128,-1,27
 320 208 320 208 308 231 c 1,28,-1
 180 231 l 1,29,30
 197 162 197 162 251 124.5 c 128,-1,31
 305 87 305 87 379 84 c 2,32,-1
 659 84 l 1,33,34
 723 88 723 88 783.5 128 c 128,-1,35
 844 168 844 168 851 236 c 1,36,-1
 851 497 l 1,37,-1
 685 497 l 1,38,39
 681 460 681 460 649 445.5 c 128,-1,40
 617 431 617 431 589 430 c 2,41,-1
 397 430 l 2,42,43
 366 430 366 430 333 445.5 c 128,-1,44
 300 461 300 461 300 503 c 2,45,-1
 300 617 l 2,46,47
 300 659 300 659 333 674.5 c 128,-1,48
 366 690 366 690 397 690 c 2,49,-1
 589 690 l 2,50,51
 617 689 617 689 649 674.5 c 128,-1,52
 681 660 681 660 685 623 c 1,53,-1
 685 616 l 1,54,-1
 851 616 l 1,55,-1
 851 616 l 1,0,-1
EndSplineSet
EndChar

StartChar: m
Encoding: 109 109 101
Width: 1024
Flags: W
LayerCount: 2
Fore
SplineSet
581 475 m 1,0,1
 591 475 591 475 602 473 c 128,-1,2
 613 471 613 471 624 467 c 1,3,-1
 399 220 l 2,4,5
 379 199 379 199 349.5 198 c 128,-1,6
 320 197 320 197 301 218 c 0,7,8
 293 226 293 226 288.5 237.5 c 128,-1,9
 284 249 284 249 284 264 c 2,10,-1
 284 399 l 2,11,12
 284 443 284 443 309 459 c 128,-1,13
 334 475 334 475 384 475 c 2,14,-1
 581 475 l 1,15,-1
 581 475 l 1,0,1
677 817 m 1,16,-1
 372 817 l 2,17,18
 269 815 269 815 231 783 c 128,-1,19
 193 751 193 751 185 700 c 1,20,-1
 312 700 l 1,21,22
 324 714 324 714 345 719.5 c 128,-1,23
 366 725 366 725 396 725 c 2,24,-1
 581 725 l 2,25,26
 610 724 610 724 643.5 708.5 c 128,-1,27
 677 693 677 693 681 655 c 1,28,-1
 681 570 l 1,29,30
 680 570 680 570 679 570 c 128,-1,31
 678 570 678 570 677 570 c 2,32,-1
 360 570 l 2,33,34
 225 568 225 568 197 515 c 128,-1,35
 169 462 169 462 169 382 c 2,36,-1
 169 250 l 2,37,38
 169 179 169 179 219 129 c 128,-1,39
 269 79 269 79 340 79 c 0,40,41
 376 79 376 79 409 93.5 c 128,-1,42
 442 108 442 108 466 135 c 2,43,-1
 681 370 l 1,44,-1
 681 79 l 1,45,-1
 855 79 l 1,46,-1
 855 675 l 1,47,48
 849 739 849 739 792.5 776 c 128,-1,49
 736 813 736 813 677 817 c 1,50,-1
 677 817 l 1,16,-1
EndSplineSet
EndChar

StartChar: d
Encoding: 100 100 102
Width: 1024
Flags: W
LayerCount: 2
Fore
SplineSet
643 826 m 1,0,-1
 584 825 l 2,1,2
 542 825 542 825 495 812.5 c 128,-1,3
 448 800 448 800 416 769 c 0,4,5
 389 741 389 741 400 704 c 128,-1,6
 411 667 411 667 449 659 c 2,7,-1
 462 657 l 2,8,9
 479 653 479 653 495.5 658 c 128,-1,10
 512 663 512 663 524 676 c 0,11,12
 534 688 534 688 551 693 c 128,-1,13
 568 698 568 698 584 698 c 2,14,-1
 604 698 l 2,15,16
 615 698 615 698 627 695 c 128,-1,17
 639 692 639 692 650 686 c 1,18,-1
 286 393 l 1,19,-1
 286 393 l 1,20,-1
 183 310 l 2,21,22
 180 308 180 308 179 305.5 c 128,-1,23
 178 303 178 303 178 300 c 2,24,-1
 178 250 l 2,25,26
 178 174 178 174 230.5 123.5 c 128,-1,27
 283 73 283 73 360 70 c 2,28,-1
 676 70 l 1,29,30
 733 74 733 74 786.5 109 c 128,-1,31
 840 144 840 144 846 205 c 1,32,-1
 846 687 l 1,33,34
 837 763 837 763 770 793 c 128,-1,35
 703 823 703 823 643 826 c 1,36,-1
 643 826 l 1,0,-1
286 249 m 1,37,-1
 286 265 l 1,38,-1
 674 577 l 1,39,-1
 674 513 l 1,40,-1
 297 210 l 1,41,42
 292 218 292 218 289 227.5 c 128,-1,43
 286 237 286 237 286 249 c 1,44,-1
 286 249 l 1,37,-1
674 242 m 1,45,46
 670 206 670 206 638 191 c 128,-1,47
 606 176 606 176 578 175 c 2,48,-1
 382 175 l 2,49,50
 376 175 376 175 369.5 176 c 128,-1,51
 363 177 363 177 357 178 c 1,52,-1
 674 433 l 1,53,-1
 674 242 l 1,54,-1
 674 242 l 1,45,46
EndSplineSet
EndChar

StartChar: e
Encoding: 101 101 103
Width: 1024
Flags: W
LayerCount: 2
Fore
SplineSet
667 835 m 1,0,-1
 609 835 l 2,1,2
 544 834 544 834 475.5 802 c 128,-1,3
 407 770 407 770 408 682 c 2,4,-1
 408 448 l 1,5,-1
 540 448 l 1,6,-1
 540 654 l 2,7,8
 540 684 540 684 563 695 c 128,-1,9
 586 706 586 706 609 707 c 2,10,-1
 628 707 l 2,11,12
 649 706 649 706 671.5 695.5 c 128,-1,13
 694 685 694 685 697 659 c 2,14,-1
 697 267 l 1,15,16
 691 214 691 214 647.5 193.5 c 128,-1,17
 604 173 604 173 563 171 c 2,18,-1
 414 171 l 2,19,20
 370 172 370 172 323 194 c 128,-1,21
 276 216 276 216 276 276 c 2,22,-1
 276 637 l 2,23,24
 276 670 276 670 291.5 690.5 c 128,-1,25
 307 711 307 711 330 723 c 1,26,-1
 315 829 l 1,27,28
 315 829 315 829 288 830 c 128,-1,29
 261 831 261 831 229 813 c 0,30,31
 197 794 197 794 178 748.5 c 128,-1,32
 159 703 159 703 159 654 c 2,33,-1
 159 276 l 2,34,35
 159 226 159 226 175 186 c 0,36,37
 192 147 192 147 221.5 119.5 c 128,-1,38
 251 92 251 92 291 77 c 256,39,40
 331 62 331 62 377 61 c 2,41,-1
 662 61 l 1,42,43
 729 65 729 65 794 107.5 c 128,-1,44
 859 150 859 150 865 223 c 1,45,-1
 865 695 l 1,46,47
 857 772 857 772 791.5 802.5 c 128,-1,48
 726 833 726 833 667 835 c 1,49,-1
 667 835 l 1,0,-1
EndSplineSet
EndChar

StartChar: exclamdown
Encoding: 161 161 104
Width: 1024
Flags: W
LayerCount: 2
Fore
SplineSet
867 472 m 1,0,1
 857 429 857 429 833 430 c 128,-1,2
 809 431 809 431 787 463 c 0,3,4
 761 500 761 500 708 556.5 c 128,-1,5
 655 613 655 613 609 613 c 0,6,7
 567 613 567 613 513.5 565 c 128,-1,8
 460 517 460 517 425 466 c 0,9,10
 422 462 422 462 397 480 c 0,11,12
 372 497 372 497 342.5 519.5 c 128,-1,13
 313 542 313 542 289 561 c 256,14,15
 265 580 265 580 265 580 c 1,16,17
 288 611 288 611 322 647 c 0,18,19
 355 683 355 683 395 713 c 128,-1,20
 435 743 435 743 478 762 c 256,21,22
 521 781 521 781 563 779 c 0,23,24
 606 781 606 781 646 762 c 256,25,26
 686 743 686 743 721.5 712.5 c 128,-1,27
 757 682 757 682 787 646 c 0,28,29
 818 611 818 611 843 580 c 0,30,31
 863 559 863 559 868 529 c 128,-1,32
 873 499 873 499 867 472 c 1,33,-1
 867 472 l 1,0,1
157 390 m 1,34,35
 167 433 167 433 191 432 c 128,-1,36
 215 431 215 431 237 399 c 0,37,38
 263 362 263 362 316 305.5 c 128,-1,39
 369 249 369 249 415 249 c 0,40,41
 457 249 457 249 510.5 297.5 c 128,-1,42
 564 346 564 346 599 396 c 0,43,44
 602 400 602 400 627 383 c 0,45,46
 652 365 652 365 681.5 343 c 128,-1,47
 711 321 711 321 735 301 c 0,48,49
 759 282 759 282 759 282 c 1,50,51
 736 251 736 251 702 215 c 0,52,53
 669 179 669 179 629 149 c 128,-1,54
 589 119 589 119 546 100 c 256,55,56
 503 81 503 81 461 84 c 1,57,58
 418 81 418 81 378 100 c 256,59,60
 338 119 338 119 302.5 149.5 c 128,-1,61
 267 180 267 180 237 216 c 0,62,63
 206 251 206 251 181 282 c 0,64,65
 161 303 161 303 156 333 c 128,-1,66
 151 363 151 363 157 390 c 1,67,-1
 157 390 l 1,34,35
EndSplineSet
EndChar

StartChar: cent
Encoding: 162 162 105
Width: 1024
Flags: W
LayerCount: 2
Fore
SplineSet
279 202 m 1,0,1
 245 232 245 232 196 289 c 128,-1,2
 147 346 147 346 148 375 c 0,3,4
 148 393 148 393 191 450 c 0,5,6
 235 508 235 508 298 573 c 128,-1,7
 361 638 361 638 434 694 c 0,8,9
 506 750 506 750 563 763 c 0,10,11
 575 766 575 766 605 750 c 256,12,13
 635 734 635 734 664 713 c 128,-1,14
 693 692 693 692 714 673 c 256,15,16
 735 654 735 654 729 651 c 0,17,18
 669 610 669 610 610 555 c 0,19,20
 550 500 550 500 492.5 439.5 c 128,-1,21
 435 379 435 379 381 318 c 0,22,23
 327 256 327 256 279 202 c 1,24,-1
 279 202 l 1,0,1
525 137 m 1,25,26
 556 172 556 172 615 233 c 0,27,28
 673 295 673 295 730 354.5 c 128,-1,29
 787 414 787 414 830 458 c 0,30,31
 872 502 872 502 872 502 c 1,32,33
 868 507 868 507 828 547.5 c 128,-1,34
 788 588 788 588 784 585 c 0,35,36
 740 553 740 553 666 480 c 0,37,38
 592 406 592 406 521.5 330 c 128,-1,39
 451 254 451 254 402 196 c 0,40,41
 352 138 352 138 357 137 c 0,42,43
 370 135 370 135 448.5 137 c 128,-1,44
 527 139 527 139 525 137 c 1,45,-1
 525 137 l 1,25,26
800 83 m 1,46,47
 819 102 819 102 838 121.5 c 128,-1,48
 857 141 857 141 876 160 c 1,49,50
 876 180 876 180 841 219 c 128,-1,51
 806 258 806 258 786 262 c 1,52,53
 767 243 767 243 748 224 c 128,-1,54
 729 205 729 205 709 186 c 1,55,56
 710 165 710 165 745 126 c 128,-1,57
 780 87 780 87 800 83 c 1,58,-1
 800 83 l 1,46,47
EndSplineSet
EndChar

StartChar: sterling
Encoding: 163 163 106
Width: 1024
Flags: W
LayerCount: 2
Fore
SplineSet
845 388 m 1,0,1
 814 346 814 346 783 307 c 128,-1,2
 752 268 752 268 725 224 c 0,3,4
 721 217 721 217 714 214 c 128,-1,5
 707 211 707 211 700 212 c 0,6,7
 664 216 664 216 639 242 c 128,-1,8
 614 268 614 268 596 296 c 0,9,10
 571 327 571 327 546.5 360.5 c 128,-1,11
 522 394 522 394 487 415 c 0,12,13
 485 415 485 415 484 415 c 128,-1,14
 483 415 483 415 482 415 c 0,15,16
 420 398 420 398 381 342 c 128,-1,17
 342 286 342 286 309 235 c 0,18,19
 292 206 292 206 262 222 c 128,-1,20
 232 238 232 238 216 253 c 0,21,22
 194 275 194 275 174.5 307.5 c 128,-1,23
 155 340 155 340 165 373 c 1,24,25
 185 405 185 405 211 445 c 0,26,27
 238 486 238 486 269.5 519.5 c 128,-1,28
 301 553 301 553 340 573 c 0,29,30
 378 593 378 593 422 583 c 1,31,32
 464 569 464 569 499 545 c 0,33,34
 535 520 535 520 566 489.5 c 128,-1,35
 597 459 597 459 624 424 c 0,36,37
 651 390 651 390 677 356 c 1,38,39
 691 379 691 379 712.5 401 c 128,-1,40
 734 423 734 423 750 445 c 1,41,42
 724 473 724 473 694 500 c 0,43,44
 664 526 664 526 632 552 c 128,-1,45
 600 578 600 578 568 603 c 0,46,47
 537 629 537 629 509 654 c 0,48,49
 489 671 489 671 482.5 697.5 c 128,-1,50
 476 724 476 724 480 749 c 0,51,52
 482 766 482 766 496.5 782.5 c 128,-1,53
 511 799 511 799 529 782 c 0,54,55
 538 774 538 774 547 766 c 128,-1,56
 556 758 556 758 565 750 c 0,57,58
 597 722 597 722 632 693 c 0,59,60
 668 664 668 664 704 634 c 128,-1,61
 740 604 740 604 775 573 c 0,62,63
 809 543 809 543 838 512 c 0,64,65
 859 489 859 489 861.5 451.5 c 128,-1,66
 864 414 864 414 845 388 c 1,67,-1
 845 388 l 1,0,1
493 84 m 1,68,69
 514 109 514 109 534.5 134 c 128,-1,70
 555 159 555 159 576 183 c 0,71,72
 579 187 579 187 574 195 c 128,-1,73
 569 203 569 203 568 204 c 0,74,75
 553 225 553 225 535.5 244 c 128,-1,76
 518 263 518 263 498 278 c 0,77,78
 496 280 496 280 488 285.5 c 128,-1,79
 480 291 480 291 477 287 c 0,80,81
 456 263 456 263 435.5 238 c 128,-1,82
 415 213 415 213 394 188 c 0,83,84
 391 185 391 185 396 176.5 c 128,-1,85
 401 168 401 168 402 167 c 0,86,87
 417 146 417 146 434.5 127.5 c 128,-1,88
 452 109 452 109 472 94 c 0,89,90
 474 92 474 92 482 86.5 c 128,-1,91
 490 81 490 81 493 84 c 1,92,-1
 493 84 l 1,93,-1
 493 84 l 1,68,69
EndSplineSet
EndChar

StartChar: currency
Encoding: 164 164 107
Width: 1024
Flags: W
LayerCount: 2
Fore
SplineSet
788 102 m 1,0,1
 772 71 772 71 739 87 c 128,-1,2
 706 103 706 103 690 119 c 0,3,4
 651 158 651 158 613 196.5 c 128,-1,5
 575 235 575 235 535 272 c 0,6,7
 528 278 528 278 504 296.5 c 128,-1,8
 480 315 480 315 474 315 c 0,9,10
 455 307 455 307 424 271 c 128,-1,11
 393 235 393 235 379 216 c 0,12,13
 366 198 366 198 353.5 179.5 c 128,-1,14
 341 161 341 161 329 143 c 0,15,16
 326 136 326 136 320.5 131.5 c 128,-1,17
 315 127 315 127 307 125 c 0,18,19
 260 124 260 124 223.5 166.5 c 128,-1,20
 187 209 187 209 175 251 c 0,21,22
 173 261 173 261 172.5 271 c 128,-1,23
 172 281 172 281 176 287 c 0,24,25
 195 320 195 320 217 350.5 c 128,-1,26
 239 381 239 381 262 411 c 0,27,28
 294 453 294 453 329 493 c 0,29,30
 363 533 363 533 400 570.5 c 128,-1,31
 437 608 437 608 477 643 c 0,32,33
 517 677 517 677 560 708 c 1,34,35
 591 724 591 724 621 701.5 c 128,-1,36
 651 679 651 679 670 657 c 0,37,38
 687 635 687 635 703 600 c 128,-1,39
 719 565 719 565 697 540 c 1,40,41
 656 511 656 511 601 462 c 128,-1,42
 546 413 546 413 547 407 c 0,43,44
 590 366 590 366 640 319.5 c 128,-1,45
 690 273 690 273 733 228 c 0,46,47
 754 207 754 207 777 171 c 128,-1,48
 800 135 800 135 788 102 c 1,49,-1
 788 102 l 1,0,1
779 321 m 1,50,51
 796 340 796 340 814 359.5 c 128,-1,52
 832 379 832 379 849 398 c 0,53,54
 853 402 853 402 851 409.5 c 128,-1,55
 849 417 849 417 847 422 c 0,56,57
 837 441 837 441 812 470 c 128,-1,58
 787 499 787 499 762 494 c 1,59,60
 745 475 745 475 727.5 456 c 128,-1,61
 710 437 710 437 692 418 c 0,62,63
 688 413 688 413 690 405.5 c 128,-1,64
 692 398 692 398 694 394 c 0,65,66
 704 374 704 374 729.5 345 c 128,-1,67
 755 316 755 316 779 321 c 1,68,-1
 779 321 l 1,50,51
EndSplineSet
EndChar

StartChar: yen
Encoding: 165 165 108
Width: 1024
Flags: W
LayerCount: 2
Fore
SplineSet
440 423 m 1,0,1
 433 422 433 422 409.5 396 c 128,-1,2
 386 370 386 370 370 349 c 0,3,4
 346 319 346 319 325.5 289 c 128,-1,5
 305 259 305 259 285 233 c 0,6,7
 281 227 281 227 277 223.5 c 128,-1,8
 273 220 273 220 268 219 c 0,9,10
 233 219 233 219 207.5 247.5 c 128,-1,11
 182 276 182 276 169 305 c 0,12,13
 167 308 167 308 165.5 313.5 c 128,-1,14
 164 319 164 319 163 324 c 0,15,16
 161 332 161 332 161 340 c 128,-1,17
 161 348 161 348 164 352 c 0,18,19
 183 382 183 382 204 410 c 128,-1,20
 225 438 225 438 248 464 c 0,21,22
 278 498 278 498 306 534 c 0,23,24
 334 569 334 569 363.5 604 c 128,-1,25
 393 639 393 639 423 673 c 0,26,27
 454 706 454 706 488 736 c 0,28,29
 533 781 533 781 571 759 c 128,-1,30
 609 737 609 737 649 708 c 0,31,32
 666 695 666 695 711 655 c 256,33,34
 756 615 756 615 796.5 568.5 c 128,-1,35
 837 522 837 522 857 480 c 256,36,37
 877 438 877 438 842 422 c 1,38,39
 806 421 806 421 783.5 449.5 c 128,-1,40
 761 478 761 478 740 502 c 0,41,42
 711 532 711 532 667.5 573 c 128,-1,43
 624 614 624 614 616 614 c 0,44,45
 609 614 609 614 565.5 567.5 c 128,-1,46
 522 521 522 521 492 488 c 1,47,48
 554 445 554 445 609 393 c 128,-1,49
 664 341 664 341 716 287 c 0,50,51
 733 270 733 270 751 240.5 c 128,-1,52
 769 211 769 211 759 184 c 1,53,54
 745 160 745 160 718.5 173 c 128,-1,55
 692 186 692 186 679 200 c 0,56,57
 646 233 646 233 609.5 272 c 128,-1,58
 573 311 573 311 534 348 c 0,59,60
 512 368 512 368 480 395.5 c 128,-1,61
 448 423 448 423 440 423 c 1,62,-1
 440 423 l 1,0,1
474 85 m 1,63,64
 489 104 489 104 504.5 122.5 c 128,-1,65
 520 141 520 141 536 160 c 0,66,67
 539 164 539 164 536.5 171 c 128,-1,68
 534 178 534 178 532 182 c 0,69,70
 522 200 522 200 506.5 216 c 128,-1,71
 491 232 491 232 472 242 c 0,72,73
 467 244 467 244 461.5 246.5 c 128,-1,74
 456 249 456 249 450 246 c 0,75,76
 435 227 435 227 419.5 208.5 c 128,-1,77
 404 190 404 190 388 171 c 0,78,79
 385 167 385 167 387.5 160 c 128,-1,80
 390 153 390 153 392 149 c 0,81,82
 402 131 402 131 417.5 115 c 128,-1,83
 433 99 433 99 452 89 c 0,84,85
 457 86 457 86 462.5 84 c 128,-1,86
 468 82 468 82 474 85 c 1,87,-1
 474 85 l 1,63,64
EndSplineSet
EndChar

StartChar: brokenbar
Encoding: 166 166 109
Width: 1024
Flags: W
LayerCount: 2
Fore
SplineSet
338 227 m 1,0,1
 325 214 325 214 281 250.5 c 128,-1,2
 237 287 237 287 230 313 c 0,3,4
 227 322 227 322 222 332.5 c 128,-1,5
 217 343 217 343 223 352 c 0,6,7
 243 380 243 380 265 407 c 128,-1,8
 287 434 287 434 312 459 c 0,9,10
 354 505 354 505 406 523.5 c 128,-1,11
 458 542 458 542 513 498 c 0,12,13
 549 474 549 474 582 445 c 0,14,15
 615 417 615 417 646 386 c 128,-1,16
 677 355 677 355 706 323 c 0,17,18
 735 290 735 290 763 257 c 0,19,20
 779 238 779 238 795.5 208.5 c 128,-1,21
 812 179 812 179 800 152 c 1,22,23
 777 121 777 121 745 151.5 c 128,-1,24
 713 182 713 182 698 200 c 0,25,26
 684 216 684 216 657 243 c 256,27,28
 630 270 630 270 603 296.5 c 128,-1,29
 576 323 576 323 554 343 c 0,30,31
 532 364 532 364 527 367 c 0,32,33
 508 385 508 385 480 370 c 256,34,35
 452 355 452 355 423.5 327 c 128,-1,36
 395 299 395 299 372 269 c 0,37,38
 348 239 348 239 338 227 c 1,39,-1
 338 227 l 1,40,-1
 338 227 l 1,0,1
524 83 m 1,41,42
 538 99 538 99 553 114.5 c 128,-1,43
 568 130 568 130 583 145 c 0,44,45
 587 150 587 150 585.5 156.5 c 128,-1,46
 584 163 584 163 582 168 c 0,47,48
 573 187 573 187 552 215.5 c 128,-1,49
 531 244 531 244 507 242 c 1,50,51
 493 226 493 226 478 210.5 c 128,-1,52
 463 195 463 195 448 180 c 0,53,54
 444 175 444 175 445.5 168.5 c 128,-1,55
 447 162 447 162 449 157 c 0,56,57
 458 138 458 138 479 109.5 c 128,-1,58
 500 81 500 81 524 83 c 1,59,-1
 524 83 l 1,60,-1
 524 83 l 1,41,42
EndSplineSet
EndChar

StartChar: section
Encoding: 167 167 110
Width: 1024
Flags: W
LayerCount: 2
Fore
SplineSet
496 385 m 1,0,1
 529 427 529 427 570.5 463.5 c 128,-1,2
 612 500 612 500 659 528 c 0,3,4
 700 554 700 554 727.5 548.5 c 128,-1,5
 755 543 755 543 777 501 c 0,6,7
 791 476 791 476 809 440 c 0,8,9
 826 405 826 405 839 366.5 c 128,-1,10
 852 328 852 328 857 291 c 0,11,12
 861 255 861 255 851 227 c 1,13,14
 830 202 830 202 806 275 c 128,-1,15
 782 348 782 348 770 356 c 0,16,17
 750 363 750 363 714 341 c 128,-1,18
 678 319 678 319 673 315 c 0,19,20
 517 203 517 203 534.5 181.5 c 128,-1,21
 552 160 552 160 408 356 c 1,22,23
 380 334 380 334 354 302 c 0,24,25
 327 271 327 271 304.5 237.5 c 128,-1,26
 282 204 282 204 265 171 c 0,27,28
 247 139 247 139 236 114 c 1,29,-1
 236 114 l 1,30,31
 226 84 226 84 210 106 c 128,-1,32
 194 128 194 128 189 142 c 0,33,34
 178 173 178 173 170 208 c 128,-1,35
 162 243 162 243 169 276 c 1,36,37
 185 316 185 316 206 353.5 c 128,-1,38
 227 391 227 391 252 427 c 0,39,40
 277 459 277 459 303 493.5 c 128,-1,41
 329 528 329 528 367 548 c 0,42,43
 376 550 376 550 383 545 c 128,-1,44
 390 540 390 540 395 533 c 0,45,46
 422 497 422 497 447 459.5 c 128,-1,47
 472 422 472 422 496 385 c 1,48,-1
 496 385 l 1,0,1
545 518 m 1,49,50
 562 533 562 533 578.5 547.5 c 128,-1,51
 595 562 595 562 612 577 c 0,52,53
 616 580 616 580 614.5 586.5 c 128,-1,54
 613 593 613 593 611 596 c 0,55,56
 603 613 603 613 590.5 628.5 c 128,-1,57
 578 644 578 644 561 655 c 0,58,59
 557 657 557 657 551.5 660 c 128,-1,60
 546 663 546 663 541 660 c 0,61,62
 524 645 524 645 507.5 630.5 c 128,-1,63
 491 616 491 616 474 602 c 0,64,65
 470 598 470 598 471.5 592 c 128,-1,66
 473 586 473 586 475 582 c 0,67,68
 482 565 482 565 495 549.5 c 128,-1,69
 508 534 508 534 525 523 c 0,70,71
 529 521 529 521 534 518 c 128,-1,72
 539 515 539 515 545 518 c 1,73,-1
 545 518 l 1,49,50
708 85 m 1,74,75
 723 100 723 100 738.5 115 c 128,-1,76
 754 130 754 130 770 145 c 0,77,78
 774 149 774 149 772.5 155.5 c 128,-1,79
 771 162 771 162 769 166 c 0,80,81
 760 186 760 186 746 203 c 128,-1,82
 732 220 732 220 713 232 c 0,83,84
 708 235 708 235 702.5 238 c 128,-1,85
 697 241 697 241 691 238 c 0,86,87
 675 223 675 223 659.5 208 c 128,-1,88
 644 193 644 193 629 178 c 0,89,90
 624 174 624 174 625.5 167.5 c 128,-1,91
 627 161 627 161 629 156 c 0,92,93
 638 137 638 137 652.5 120 c 128,-1,94
 667 103 667 103 685 90 c 0,95,96
 690 88 690 88 696 85 c 128,-1,97
 702 82 702 82 708 85 c 1,98,-1
 708 85 l 1,74,75
EndSplineSet
EndChar

StartChar: dieresis
Encoding: 168 168 111
Width: 1024
Flags: W
LayerCount: 2
Fore
SplineSet
276 386 m 1,0,1
 268 379 268 379 238 403 c 128,-1,2
 208 427 208 427 199 439 c 0,3,4
 186 457 186 457 171.5 483.5 c 128,-1,5
 157 510 157 510 176 529 c 0,6,7
 195 547 195 547 219.5 569 c 128,-1,8
 244 591 244 591 264 609 c 0,9,10
 298 640 298 640 333 670 c 128,-1,11
 368 700 368 700 404 729 c 0,12,13
 435 752 435 752 468 775 c 128,-1,14
 501 798 501 798 538 810 c 0,15,16
 561 817 561 817 585.5 810 c 128,-1,17
 610 803 610 803 631 793 c 0,18,19
 662 779 662 779 689 756 c 128,-1,20
 716 733 716 733 740 708 c 0,21,22
 770 676 770 676 796 640 c 128,-1,23
 822 604 822 604 844 565 c 0,24,25
 852 550 852 550 857.5 520.5 c 128,-1,26
 863 491 863 491 836 485 c 0,27,28
 825 483 825 483 812 490.5 c 128,-1,29
 799 498 799 498 792 504 c 0,30,31
 780 513 780 513 750.5 548.5 c 128,-1,32
 721 584 721 584 709 595 c 0,33,34
 697 607 697 607 662 634.5 c 128,-1,35
 627 662 627 662 623 662 c 256,36,37
 619 662 619 662 590 645 c 128,-1,38
 561 628 561 628 542 615 c 0,39,40
 508 590 508 590 473 562 c 0,41,42
 439 535 439 535 405 505.5 c 128,-1,43
 371 476 371 476 339 446 c 0,44,45
 306 416 306 416 276 386 c 1,46,-1
 276 386 l 1,47,-1
 276 386 l 1,0,1
784 161 m 1,48,49
 789 154 789 154 796.5 148 c 128,-1,50
 804 142 804 142 813 143 c 1,51,52
 813 143 813 143 813 143 c 129,-1,53
 813 143 813 143 813 143 c 1,54,55
 847 155 847 155 846 196.5 c 128,-1,56
 845 238 845 238 830 263 c 1,57,58
 830 263 830 263 830 263 c 129,-1,59
 830 263 830 263 830 263 c 1,60,61
 771 343 771 343 721.5 379 c 128,-1,62
 672 415 672 415 625 415 c 0,63,64
 570 416 570 416 512.5 374.5 c 128,-1,65
 455 333 455 333 381 263 c 0,66,67
 360 239 360 239 325.5 213 c 128,-1,68
 291 187 291 187 306 159 c 0,69,70
 322 132 322 132 340 103.5 c 128,-1,71
 358 75 358 75 369 86 c 0,72,73
 379 95 379 95 416 129 c 0,74,75
 453 162 453 162 496 198.5 c 128,-1,76
 539 235 539 235 577 263 c 0,77,78
 615 292 615 292 627 292 c 0,79,80
 651 292 651 292 700 250 c 128,-1,81
 749 208 749 208 784 161 c 1,82,-1
 784 161 l 1,48,49
EndSplineSet
EndChar

StartChar: copyright
Encoding: 169 169 112
Width: 1024
Flags: W
LayerCount: 2
Fore
SplineSet
853 303 m 0,0,1
 853 293 853 293 830 257 c 256,2,3
 807 221 807 221 778 182.5 c 128,-1,4
 749 144 749 144 723 114 c 0,5,6
 697 83 697 83 691 83 c 0,7,8
 679 83 679 83 662 110 c 128,-1,9
 645 137 645 137 626 156 c 0,10,11
 608 175 608 175 564.5 222.5 c 128,-1,12
 521 270 521 270 493 270 c 0,13,14
 442 270 442 270 411 237 c 128,-1,15
 380 204 380 204 347 168 c 0,16,17
 337 158 337 158 326 144 c 128,-1,18
 315 130 315 130 301 123 c 0,19,20
 298 121 298 121 275 143 c 256,21,22
 252 165 252 165 227 193.5 c 128,-1,23
 202 222 202 222 184 249 c 256,24,25
 166 276 166 276 173 284 c 0,26,27
 195 311 195 311 224 343 c 256,28,29
 253 375 253 375 285.5 402.5 c 128,-1,30
 318 430 318 430 354 449 c 0,31,32
 390 467 390 467 426 467 c 0,33,34
 474 467 474 467 510 447 c 0,35,36
 546 426 546 426 575 394 c 128,-1,37
 604 362 604 362 629 323 c 0,38,39
 653 285 653 285 678 250 c 1,40,41
 713 291 713 291 731 319.5 c 128,-1,42
 749 348 749 348 787 387 c 0,43,44
 811 411 811 411 832 367.5 c 128,-1,45
 853 324 853 324 853 303 c 0,0,1
717 410 m 1,46,47
 744 439 744 439 771.5 467.5 c 128,-1,48
 799 496 799 496 826 525 c 0,49,50
 830 528 830 528 824.5 538 c 128,-1,51
 819 548 819 548 818 550 c 0,52,53
 803 575 803 575 783.5 598 c 128,-1,54
 764 621 764 621 742 641 c 0,55,56
 739 643 739 643 730.5 650 c 128,-1,57
 722 657 722 657 718 653 c 0,58,59
 691 624 691 624 663.5 595.5 c 128,-1,60
 636 567 636 567 609 538 c 0,61,62
 605 534 605 534 610.5 524.5 c 128,-1,63
 616 515 616 515 617 513 c 0,64,65
 632 488 632 488 651.5 465 c 128,-1,66
 671 442 671 442 693 422 c 0,67,68
 696 420 696 420 704.5 413 c 128,-1,69
 713 406 713 406 717 410 c 1,70,-1
 717 410 l 1,46,47
EndSplineSet
EndChar

StartChar: ordfeminine
Encoding: 170 170 113
Width: 1024
Flags: W
LayerCount: 2
Fore
SplineSet
231 100 m 1,0,1
 221 67 221 67 204.5 91 c 128,-1,2
 188 115 188 115 184 130 c 0,3,4
 172 165 172 165 164 203.5 c 128,-1,5
 156 242 156 242 163 278 c 1,6,7
 179 322 179 322 200.5 364 c 128,-1,8
 222 406 222 406 248 445 c 0,9,10
 273 480 273 480 299.5 518 c 128,-1,11
 326 556 326 556 364 578 c 0,12,13
 374 580 374 580 381 574.5 c 128,-1,14
 388 569 388 569 393 562 c 0,15,16
 420 522 420 522 445.5 481 c 128,-1,17
 471 440 471 440 496 398 c 1,18,19
 529 445 529 445 571.5 485 c 128,-1,20
 614 525 614 525 662 557 c 0,21,22
 703 584 703 584 731.5 578 c 128,-1,23
 760 572 760 572 782 527 c 0,24,25
 797 497 797 497 814 458 c 0,26,27
 831 420 831 420 844 378.5 c 128,-1,28
 857 337 857 337 862 297 c 256,29,30
 867 257 867 257 857 224 c 1,31,32
 836 201 836 201 817 260.5 c 128,-1,33
 798 320 798 320 790 336 c 0,34,35
 786 344 786 344 782.5 352 c 128,-1,36
 779 360 779 360 772 366 c 0,37,38
 768 367 768 367 753.5 364 c 128,-1,39
 739 361 739 361 729 356 c 0,40,41
 713 348 713 348 693.5 334.5 c 128,-1,42
 674 321 674 321 676 322 c 1,43,44
 639 292 639 292 603.5 256.5 c 128,-1,45
 568 221 568 221 545 179 c 0,46,47
 540 170 540 170 531.5 175 c 128,-1,48
 523 180 523 180 520 185 c 0,49,50
 494 229 494 229 466.5 271.5 c 128,-1,51
 439 314 439 314 413 357 c 0,52,53
 409 363 409 363 407 363.5 c 128,-1,54
 405 364 405 364 403 362 c 0,55,56
 375 338 375 338 349 304 c 0,57,58
 322 270 322 270 299.5 233.5 c 128,-1,59
 277 197 277 197 260 162 c 0,60,61
 242 127 242 127 231 100 c 1,62,-1
 231 100 l 1,63,-1
 231 100 l 1,0,1
706 88 m 1,64,65
 721 102 721 102 736 116 c 128,-1,66
 751 130 751 130 765 144 c 0,67,68
 769 147 769 147 767.5 153 c 128,-1,69
 766 159 766 159 765 163 c 0,70,71
 758 179 758 179 746.5 194 c 128,-1,72
 735 209 735 209 721 219 c 0,73,74
 717 222 717 222 712.5 224.5 c 128,-1,75
 708 227 708 227 703 224 c 0,76,77
 688 210 688 210 673 196 c 128,-1,78
 658 182 658 182 644 168 c 0,79,80
 640 165 640 165 641.5 159 c 128,-1,81
 643 153 643 153 644 149 c 0,82,83
 651 133 651 133 662.5 118 c 128,-1,84
 674 103 674 103 688 93 c 0,85,86
 692 91 692 91 696.5 88 c 128,-1,87
 701 85 701 85 706 88 c 1,88,-1
 706 88 l 1,64,65
EndSplineSet
EndChar

StartChar: guillemotleft
Encoding: 171 171 114
Width: 1024
Flags: W
LayerCount: 2
Fore
SplineSet
662 811 m 1,0,-1
 662 382 l 1,1,-1
 440 488 l 1,2,3
 503 506 503 506 518.5 555.5 c 128,-1,4
 534 605 534 605 534 682 c 0,5,6
 534 735 534 735 523.5 785 c 128,-1,7
 513 835 513 835 427 830 c 1,8,-1
 294 830 l 2,9,10
 232 828 232 828 208 774 c 0,11,12
 183 721 183 721 182 657 c 128,-1,13
 181 593 181 593 195 539 c 256,14,15
 209 485 209 485 222 482 c 2,16,-1
 662 256 l 1,17,-1
 662 218 l 2,18,19
 660 190 660 190 640 178.5 c 128,-1,20
 620 167 620 167 602 166 c 2,21,-1
 585 167 l 2,22,23
 570 167 570 167 553.5 174.5 c 128,-1,24
 537 182 537 182 529 201 c 1,25,-1
 372 201 l 1,26,27
 383 124 383 124 446 95.5 c 128,-1,28
 509 67 509 67 568 66 c 2,29,-1
 629 66 l 2,30,31
 693 68 693 68 762.5 100.5 c 128,-1,32
 832 133 832 133 842 215 c 1,33,-1
 842 811 l 1,34,-1
 662 811 l 1,35,-1
 662 811 l 1,0,-1
294 712 m 1,36,37
 296 727 296 727 311.5 734 c 128,-1,38
 327 741 327 741 344 741 c 2,39,-1
 364 740 l 2,40,41
 386 740 386 740 394.5 730.5 c 128,-1,42
 403 721 403 721 402 703 c 2,43,-1
 400 645 l 2,44,45
 399 612 399 612 359.5 613 c 128,-1,46
 320 614 320 614 294 612 c 1,47,-1
 294 712 l 1,48,-1
 294 712 l 1,36,37
EndSplineSet
EndChar

StartChar: logicalnot
Encoding: 172 172 115
Width: 1024
Flags: W
LayerCount: 2
Fore
SplineSet
628 464 m 1,0,1
 593 489 593 489 533.5 496.5 c 128,-1,2
 474 504 474 504 432 502 c 0,3,4
 377 502 377 502 344.5 523.5 c 128,-1,5
 312 545 312 545 310 598 c 2,6,-1
 310 638 l 2,7,8
 310 672 310 672 334 696.5 c 128,-1,9
 358 721 358 721 393 721 c 2,10,-1
 530 721 l 2,11,12
 570 721 570 721 599 692.5 c 128,-1,13
 628 664 628 664 628 623 c 2,14,-1
 628 464 l 1,15,-1
 628 464 l 1,0,1
439 838 m 1,16,17
 357 838 357 838 308 820 c 0,18,19
 258 802 258 802 230.5 772 c 128,-1,20
 203 742 203 742 194 702 c 256,21,22
 185 662 185 662 185 617 c 2,23,-1
 185 545 l 1,24,25
 189 471 189 471 247 418.5 c 128,-1,26
 305 366 305 366 375 355 c 1,27,-1
 489 354 l 2,28,29
 520 352 520 352 551.5 340 c 128,-1,30
 583 328 583 328 604 302 c 0,31,32
 630 268 630 268 623 231.5 c 128,-1,33
 616 195 616 195 565 198 c 2,34,-1
 184 198 l 1,35,-1
 184 58 l 1,36,-1
 613 58 l 2,37,38
 713 57 713 57 774 107.5 c 128,-1,39
 835 158 835 158 837 263 c 2,40,-1
 840 657 l 2,41,42
 840 694 840 694 821 727 c 256,43,44
 802 760 802 760 768.5 784.5 c 128,-1,45
 735 809 735 809 687 824 c 0,46,47
 640 838 640 838 583 838 c 2,48,-1
 439 838 l 1,49,-1
 439 838 l 1,16,17
EndSplineSet
EndChar

StartChar: uni00AD
Encoding: 173 173 116
Width: 1024
Flags: W
LayerCount: 2
Fore
SplineSet
690 835 m 1,0,-1
 690 567 l 1,1,-1
 690 567 l 1,2,3
 690 540 690 540 666.5 530 c 128,-1,4
 643 520 643 520 621 519 c 2,5,-1
 601 519 l 2,6,7
 585 520 585 520 568 529.5 c 128,-1,8
 551 539 551 539 549 563 c 2,9,-1
 549 835 l 1,10,-1
 418 835 l 1,11,-1
 418 565 l 2,12,13
 417 539 417 539 394 529.5 c 128,-1,14
 371 520 371 520 349 519 c 2,15,-1
 329 519 l 2,16,17
 314 520 314 520 296.5 529.5 c 128,-1,18
 279 539 279 539 277 563 c 2,19,-1
 277 835 l 1,20,-1
 146 835 l 1,21,-1
 146 530 l 1,22,23
 153 460 153 460 206 432.5 c 128,-1,24
 259 405 259 405 307 403 c 2,25,-1
 362 403 l 2,26,27
 392 403 392 403 426 408.5 c 128,-1,28
 460 414 460 414 490 426 c 1,29,30
 511 415 511 415 534.5 409.5 c 128,-1,31
 558 404 558 404 578 403 c 2,32,-1
 633 403 l 2,33,34
 647 403 647 403 661.5 404 c 128,-1,35
 676 405 676 405 690 407 c 1,36,-1
 690 219 l 2,37,38
 688 190 688 190 667 178.5 c 128,-1,39
 646 167 646 167 628 166 c 2,40,-1
 610 166 l 2,41,42
 594 166 594 166 576.5 174 c 128,-1,43
 559 182 559 182 552 202 c 1,44,-1
 387 202 l 1,45,46
 400 122 400 122 465.5 92 c 128,-1,47
 531 62 531 62 592 61 c 2,48,-1
 656 61 l 2,49,50
 689 62 689 62 726 71 c 0,51,52
 763 79 763 79 795 97.5 c 128,-1,53
 827 116 827 116 850 145 c 256,54,55
 873 174 873 174 878 216 c 1,56,-1
 878 835 l 1,57,-1
 690 835 l 1,58,-1
 690 835 l 1,0,-1
EndSplineSet
EndChar

StartChar: registered
Encoding: 174 174 117
Width: 1024
Flags: W
LayerCount: 2
Fore
SplineSet
614 85 m 1,0,1
 715 85 715 85 776 135.5 c 128,-1,2
 837 186 837 186 838 290 c 2,3,-1
 838 811 l 1,4,-1
 629 811 l 1,5,-1
 629 435 l 1,6,7
 594 460 594 460 550.5 467 c 128,-1,8
 507 474 507 474 466 472 c 0,9,10
 411 473 411 473 378 511.5 c 128,-1,11
 345 550 345 550 343 602 c 2,12,-1
 343 811 l 1,13,-1
 186 811 l 1,14,-1
 186 572 l 1,15,16
 190 498 190 498 248 445.5 c 128,-1,17
 306 393 306 393 376 382 c 1,18,-1
 490 381 l 2,19,20
 522 380 522 380 553.5 367.5 c 128,-1,21
 585 355 585 355 605 329 c 0,22,23
 631 296 631 296 624 259.5 c 128,-1,24
 617 223 617 223 566 225 c 2,25,-1
 186 225 l 1,26,-1
 186 85 l 1,27,-1
 614 85 l 1,28,-1
 614 85 l 1,0,1
EndSplineSet
EndChar

StartChar: macron
Encoding: 175 175 118
Width: 1024
Flags: W
LayerCount: 2
Fore
SplineSet
709 179 m 1,0,1
 668 182 668 182 615 189 c 0,2,3
 561 195 561 195 512 211 c 128,-1,4
 463 227 463 227 426 258 c 0,5,6
 390 288 390 288 384 341 c 1,7,-1
 384 811 l 1,8,-1
 175 811 l 1,9,-1
 175 311 l 1,10,11
 181 221 181 221 236 175 c 0,12,13
 290 128 290 128 366.5 108 c 128,-1,14
 443 88 443 88 528 86 c 0,15,16
 613 85 613 85 679 86 c 2,17,-1
 849 91 l 1,18,-1
 849 811 l 1,19,-1
 709 811 l 1,20,-1
 709 179 l 1,21,-1
 709 179 l 1,0,1
EndSplineSet
EndChar

StartChar: degree
Encoding: 176 176 119
Width: 1024
Flags: W
LayerCount: 2
Fore
SplineSet
419 647 m 1,0,1
 420 649 420 649 421.5 652 c 128,-1,2
 423 655 423 655 424 657 c 0,3,4
 432 671 432 671 445.5 682 c 128,-1,5
 459 693 459 693 474 700 c 0,6,7
 506 714 506 714 541.5 717 c 128,-1,8
 577 720 577 720 611 716 c 0,9,10
 654 712 654 712 688 682.5 c 128,-1,11
 722 653 722 653 727 609 c 1,12,-1
 840 609 l 1,13,14
 844 655 844 655 829 692 c 256,15,16
 814 729 814 729 786 755 c 128,-1,17
 758 781 758 781 720 795 c 0,18,19
 681 810 681 810 638 811 c 2,20,-1
 387 810 l 2,21,22
 349 810 349 810 307.5 789 c 128,-1,23
 266 768 266 768 242 739 c 0,24,25
 211 702 211 702 207 657.5 c 128,-1,26
 203 613 203 613 207 567 c 0,27,28
 211 516 211 516 223 465 c 256,29,30
 235 414 235 414 256.5 367 c 128,-1,31
 278 320 278 320 309 278 c 0,32,33
 340 237 340 237 381 204 c 0,34,35
 386 200 386 200 391 196.5 c 128,-1,36
 396 193 396 193 401 189 c 1,37,-1
 183 189 l 1,38,-1
 183 85 l 1,39,-1
 840 85 l 1,40,-1
 840 189 l 1,41,-1
 633 189 l 2,42,43
 627 189 627 189 614.5 203.5 c 128,-1,44
 602 218 602 218 597 222 c 0,45,46
 588 231 588 231 579 239.5 c 128,-1,47
 570 248 570 248 561 258 c 0,48,49
 544 276 544 276 528 294.5 c 128,-1,50
 512 313 512 313 497 334 c 0,51,52
 469 372 469 372 448 416 c 128,-1,53
 427 460 427 460 418 507 c 0,54,55
 414 527 414 527 412.5 547.5 c 128,-1,56
 411 568 411 568 412 588 c 0,57,58
 412 602 412 602 413 617.5 c 128,-1,59
 414 633 414 633 419 647 c 1,60,-1
 419 647 l 1,0,1
EndSplineSet
EndChar

StartChar: plusminus
Encoding: 177 177 120
Width: 1024
Flags: W
LayerCount: 2
Fore
SplineSet
399 832 m 1,0,-1
 399 583 l 1,1,2
 399 583 399 583 443 582 c 0,3,4
 488 582 488 582 541 581 c 128,-1,5
 594 580 594 580 638 580 c 0,6,7
 682 579 682 579 682 579 c 1,8,9
 746 566 746 566 781.5 520.5 c 128,-1,10
 817 475 817 475 822 411 c 1,11,-1
 821 208 l 1,12,13
 815 143 815 143 758 105.5 c 128,-1,14
 701 68 701 68 641 64 c 1,15,-1
 416 64 l 2,16,17
 334 67 334 67 273.5 116.5 c 128,-1,18
 213 166 213 166 222 255 c 1,19,-1
 330 255 l 1,20,21
 329 202 329 202 375.5 182 c 128,-1,22
 422 162 422 162 466 162 c 2,23,-1
 488 162 l 2,24,25
 528 163 528 163 573 181.5 c 128,-1,26
 618 200 618 200 624 246 c 1,27,-1
 624 428 l 2,28,29
 621 460 621 460 590.5 473 c 128,-1,30
 560 486 560 486 533 485 c 0,31,32
 493 485 493 485 451 485 c 256,33,34
 409 485 409 485 367 484.5 c 128,-1,35
 325 484 325 484 283 484 c 256,36,37
 241 484 241 484 202 484 c 1,38,-1
 202 832 l 1,39,-1
 399 832 l 1,0,-1
EndSplineSet
EndChar

StartChar: uni00B2
Encoding: 178 178 121
Width: 1024
Flags: W
LayerCount: 2
Fore
SplineSet
812 615 m 1,0,1
 810 647 810 647 793 680 c 0,2,3
 777 712 777 712 752 739.5 c 128,-1,4
 727 767 727 767 697 785 c 0,5,6
 666 803 666 803 637 807 c 1,7,-1
 387 807 l 1,8,9
 329 800 329 800 273.5 751 c 128,-1,10
 218 702 218 702 213 619 c 2,11,-1
 212 590 l 1,12,-1
 323 590 l 1,13,14
 326 630 326 630 361 668.5 c 128,-1,15
 396 707 396 707 451 707 c 2,16,-1
 502 707 l 1,17,18
 469 676 469 676 448 620.5 c 128,-1,19
 427 565 427 565 427 498 c 0,20,21
 427 448 427 448 439 403.5 c 128,-1,22
 451 359 451 359 472 327 c 1,23,-1
 446 327 l 2,24,25
 421 327 421 327 402.5 332.5 c 128,-1,26
 384 338 384 338 368 355 c 1,27,-1
 368 355 l 1,28,29
 376 369 376 369 379 385.5 c 128,-1,30
 382 402 382 402 377 421 c 0,31,32
 371 443 371 443 353.5 459.5 c 128,-1,33
 336 476 336 476 312 481 c 0,34,35
 272 488 272 488 242 462.5 c 128,-1,36
 212 437 212 437 212 398 c 0,37,38
 215 311 215 311 267.5 252 c 128,-1,39
 320 193 320 193 414 193 c 2,40,-1
 610 193 l 2,41,42
 653 193 653 193 689 209 c 256,43,44
 725 225 725 225 752 252.5 c 128,-1,45
 779 280 779 280 795 317 c 0,46,47
 810 355 810 355 812 398 c 2,48,-1
 812 615 l 1,49,-1
 812 615 l 1,0,1
610 610 m 2,50,-1
 610 424 l 2,51,52
 610 397 610 397 601 374.5 c 128,-1,53
 592 352 592 352 571 340 c 1,54,55
 553 368 553 368 542 407 c 128,-1,56
 531 446 531 446 531 491 c 0,57,58
 531 549 531 549 548 596 c 128,-1,59
 565 643 565 643 593 669 c 1,60,61
 602 657 602 657 606 642 c 128,-1,62
 610 627 610 627 610 610 c 2,50,-1
EndSplineSet
EndChar

StartChar: uni00B3
Encoding: 179 179 122
Width: 1024
Flags: W
LayerCount: 2
Fore
SplineSet
638 807 m 1,0,-1
 591 807 l 2,1,2
 574 807 574 807 561.5 794 c 128,-1,3
 549 781 549 781 549 764 c 2,4,-1
 549 691 l 2,5,6
 549 680 549 680 554.5 670.5 c 128,-1,7
 560 661 560 661 569 654 c 0,8,9
 584 644 584 644 594.5 626.5 c 128,-1,10
 605 609 605 609 608 581 c 2,11,-1
 608 553 l 1,12,13
 585 531 585 531 550.5 518 c 128,-1,14
 516 505 516 505 475 505 c 0,15,16
 427 505 427 505 388 522.5 c 128,-1,17
 349 540 349 540 328 568 c 1,18,-1
 328 573 l 2,19,20
 328 598 328 598 333.5 616 c 128,-1,21
 339 634 339 634 356 651 c 1,22,-1
 356 651 l 1,23,24
 366 646 366 646 377 642.5 c 128,-1,25
 388 639 388 639 400 639 c 0,26,27
 435 639 435 639 459.5 663.5 c 128,-1,28
 484 688 484 688 484 723 c 0,29,30
 484 757 484 757 459.5 782 c 128,-1,31
 435 807 435 807 400 807 c 0,32,33
 313 804 313 804 254 751.5 c 128,-1,34
 195 699 195 699 195 605 c 2,35,-1
 195 409 l 2,36,37
 195 366 195 366 210 330 c 0,38,39
 226 294 226 294 253.5 267 c 128,-1,40
 281 240 281 240 319 224 c 0,41,42
 356 208 356 208 400 207 c 2,43,-1
 638 207 l 1,44,45
 702 211 702 211 762.5 251 c 128,-1,46
 823 291 823 291 829 359 c 1,47,-1
 829 654 l 1,48,49
 823 723 823 723 762.5 763 c 128,-1,50
 702 803 702 803 638 807 c 1,51,-1
 638 807 l 1,0,-1
510 311 m 1,52,-1
 425 311 l 2,53,54
 384 311 384 311 356 332 c 128,-1,55
 328 353 328 353 328 409 c 2,56,-1
 328 446 l 1,57,58
 355 426 355 426 391 413.5 c 128,-1,59
 427 401 427 401 469 401 c 0,60,61
 510 401 510 401 545.5 413 c 128,-1,62
 581 425 581 425 608 445 c 1,63,-1
 608 400 l 1,64,65
 602 351 602 351 575 331.5 c 128,-1,66
 548 312 548 312 510 311 c 1,67,-1
 510 311 l 1,52,-1
EndSplineSet
EndChar

StartChar: acute
Encoding: 180 180 123
Width: 1024
Flags: W
LayerCount: 2
Fore
SplineSet
582 633 m 1,0,1
 590 625 590 625 596.5 615 c 128,-1,2
 603 605 603 605 606 593 c 1,3,-1
 829 593 l 1,4,-1
 829 654 l 1,5,6
 823 723 823 723 762.5 763 c 128,-1,7
 702 803 702 803 638 807 c 1,8,-1
 400 807 l 2,9,10
 356 805 356 805 319 790 c 0,11,12
 281 774 281 774 253.5 747 c 128,-1,13
 226 720 226 720 210 684 c 0,14,15
 195 647 195 647 195 605 c 2,16,-1
 195 393 l 2,17,18
 195 299 195 299 254 246.5 c 128,-1,19
 313 194 313 194 400 191 c 2,20,-1
 638 191 l 1,21,22
 702 195 702 195 762.5 235 c 128,-1,23
 823 275 823 275 829 343 c 1,24,-1
 829 402 l 1,25,-1
 608 402 l 1,26,-1
 608 400 l 2,27,28
 606 384 606 384 599.5 371.5 c 128,-1,29
 593 359 593 359 583 349 c 1,30,31
 567 376 567 376 557.5 413 c 128,-1,32
 548 450 548 450 548 492 c 0,33,34
 548 533 548 533 557 569.5 c 128,-1,35
 566 606 566 606 582 633 c 1,36,-1
 582 633 l 1,0,1
478 311 m 1,37,-1
 457 311 l 2,38,39
 416 311 416 311 372 332 c 128,-1,40
 328 353 328 353 328 409 c 2,41,-1
 328 573 l 2,42,43
 328 629 328 629 372 649.5 c 128,-1,44
 416 670 416 670 457 671 c 2,45,-1
 478 671 l 2,46,47
 481 671 481 671 483.5 671 c 128,-1,48
 486 671 486 671 489 670 c 1,49,50
 468 638 468 638 456 593.5 c 128,-1,51
 444 549 444 549 444 499 c 0,52,53
 444 442 444 442 459 394 c 128,-1,54
 474 346 474 346 499 313 c 1,55,56
 494 312 494 312 488.5 311.5 c 128,-1,57
 483 311 483 311 478 311 c 1,58,-1
 478 311 l 1,37,-1
EndSplineSet
EndChar

StartChar: mu
Encoding: 181 181 124
Width: 1024
Flags: W
LayerCount: 2
Fore
SplineSet
638 753 m 1,0,-1
 400 753 l 2,1,2
 313 751 313 751 254 701 c 128,-1,3
 195 651 195 651 195 576 c 2,4,-1
 195 320 l 2,5,6
 195 237 195 237 254 191 c 128,-1,7
 313 145 313 145 400 143 c 2,8,-1
 638 143 l 2,9,10
 702 146 702 146 762.5 181 c 128,-1,11
 823 216 823 216 829 276 c 1,12,-1
 829 620 l 1,13,14
 823 680 823 680 762.5 715 c 128,-1,15
 702 750 702 750 638 753 c 1,16,-1
 638 753 l 1,0,-1
608 312 m 1,17,18
 602 269 602 269 559 252 c 128,-1,19
 516 235 516 235 478 234 c 2,20,-1
 457 234 l 2,21,22
 416 234 416 234 372 252.5 c 128,-1,23
 328 271 328 271 328 320 c 2,24,-1
 328 370 l 1,25,26
 357 380 357 380 376 405.5 c 128,-1,27
 395 431 395 431 395 464 c 256,28,29
 395 497 395 497 376 522.5 c 128,-1,30
 357 548 357 548 328 558 c 1,31,-1
 328 576 l 2,32,33
 328 625 328 625 372 643.5 c 128,-1,34
 416 662 416 662 457 662 c 2,35,-1
 478 662 l 2,36,37
 516 661 516 661 559 644 c 128,-1,38
 602 627 602 627 608 584 c 1,39,-1
 608 312 l 1,40,-1
 608 312 l 1,17,18
EndSplineSet
EndChar

StartChar: paragraph
Encoding: 182 182 125
Width: 1024
Flags: W
LayerCount: 2
Fore
SplineSet
704 814 m 1,0,-1
 497 814 l 2,1,2
 422 811 422 811 370.5 762 c 128,-1,3
 319 713 319 713 319 638 c 2,4,-1
 319 385 l 2,5,6
 319 303 319 303 370.5 257.5 c 128,-1,7
 422 212 422 212 497 210 c 1,8,9
 497 210 497 210 527.5 207.5 c 128,-1,10
 558 205 558 205 599 205 c 0,11,12
 639 205 639 205 671.5 207.5 c 128,-1,13
 704 210 704 210 704 210 c 2,14,15
 759 213 759 213 812 247.5 c 128,-1,16
 865 282 865 282 870 342 c 1,17,-1
 870 682 l 1,18,19
 865 741 865 741 812 775.5 c 128,-1,20
 759 810 759 810 704 814 c 1,21,-1
 704 814 l 1,0,-1
678 378 m 1,22,23
 673 335 673 335 635.5 318 c 128,-1,24
 598 301 598 301 565 300 c 2,25,-1
 547 300 l 2,26,27
 511 300 511 300 473 318 c 128,-1,28
 435 336 435 336 435 385 c 2,29,-1
 435 444 l 1,30,31
 460 453 460 453 476 475 c 128,-1,32
 492 497 492 497 492 526 c 0,33,34
 492 554 492 554 476 576 c 128,-1,35
 460 598 460 598 435 607 c 1,36,-1
 435 638 l 2,37,38
 435 687 435 687 473 705 c 128,-1,39
 511 723 511 723 547 723 c 2,40,-1
 565 724 l 2,41,42
 598 722 598 722 635.5 705 c 128,-1,43
 673 688 673 688 678 646 c 1,44,-1
 678 378 l 1,22,23
349 192 m 1,45,-1
 765 192 l 1,46,-1
 765 82 l 1,47,-1
 318 82 l 1,48,49
 277 86 277 86 247 112 c 0,50,51
 216 138 216 138 195.5 174.5 c 128,-1,52
 175 211 175 211 164 254 c 0,53,54
 154 297 154 297 154 335 c 2,55,-1
 154 506 l 1,56,-1
 243 506 l 1,57,-1
 243 335 l 2,58,59
 242 285 242 285 268 241.5 c 128,-1,60
 294 198 294 198 349 192 c 1,45,-1
EndSplineSet
EndChar

StartChar: periodcentered
Encoding: 183 183 126
Width: 1024
Flags: W
LayerCount: 2
Fore
SplineSet
638 148 m 1,0,-1
 400 148 l 2,1,2
 356 150 356 150 319 165 c 0,3,4
 281 181 281 181 253.5 208 c 128,-1,5
 226 235 226 235 210 271 c 0,6,7
 195 307 195 307 195 350 c 2,8,-1
 195 546 l 2,9,10
 195 640 195 640 254 692.5 c 128,-1,11
 313 745 313 745 400 748 c 0,12,13
 435 748 435 748 459.5 723.5 c 128,-1,14
 484 699 484 699 484 664 c 256,15,16
 484 629 484 629 459.5 604.5 c 128,-1,17
 435 580 435 580 400 580 c 0,18,19
 388 580 388 580 377 583.5 c 128,-1,20
 366 587 366 587 356 592 c 1,21,-1
 356 592 l 1,22,23
 339 576 339 576 333.5 557.5 c 128,-1,24
 328 539 328 539 328 514 c 2,25,-1
 328 350 l 2,26,27
 328 294 328 294 356 273 c 128,-1,28
 384 252 384 252 425 252 c 2,29,-1
 510 252 l 2,30,31
 548 254 548 254 575 273.5 c 128,-1,32
 602 293 602 293 608 342 c 1,33,-1
 608 522 l 2,34,35
 605 550 605 550 594.5 567.5 c 128,-1,36
 584 585 584 585 569 596 c 0,37,38
 560 602 560 602 554.5 611.5 c 128,-1,39
 549 621 549 621 549 632 c 2,40,-1
 549 705 l 2,41,42
 549 723 549 723 561.5 735.5 c 128,-1,43
 574 748 574 748 591 748 c 2,44,-1
 638 748 l 1,45,46
 702 744 702 744 762.5 704 c 128,-1,47
 823 664 823 664 829 596 c 1,48,-1
 829 300 l 1,49,50
 823 232 823 232 762.5 192 c 128,-1,51
 702 152 702 152 638 148 c 1,0,-1
EndSplineSet
EndChar

StartChar: cedilla
Encoding: 184 184 127
Width: 1024
Flags: W
LayerCount: 2
Fore
SplineSet
670 748 m 1,0,-1
 368 748 l 2,1,2
 324 746 324 746 287 731 c 0,3,4
 249 715 249 715 221.5 688 c 128,-1,5
 194 661 194 661 178 625 c 0,6,7
 163 589 163 589 163 546 c 2,8,-1
 163 350 l 2,9,10
 163 256 163 256 222 203.5 c 128,-1,11
 281 151 281 151 368 148 c 0,12,13
 406 148 406 148 432 178 c 128,-1,14
 458 208 458 208 450 248 c 0,15,16
 446 272 446 272 429.5 289.5 c 128,-1,17
 413 307 413 307 390 313 c 0,18,19
 372 318 372 318 355 315 c 128,-1,20
 338 312 338 312 324 304 c 1,21,-1
 324 304 l 1,22,23
 307 320 307 320 301.5 338.5 c 128,-1,24
 296 357 296 357 296 382 c 2,25,-1
 296 530 l 2,26,27
 296 586 296 586 324 607 c 128,-1,28
 352 628 352 628 393 628 c 2,29,-1
 444 628 l 1,30,31
 451 618 451 618 462 595.5 c 128,-1,32
 473 573 473 573 473 544 c 0,33,34
 473 517 473 517 461 495.5 c 128,-1,35
 449 474 449 474 435 461 c 0,36,37
 426 453 426 453 420.5 441.5 c 128,-1,38
 415 430 415 430 415 417 c 2,39,-1
 415 410 l 2,40,41
 415 386 415 386 431.5 369.5 c 128,-1,42
 448 353 448 353 472 353 c 2,43,-1
 483 353 l 2,44,45
 534 353 534 353 562 401.5 c 128,-1,46
 590 450 590 450 590 511 c 0,47,48
 590 551 590 551 580.5 580 c 128,-1,49
 571 609 571 609 558 628 c 1,50,-1
 590 628 l 2,51,52
 628 626 628 626 655 606.5 c 128,-1,53
 682 587 682 587 688 538 c 1,54,-1
 688 374 l 1,55,56
 684 338 684 338 668 318.5 c 128,-1,57
 652 299 652 299 629 291 c 1,58,-1
 629 148 l 1,59,-1
 718 148 l 1,60,61
 782 152 782 152 818.5 192 c 128,-1,62
 855 232 855 232 861 300 c 1,63,-1
 861 596 l 1,64,65
 855 664 855 664 794.5 704 c 128,-1,66
 734 744 734 744 670 748 c 1,67,-1
 670 748 l 1,0,-1
EndSplineSet
EndChar

StartChar: uni00B9
Encoding: 185 185 128
Width: 1024
Flags: W
LayerCount: 2
Fore
SplineSet
638 748 m 1,0,-1
 400 748 l 2,1,2
 356 746 356 746 319 731 c 0,3,4
 281 715 281 715 253.5 688 c 128,-1,5
 226 661 226 661 210 625 c 0,6,7
 195 589 195 589 195 546 c 2,8,-1
 195 350 l 2,9,10
 195 256 195 256 254 203.5 c 128,-1,11
 313 151 313 151 400 148 c 0,12,13
 435 148 435 148 459.5 172.5 c 128,-1,14
 484 197 484 197 484 232 c 256,15,16
 484 267 484 267 459.5 291.5 c 128,-1,17
 435 316 435 316 400 316 c 0,18,19
 388 316 388 316 377 312.5 c 128,-1,20
 366 309 366 309 356 304 c 1,21,-1
 356 304 l 1,22,23
 339 320 339 320 333.5 338.5 c 128,-1,24
 328 357 328 357 328 382 c 2,25,-1
 328 546 l 2,26,27
 328 602 328 602 356 623 c 128,-1,28
 384 644 384 644 425 644 c 2,29,-1
 510 644 l 2,30,31
 548 642 548 642 575 622.5 c 128,-1,32
 602 603 602 603 608 554 c 1,33,-1
 608 374 l 2,34,35
 605 346 605 346 594.5 328.5 c 128,-1,36
 584 311 584 311 569 300 c 0,37,38
 560 294 560 294 554.5 284.5 c 128,-1,39
 549 275 549 275 549 264 c 2,40,-1
 549 191 l 2,41,42
 549 173 549 173 561.5 160.5 c 128,-1,43
 574 148 574 148 591 148 c 2,44,-1
 638 148 l 1,45,46
 702 152 702 152 762.5 192 c 128,-1,47
 823 232 823 232 829 300 c 1,48,-1
 829 596 l 1,49,50
 823 664 823 664 762.5 704 c 128,-1,51
 702 744 702 744 638 748 c 1,0,-1
EndSplineSet
EndChar

StartChar: ordmasculine
Encoding: 186 186 129
Width: 1024
Flags: W
LayerCount: 2
Fore
SplineSet
778 54 m 1,0,-1
 778 225 l 1,1,2
 791 241 791 241 799.5 260 c 128,-1,3
 808 279 808 279 810 300 c 2,4,-1
 810 596 l 1,5,6
 803 664 803 664 742.5 704 c 128,-1,7
 682 744 682 744 618 748 c 1,8,-1
 380 748 l 2,9,10
 336 746 336 746 299 731 c 0,11,12
 261 715 261 715 233.5 688 c 128,-1,13
 206 661 206 661 190 625 c 0,14,15
 175 589 175 589 175 546 c 2,16,-1
 175 350 l 2,17,18
 175 256 175 256 234 203.5 c 128,-1,19
 293 151 293 151 380 148 c 0,20,21
 427 148 427 148 453 191.5 c 128,-1,22
 479 235 479 235 448 285 c 0,23,24
 445 288 445 288 442.5 291 c 128,-1,25
 440 294 440 294 437 296 c 0,26,27
 409 316 409 316 383 316 c 128,-1,28
 357 316 357 316 336 304 c 1,29,-1
 336 304 l 1,30,31
 319 320 319 320 313.5 338.5 c 128,-1,32
 308 357 308 357 308 382 c 2,33,-1
 308 546 l 2,34,35
 308 602 308 602 336 623 c 128,-1,36
 364 644 364 644 406 644 c 2,37,-1
 491 644 l 2,38,39
 529 642 529 642 555.5 622.5 c 128,-1,40
 582 603 582 603 588 554 c 1,41,-1
 588 374 l 1,42,43
 584 338 584 338 568 318.5 c 128,-1,44
 552 299 552 299 529 290 c 1,45,-1
 529 6 l 1,46,-1
 849 6 l 1,47,-1
 849 54 l 1,48,-1
 778 54 l 1,49,-1
 778 54 l 1,0,-1
659 54 m 1,50,-1
 659 155 l 1,51,52
 670 157 670 157 680.5 160.5 c 128,-1,53
 691 164 691 164 701 168 c 1,54,-1
 701 54 l 1,55,-1
 659 54 l 1,50,-1
EndSplineSet
EndChar

StartChar: guillemotright
Encoding: 187 187 130
Width: 1024
Flags: W
LayerCount: 2
Fore
SplineSet
765 388 m 1,0,1
 765 441 765 441 760 504 c 128,-1,2
 755 567 755 567 700 596 c 0,3,4
 693 603 693 603 651 605 c 128,-1,5
 609 607 609 607 556 607 c 1,6,7
 560 680 560 680 549 750 c 128,-1,8
 538 820 538 820 470 823 c 2,9,-1
 341 823 l 1,10,11
 275 828 275 828 267 781.5 c 128,-1,12
 259 735 259 735 259 687 c 0,13,14
 259 591 259 591 284.5 541.5 c 128,-1,15
 310 492 310 492 419 499 c 1,16,-1
 450 499 l 1,17,18
 446 491 446 491 441.5 483 c 128,-1,19
 437 475 437 475 432 465 c 0,20,21
 413 420 413 420 418.5 375 c 128,-1,22
 424 330 424 330 461 315 c 2,23,-1
 470 311 l 2,24,25
 488 303 488 303 505.5 310.5 c 128,-1,26
 523 318 523 318 531 335 c 2,27,-1
 533 340 l 2,28,29
 537 350 537 350 536.5 360 c 128,-1,30
 536 370 536 370 531 380 c 0,31,32
 525 393 525 393 523 413 c 128,-1,33
 521 433 521 433 530 453 c 0,34,35
 537 470 537 470 548 481 c 128,-1,36
 559 492 559 492 568 499 c 1,37,38
 612 499 612 499 641.5 478.5 c 128,-1,39
 671 458 671 458 668 340 c 1,40,41
 672 208 672 208 635 195 c 128,-1,42
 598 182 598 182 547 181 c 2,43,-1
 366 181 l 1,44,-1
 366 146 l 2,45,46
 366 116 366 116 387 95 c 128,-1,47
 408 74 408 74 438 74 c 0,48,49
 473 73 473 73 516 73 c 0,50,51
 560 72 560 72 598.5 73 c 128,-1,52
 637 74 637 74 666 76 c 0,53,54
 694 79 694 79 700 84 c 0,55,56
 755 113 755 113 760 176 c 128,-1,57
 765 239 765 239 765 292 c 2,58,-1
 765 388 l 1,59,-1
 765 388 l 1,0,1
362 652 m 1,60,-1
 361 706 l 2,61,62
 360 722 360 722 366.5 730.5 c 128,-1,63
 373 739 373 739 390 740 c 2,64,-1
 406 740 l 2,65,66
 419 741 419 741 431 734.5 c 128,-1,67
 443 728 443 728 445 714 c 2,68,-1
 445 622 l 1,69,70
 425 624 425 624 394.5 623 c 128,-1,71
 364 622 364 622 362 652 c 1,72,-1
 362 652 l 1,60,-1
EndSplineSet
EndChar

StartChar: onequarter
Encoding: 188 188 131
Width: 1024
Flags: W
LayerCount: 2
Fore
SplineSet
608 264 m 1,0,-1
 508 264 l 1,1,-1
 508 477 l 1,2,3
 595 476 595 476 641.5 501.5 c 128,-1,4
 688 527 688 527 698 621 c 0,5,6
 699 661 699 661 700 706 c 128,-1,7
 701 751 701 751 680 787 c 0,8,9
 668 804 668 804 645.5 807 c 128,-1,10
 623 810 623 810 604 811 c 2,11,-1
 418 811 l 2,12,13
 379 810 379 810 354.5 778 c 128,-1,14
 330 746 330 746 330 710 c 2,15,-1
 330 603 l 1,16,-1
 174 603 l 1,17,-1
 174 477 l 1,18,-1
 330 477 l 1,19,-1
 330 313 l 2,20,21
 330 272 330 272 294.5 269 c 128,-1,22
 259 266 259 266 231 264 c 1,23,-1
 231 137 l 1,24,-1
 562 137 l 1,25,-1
 544 85 l 1,26,-1
 722 85 l 1,27,-1
 850 440 l 1,28,-1
 672 440 l 1,29,-1
 608 264 l 1,30,-1
 608 264 l 1,0,-1
508 698 m 2,31,32
 510 713 510 713 523 719.5 c 128,-1,33
 536 726 536 726 549 726 c 0,34,35
 561 726 561 726 576.5 723.5 c 128,-1,36
 592 721 592 721 594 705 c 0,37,38
 594 638 594 638 589 619.5 c 128,-1,39
 584 601 584 601 508 603 c 1,40,-1
 508 698 l 2,31,32
EndSplineSet
EndChar

StartChar: onehalf
Encoding: 189 189 132
Width: 1024
Flags: W
LayerCount: 2
Fore
SplineSet
643 300 m 1,0,1
 648 221 648 221 614 217.5 c 128,-1,2
 580 214 580 214 519 212 c 1,3,-1
 519 477 l 1,4,5
 632 470 632 470 658.5 521 c 128,-1,6
 685 572 685 572 685 670 c 0,7,8
 685 720 685 720 676.5 768 c 128,-1,9
 668 816 668 816 600 811 c 1,10,-1
 466 811 l 2,11,12
 416 809 416 809 398 769 c 0,13,14
 379 730 379 730 376.5 677.5 c 128,-1,15
 374 625 374 625 379 571 c 0,16,17
 384 518 384 518 379 488 c 1,18,-1
 266 488 l 1,19,-1
 266 309 l 1,20,-1
 379 309 l 1,21,-1
 379 86 l 1,22,23
 392 87 392 87 437 86 c 256,24,25
 482 85 482 85 533.5 85 c 128,-1,26
 585 85 585 85 628 87 c 0,27,28
 672 89 672 89 681 98 c 0,29,30
 745 132 745 132 751.5 206.5 c 128,-1,31
 758 281 758 281 757 343 c 1,32,-1
 643 343 l 1,33,-1
 643 300 l 1,34,-1
 643 300 l 1,0,1
493 698 m 1,35,36
 495 713 495 713 507.5 719.5 c 128,-1,37
 520 726 520 726 533 726 c 2,38,-1
 549 726 l 2,39,40
 567 725 567 725 573.5 716 c 128,-1,41
 580 707 580 707 579 690 c 2,42,-1
 578 635 l 2,43,44
 577 604 577 604 545 605 c 128,-1,45
 513 606 513 606 493 604 c 1,46,-1
 493 698 l 1,47,-1
 493 698 l 1,35,36
EndSplineSet
EndChar

StartChar: threequarters
Encoding: 190 190 133
Width: 1024
Flags: W
LayerCount: 2
Fore
SplineSet
739 404 m 1,0,-1
 564 404 l 1,1,-1
 564 477 l 1,2,3
 647 475 647 475 668 532 c 128,-1,4
 689 589 689 589 689 656 c 2,5,-1
 689 692 l 2,6,7
 687 743 687 743 677 777.5 c 128,-1,8
 667 812 667 812 603 811 c 2,9,-1
 470 811 l 2,10,11
 432 810 432 810 407.5 778 c 128,-1,12
 383 746 383 746 383 710 c 2,13,-1
 383 603 l 1,14,15
 363 603 363 603 339.5 605 c 128,-1,16
 316 607 316 607 304 625 c 0,17,18
 284 663 284 663 286 715.5 c 128,-1,19
 288 768 288 768 285 811 c 1,20,-1
 171 811 l 1,21,22
 174 739 174 739 171 676 c 0,23,24
 167 614 167 614 181.5 569 c 128,-1,25
 196 524 196 524 240 499 c 0,26,27
 285 474 285 474 383 477 c 1,28,-1
 383 268 l 2,29,30
 385 221 385 221 350.5 218 c 128,-1,31
 316 215 316 215 283 212 c 1,32,-1
 283 85 l 1,33,-1
 733 85 l 2,34,35
 791 88 791 88 821.5 138.5 c 128,-1,36
 852 189 852 189 853 241 c 2,37,-1
 853 525 l 1,38,-1
 739 525 l 1,39,-1
 739 404 l 1,40,-1
 739 404 l 1,0,-1
538 603 m 1,41,-1
 499 603 l 1,42,-1
 499 706 l 1,43,44
 503 717 503 717 514.5 721.5 c 128,-1,45
 526 726 526 726 536 726 c 2,46,-1
 553 726 l 2,47,48
 581 727 581 727 582 702.5 c 128,-1,49
 583 678 583 678 583 660 c 0,50,51
 583 634 583 634 576 618.5 c 128,-1,52
 569 603 569 603 538 603 c 1,53,-1
 538 603 l 1,41,-1
744 276 m 1,54,55
 743 260 743 260 737 242 c 128,-1,56
 731 224 731 224 714 218 c 0,57,58
 695 210 695 210 638.5 211.5 c 128,-1,59
 582 213 582 213 561 212 c 1,60,-1
 561 320 l 1,61,-1
 744 320 l 1,62,-1
 744 276 l 1,63,-1
 744 276 l 1,54,55
EndSplineSet
EndChar

StartChar: questiondown
Encoding: 191 191 134
Width: 1024
Flags: W
LayerCount: 2
Fore
SplineSet
775 343 m 1,0,-1
 775 404 l 1,1,-1
 488 404 l 1,2,-1
 488 477 l 1,3,4
 601 470 601 470 627.5 521 c 128,-1,5
 654 572 654 572 654 671 c 0,6,7
 654 720 654 720 645.5 768 c 128,-1,8
 637 816 637 816 569 811 c 1,9,-1
 436 811 l 2,10,11
 385 809 385 809 367 769 c 0,12,13
 349 730 349 730 346.5 677.5 c 128,-1,14
 344 625 344 625 349 571 c 0,15,16
 353 518 353 518 349 488 c 1,17,-1
 349 425 l 1,18,-1
 349 404 l 1,19,-1
 249 404 l 1,20,-1
 249 343 l 1,21,-1
 348 343 l 1,22,-1
 348 260 l 2,23,24
 349 219 349 219 313 216.5 c 128,-1,25
 277 214 277 214 249 211 c 1,26,-1
 249 85 l 1,27,-1
 599 85 l 2,28,29
 678 85 678 85 726.5 129 c 128,-1,30
 775 173 775 173 775 235 c 2,31,-1
 775 343 l 1,32,-1
 775 343 l 1,0,-1
463 698 m 2,33,34
 464 713 464 713 476.5 719.5 c 128,-1,35
 489 726 489 726 502 726 c 2,36,-1
 519 726 l 2,37,38
 536 725 536 725 542.5 716 c 128,-1,39
 549 707 549 707 549 690 c 2,40,-1
 547 635 l 2,41,42
 546 604 546 604 514.5 605 c 128,-1,43
 483 606 483 606 463 604 c 1,44,-1
 463 698 l 2,33,34
661 300 m 1,45,46
 665 221 665 221 607 217.5 c 128,-1,47
 549 214 549 214 488 212 c 1,48,-1
 488 343 l 1,49,-1
 661 343 l 1,50,-1
 661 300 l 1,45,46
EndSplineSet
EndChar

StartChar: AE
Encoding: 198 198 135
Width: 1024
Flags: W
LayerCount: 2
Fore
SplineSet
536 270 m 1,0,1
 471 295 471 295 441 345 c 128,-1,2
 411 395 411 395 406 462 c 1,3,4
 441 467 441 467 475 483 c 0,5,6
 510 499 510 499 537 524.5 c 128,-1,7
 564 550 564 550 581 583 c 0,8,9
 599 615 599 615 601 653 c 2,10,-1
 601 811 l 1,11,-1
 444 811 l 1,12,-1
 444 694 l 1,13,14
 436 624 436 624 369.5 597 c 128,-1,15
 303 570 303 570 244 563 c 1,16,17
 238 489 238 489 247 423 c 0,18,19
 256 358 256 358 285.5 305.5 c 128,-1,20
 315 253 315 253 366 217 c 0,21,22
 418 180 418 180 497 162 c 1,23,-1
 469 85 l 1,24,-1
 647 85 l 1,25,-1
 783 458 l 1,26,-1
 605 458 l 1,27,-1
 536 270 l 1,28,-1
 536 270 l 1,0,1
EndSplineSet
EndChar

StartChar: Ccedilla
Encoding: 199 199 136
Width: 1024
Flags: W
LayerCount: 2
Fore
SplineSet
821 514 m 1,0,1
 804 531 804 531 752.5 543.5 c 128,-1,2
 701 556 701 556 630 556 c 1,3,4
 647 615 647 615 672.5 669.5 c 128,-1,5
 698 724 698 724 731 761 c 0,6,7
 743 776 743 776 735 793.5 c 128,-1,8
 727 811 727 811 707 811 c 2,9,-1
 616 811 l 2,10,11
 609 811 609 811 603 808 c 128,-1,12
 597 805 597 805 593 800 c 0,13,14
 551 749 551 749 523 680.5 c 128,-1,15
 495 612 495 612 480 540 c 1,16,17
 426 527 426 527 372 504 c 128,-1,18
 318 481 318 481 268 445 c 1,19,20
 285 511 285 511 305.5 574.5 c 128,-1,21
 326 638 326 638 348 687 c 0,22,23
 353 691 353 691 355.5 697 c 128,-1,24
 358 703 358 703 358 710 c 2,25,-1
 358 780 l 2,26,27
 358 793 358 793 349.5 802 c 128,-1,28
 341 811 341 811 328 811 c 2,29,-1
 164 811 l 1,30,-1
 164 126 l 2,31,32
 164 122 164 122 163.5 118 c 128,-1,33
 163 114 163 114 163 110 c 0,34,35
 161 87 161 87 185 85.5 c 128,-1,36
 209 84 209 84 209 107 c 0,37,38
 209 174 209 174 230 224 c 0,39,40
 252 274 252 274 287 309.5 c 128,-1,41
 322 345 322 345 367 367 c 0,42,43
 413 390 413 390 461 401 c 1,44,45
 460 383 460 383 459.5 365 c 128,-1,46
 459 347 459 347 459 330 c 0,47,48
 461 258 461 258 501 215 c 0,49,50
 540 173 540 173 592.5 155.5 c 128,-1,51
 645 138 645 138 698 143 c 0,52,53
 752 148 752 148 783 170 c 0,54,55
 818 195 818 195 837 243 c 0,56,57
 856 292 856 292 860 344.5 c 128,-1,58
 864 397 864 397 854 444 c 0,59,60
 844 492 844 492 821 514 c 1,61,-1
 821 514 l 1,0,1
639 282 m 1,62,63
 617 293 617 293 608.5 329 c 128,-1,64
 600 365 600 365 603 414 c 1,65,66
 650 411 650 411 685.5 399 c 128,-1,67
 721 387 721 387 734 370 c 0,68,69
 756 339 756 339 726 296 c 128,-1,70
 696 253 696 253 639 282 c 1,71,-1
 639 282 l 1,62,63
EndSplineSet
EndChar

StartChar: Egrave
Encoding: 200 200 137
Width: 1024
Flags: W
LayerCount: 2
Fore
SplineSet
577 565 m 1,0,1
 530 565 530 565 487.5 555 c 128,-1,2
 445 545 445 545 411 529 c 1,3,-1
 411 628 l 1,4,5
 416 672 416 672 454.5 689.5 c 128,-1,6
 493 707 493 707 528 709 c 2,7,-1
 591 709 l 2,8,9
 606 709 606 709 631 704.5 c 128,-1,10
 656 700 656 700 670 687 c 1,11,12
 670 687 670 687 668 683.5 c 128,-1,13
 666 680 666 680 666 673 c 0,14,15
 666 647 666 647 685 628 c 128,-1,16
 704 609 704 609 731 609 c 256,17,18
 758 609 758 609 777 628 c 128,-1,19
 796 647 796 647 796 673 c 0,20,21
 794 740 794 740 753.5 786 c 128,-1,22
 713 832 713 832 640 832 c 2,23,-1
 369 832 l 1,24,25
 311 828 311 828 256 792 c 128,-1,26
 201 756 201 756 196 694 c 1,27,-1
 196 354 l 1,28,29
 200 308 200 308 233.5 275.5 c 128,-1,30
 267 243 267 243 310 228 c 0,31,32
 322 224 322 224 367.5 218 c 128,-1,33
 413 212 413 212 466 210 c 1,34,-1
 466 114 l 1,35,-1
 349 114 l 1,36,-1
 349 64 l 1,37,-1
 561 64 l 1,38,-1
 561 210 l 1,39,40
 631 212 631 212 671 220 c 128,-1,41
 711 228 711 228 728 235 c 0,42,43
 773 255 773 255 800.5 296 c 128,-1,44
 828 337 828 337 828 399 c 0,45,46
 828 453 828 453 803 486 c 0,47,48
 778 518 778 518 740 535.5 c 128,-1,49
 702 553 702 553 658 559 c 256,50,51
 614 565 614 565 577 565 c 1,52,-1
 577 565 l 1,0,1
576 340 m 1,53,-1
 528 339 l 2,54,55
 498 341 498 341 470.5 352.5 c 128,-1,56
 443 364 443 364 429 396 c 1,57,58
 459 412 459 412 492 423.5 c 128,-1,59
 525 435 525 435 569 435 c 0,60,61
 603 435 603 435 634 429.5 c 128,-1,62
 665 424 665 424 692 414 c 1,63,64
 685 372 685 372 647.5 356 c 128,-1,65
 610 340 610 340 576 340 c 1,66,-1
 576 340 l 1,53,-1
EndSplineSet
EndChar

StartChar: Eacute
Encoding: 201 201 138
Width: 1024
Flags: W
LayerCount: 2
Fore
SplineSet
454 542 m 2,0,1
 391 542 391 542 382 587.5 c 128,-1,2
 373 633 373 633 373 683 c 0,3,4
 373 732 373 732 382 777.5 c 128,-1,5
 391 823 391 823 454 823 c 2,6,-1
 570 823 l 2,7,8
 633 823 633 823 642 777.5 c 128,-1,9
 651 732 651 732 651 683 c 0,10,11
 651 633 651 633 642 587.5 c 128,-1,12
 633 542 633 542 570 542 c 2,13,-1
 454 542 l 2,0,1
525 632 m 2,14,15
 546 633 546 633 553.5 647.5 c 128,-1,16
 561 662 561 662 561 683 c 256,17,18
 561 704 561 704 553.5 718.5 c 128,-1,19
 546 733 546 733 525 734 c 2,20,-1
 499 734 l 2,21,22
 478 733 478 733 470.5 718.5 c 128,-1,23
 463 704 463 704 463 683 c 256,24,25
 463 662 463 662 470.5 647.5 c 128,-1,26
 478 633 478 633 499 632 c 2,27,-1
 525 632 l 2,14,15
454 73 m 2,28,29
 391 73 391 73 382 118.5 c 128,-1,30
 373 164 373 164 373 213 c 0,31,32
 373 263 373 263 382 308.5 c 128,-1,33
 391 354 391 354 454 354 c 2,34,-1
 570 354 l 2,35,36
 633 354 633 354 642 308.5 c 128,-1,37
 651 263 651 263 651 213 c 0,38,39
 651 164 651 164 642 118.5 c 128,-1,40
 633 73 633 73 570 73 c 2,41,-1
 454 73 l 2,28,29
525 162 m 2,42,43
 546 163 546 163 553.5 177.5 c 128,-1,44
 561 192 561 192 561 213 c 256,45,46
 561 234 561 234 553.5 248.5 c 128,-1,47
 546 263 546 263 525 264 c 2,48,-1
 499 264 l 2,49,50
 478 263 478 263 470.5 248.5 c 128,-1,51
 463 234 463 234 463 213 c 256,52,53
 463 192 463 192 470.5 177.5 c 128,-1,54
 478 163 478 163 499 162 c 2,55,-1
 525 162 l 2,42,43
656 486 m 1,56,-1
 368 486 l 1,57,-1
 368 407 l 1,58,-1
 656 407 l 1,59,-1
 656 486 l 1,60,-1
 656 486 l 1,56,-1
EndSplineSet
EndChar

StartChar: Ecircumflex
Encoding: 202 202 139
Width: 1024
Flags: W
LayerCount: 2
Fore
SplineSet
761 401 m 1,0,-1
 761 201 l 2,1,2
 759 154 759 154 724 118.5 c 128,-1,3
 689 83 689 83 642 81 c 2,4,-1
 275 81 l 1,5,-1
 275 207 l 1,6,-1
 483 207 l 1,7,8
 516 211 516 211 550.5 214 c 128,-1,9
 585 217 585 217 583 264 c 2,10,-1
 583 401 l 1,11,-1
 761 401 l 1,12,-1
 761 401 l 1,0,-1
499 318 m 1,13,-1
 263 318 l 1,14,-1
 263 483 l 1,15,-1
 360 483 l 1,16,17
 365 514 365 514 359 569 c 0,18,19
 354 624 354 624 357 677.5 c 128,-1,20
 360 731 360 731 382 772 c 0,21,22
 404 812 404 812 464 814 c 2,23,-1
 622 814 l 1,24,25
 703 820 703 820 713 772 c 128,-1,26
 723 724 723 724 724 674 c 0,27,28
 723 575 723 575 692 524.5 c 128,-1,29
 661 474 661 474 526 480 c 1,30,-1
 499 480 l 1,31,-1
 499 318 l 1,32,-1
 499 318 l 1,13,-1
495 607 m 1,33,34
 520 609 520 609 557.5 608 c 128,-1,35
 595 607 595 607 596 638 c 2,36,-1
 598 694 l 2,37,38
 599 710 599 710 591 719 c 128,-1,39
 583 728 583 728 562 729 c 2,40,-1
 542 729 l 2,41,42
 527 730 527 730 512 723 c 128,-1,43
 497 716 497 716 495 702 c 2,44,-1
 495 607 l 1,45,-1
 495 607 l 1,33,34
EndSplineSet
EndChar

StartChar: Edieresis
Encoding: 203 203 140
Width: 1024
Flags: W
LayerCount: 2
Fore
SplineSet
607 483 m 1,0,1
 685 495 685 495 704 544 c 128,-1,2
 723 593 723 593 724 674 c 0,3,4
 723 724 723 724 713 772 c 128,-1,5
 703 820 703 820 622 814 c 1,6,-1
 464 814 l 2,7,8
 404 812 404 812 382 772 c 0,9,10
 360 731 360 731 357 677.5 c 128,-1,11
 354 624 354 624 359 569 c 0,12,13
 365 514 365 514 360 483 c 1,14,-1
 263 483 l 1,15,-1
 263 318 l 1,16,-1
 583 318 l 1,17,-1
 583 264 l 2,18,19
 585 217 585 217 550.5 214 c 128,-1,20
 516 211 516 211 483 207 c 1,21,-1
 275 207 l 1,22,-1
 275 81 l 1,23,-1
 642 81 l 2,24,25
 689 83 689 83 724 118.5 c 128,-1,26
 759 154 759 154 761 201 c 2,27,-1
 761 483 l 1,28,-1
 607 483 l 1,29,-1
 607 483 l 1,0,1
495 702 m 1,30,31
 497 716 497 716 512 723 c 128,-1,32
 527 730 527 730 542 729 c 2,33,-1
 562 729 l 2,34,35
 583 728 583 728 591 719 c 128,-1,36
 599 710 599 710 598 694 c 2,37,-1
 596 638 l 2,38,39
 595 607 595 607 557.5 608 c 128,-1,40
 520 609 520 609 495 607 c 1,41,-1
 495 702 l 1,42,-1
 495 702 l 1,30,31
EndSplineSet
EndChar

StartChar: Igrave
Encoding: 204 204 141
Width: 1024
Flags: W
LayerCount: 2
Fore
SplineSet
811 721 m 1,0,1
 807 772 807 772 787.5 792 c 128,-1,2
 768 812 768 812 716 811 c 2,3,-1
 619 811 l 2,4,5
 589 810 589 810 565.5 788 c 128,-1,6
 542 766 542 766 536 737 c 0,7,8
 530 712 530 712 531 685.5 c 128,-1,9
 532 659 532 659 522 635 c 0,10,11
 506 593 506 593 473 565.5 c 128,-1,12
 440 538 440 538 443 486 c 2,13,-1
 443 268 l 2,14,15
 445 221 445 221 410.5 218 c 128,-1,16
 376 215 376 215 343 212 c 1,17,-1
 343 85 l 1,18,-1
 502 85 l 2,19,20
 549 87 549 87 584 122.5 c 128,-1,21
 619 158 619 158 621 205 c 2,22,-1
 621 477 l 1,23,24
 653 478 653 478 688.5 480 c 128,-1,25
 724 482 724 482 753 500 c 0,26,27
 804 536 804 536 808 601 c 128,-1,28
 812 666 812 666 811 721 c 1,29,-1
 811 721 l 1,0,1
707 660 m 2,30,31
 706 649 706 649 705.5 634 c 128,-1,32
 705 619 705 619 695 612 c 0,33,34
 682 603 682 603 659 604 c 128,-1,35
 636 605 636 605 621 603 c 1,36,-1
 621 697 l 2,37,38
 622 712 622 712 635 719 c 128,-1,39
 648 726 648 726 661 726 c 0,40,41
 682 726 682 726 695.5 720.5 c 128,-1,42
 709 715 709 715 707 690 c 2,43,-1
 707 660 l 2,30,31
390 521 m 1,44,-1
 212 521 l 1,45,-1
 317 811 l 1,46,-1
 496 811 l 1,47,-1
 390 521 l 1,48,-1
 390 521 l 1,44,-1
EndSplineSet
EndChar

StartChar: Iacute
Encoding: 205 205 142
Width: 1024
Flags: W
LayerCount: 2
Fore
SplineSet
594 199 m 1,0,1
 543 219 543 219 507 263 c 128,-1,2
 471 307 471 307 463 361 c 1,3,4
 499 365 499 365 533 382 c 0,5,6
 567 398 567 398 594.5 423.5 c 128,-1,7
 622 449 622 449 639 481 c 0,8,9
 657 514 657 514 659 551 c 2,10,-1
 659 811 l 1,11,-1
 184 811 l 1,12,-1
 184 707 l 1,13,-1
 502 707 l 1,14,-1
 502 603 l 1,15,-1
 184 603 l 1,16,-1
 184 477 l 1,17,-1
 302 477 l 1,18,19
 301 438 301 438 302.5 383.5 c 128,-1,20
 304 329 304 329 320 293 c 0,21,22
 334 255 334 255 358 222 c 0,23,24
 381 189 381 189 412 163 c 128,-1,25
 443 137 443 137 479 119 c 0,26,27
 515 100 515 100 554 91 c 1,28,-1
 552 85 l 1,29,-1
 731 85 l 1,30,-1
 840 388 l 1,31,-1
 662 388 l 1,32,-1
 594 199 l 1,33,-1
 594 199 l 1,0,1
EndSplineSet
EndChar

StartChar: Icircumflex
Encoding: 206 206 143
Width: 1024
Flags: W
LayerCount: 2
Fore
SplineSet
716 274 m 1,0,-1
 625 274 l 1,1,-1
 607 372 l 1,2,-1
 654 372 l 2,3,4
 663 372 663 372 669.5 378.5 c 128,-1,5
 676 385 676 385 676 394 c 2,6,-1
 676 524 l 2,7,8
 676 533 676 533 669.5 539.5 c 128,-1,9
 663 546 663 546 654 546 c 2,10,-1
 576 546 l 1,11,-1
 558 644 l 1,12,-1
 593 644 l 2,13,14
 602 644 602 644 608.5 650.5 c 128,-1,15
 615 657 615 657 615 666 c 2,16,-1
 615 796 l 2,17,18
 615 805 615 805 608.5 811.5 c 128,-1,19
 602 818 602 818 593 818 c 2,20,-1
 457 818 l 2,21,22
 447 818 447 818 441 811.5 c 128,-1,23
 435 805 435 805 435 796 c 2,24,-1
 435 666 l 2,25,26
 435 657 435 657 441 650.5 c 128,-1,27
 447 644 447 644 457 644 c 2,28,-1
 509 644 l 1,29,-1
 527 546 l 1,30,-1
 509 546 l 2,31,32
 452 546 452 546 381 511.5 c 128,-1,33
 310 477 310 477 289 290 c 0,34,35
 276 175 276 175 330 131 c 256,36,37
 384 87 384 87 460 80 c 128,-1,38
 536 73 536 73 611 87 c 0,39,40
 686 100 686 100 716 100 c 0,41,42
 725 100 725 100 731.5 106.5 c 128,-1,43
 738 113 738 113 738 122 c 2,44,-1
 738 252 l 2,45,46
 738 261 738 261 731.5 267.5 c 128,-1,47
 725 274 725 274 716 274 c 1,48,-1
 716 274 l 1,0,-1
435 336 m 1,49,50
 442 361 442 361 470.5 367 c 128,-1,51
 499 373 499 373 515 373 c 0,52,53
 516 373 516 373 516.5 372.5 c 128,-1,54
 517 372 517 372 518 372 c 2,55,-1
 558 372 l 1,56,-1
 576 273 l 1,57,-1
 569 273 l 2,58,59
 516 273 516 273 469 284 c 128,-1,60
 422 295 422 295 435 336 c 1,61,-1
 435 336 l 1,49,50
EndSplineSet
EndChar

StartChar: Idieresis
Encoding: 207 207 144
Width: 1024
Flags: W
LayerCount: 2
Fore
SplineSet
831 567 m 1,0,1
 827 485 827 485 815 415 c 256,2,3
 803 345 803 345 782.5 287.5 c 128,-1,4
 762 230 762 230 733 185 c 0,5,6
 703 140 703 140 665 107 c 0,7,8
 630 76 630 76 572 63.5 c 128,-1,9
 514 51 514 51 495 50 c 1,10,-1
 465 124 l 1,11,12
 497 133 497 133 528 161 c 0,13,14
 559 190 559 190 583 231.5 c 128,-1,15
 607 273 607 273 620 325 c 0,16,17
 632 378 632 378 627 434 c 1,18,-1
 627 567 l 1,19,-1
 831 567 l 1,20,-1
 831 567 l 1,0,1
545 407 m 1,21,-1
 445 469 l 1,22,23
 493 469 493 469 526 502 c 128,-1,24
 559 535 559 535 559 583 c 2,25,-1
 559 694 l 2,26,27
 558 745 558 745 528.5 794.5 c 128,-1,28
 499 844 499 844 442 846 c 2,29,-1
 282 846 l 1,30,-1
 282 763 l 2,31,32
 281 748 281 748 291 734.5 c 128,-1,33
 301 721 301 721 317 721 c 0,34,35
 334 721 334 721 375.5 720.5 c 128,-1,36
 417 720 417 720 423 717 c 0,37,38
 440 711 440 711 446 693.5 c 128,-1,39
 452 676 452 676 452 660 c 2,40,-1
 452 626 l 1,41,-1
 193 626 l 1,42,-1
 193 469 l 1,43,-1
 515 245 l 1,44,-1
 545 407 l 1,45,-1
 545 407 l 1,21,-1
EndSplineSet
EndChar

StartChar: Eth
Encoding: 208 208 145
Width: 1024
Flags: W
LayerCount: 2
Fore
SplineSet
533 593 m 1,0,1
 533 539 533 539 551 496 c 0,2,3
 569 454 569 454 601 424 c 128,-1,4
 633 394 633 394 676 378 c 256,5,6
 719 362 719 362 769 360 c 2,7,-1
 776 360 l 2,8,9
 789 360 789 360 798 369 c 128,-1,10
 807 378 807 378 807 390 c 2,11,-1
 809 433 l 2,12,13
 809 444 809 444 802 452.5 c 128,-1,14
 795 461 795 461 784 464 c 0,15,16
 746 472 746 472 716.5 497 c 128,-1,17
 687 522 687 522 687 571 c 2,18,-1
 687 777 l 2,19,20
 687 799 687 799 671.5 814.5 c 128,-1,21
 656 830 656 830 634 830 c 2,22,-1
 215 830 l 1,23,-1
 215 66 l 1,24,-1
 423 66 l 1,25,-1
 423 660 l 2,26,27
 423 681 423 681 439.5 689 c 128,-1,28
 456 697 456 697 471 697 c 2,29,-1
 485 697 l 2,30,31
 499 696 499 696 515 689 c 128,-1,32
 531 682 531 682 533 664 c 2,33,-1
 533 593 l 1,34,-1
 533 593 l 1,0,1
EndSplineSet
EndChar
